Workaround SemiRound Roman.ufo
<glyph name="Exclamation_Mark" format="1">
  <advance width="305"/>
  <unicode hex="0021"/>
  <outline>
    <contour>
      <point x="170" y="99" type="line" smooth="yes"/>
      <point x="170" y="129"/>
      <point x="132" y="153"/>
      <point x="85" y="153" type="curve" smooth="yes"/>
      <point x="38" y="153"/>
      <point x="0" y="129"/>
      <point x="0" y="99" type="curve" smooth="yes"/>
      <point x="0" y="48" type="line" smooth="yes"/>
      <point x="0" y="19"/>
      <point x="38" y="-5"/>
      <point x="85" y="-5" type="curve" smooth="yes"/>
      <point x="132" y="-5"/>
      <point x="170" y="19"/>
      <point x="170" y="48" type="curve" smooth="yes"/>
    </contour>
    <contour>
      <point x="170" y="952" type="line" smooth="yes"/>
      <point x="170" y="981"/>
      <point x="132" y="1005"/>
      <point x="85" y="1005" type="curve" smooth="yes"/>
      <point x="38" y="1005"/>
      <point x="0" y="981"/>
      <point x="0" y="952" type="curve" smooth="yes"/>
      <point x="0" y="346" type="line" smooth="yes"/>
      <point x="0" y="316"/>
      <point x="38" y="293"/>
      <point x="85" y="293" type="curve" smooth="yes"/>
      <point x="132" y="293"/>
      <point x="170" y="316"/>
      <point x="170" y="346" type="curve" smooth="yes"/>
    </contour>
  </outline>
</glyph>
<glyph name="exclam" format="1">
  <advance width="317"/>
  <unicode hex="0021"/>
  <outline>
    <contour>
      <point x="182" y="118" type="line" smooth="yes"/>
      <point x="182" y="147"/>
      <point x="141" y="170"/>
      <point x="91" y="170" type="curve" smooth="yes"/>
      <point x="41" y="170"/>
      <point x="0" y="147"/>
      <point x="0" y="118" type="curve" smooth="yes"/>
      <point x="0" y="48" type="line" smooth="yes"/>
      <point x="0" y="19"/>
      <point x="41" y="-5"/>
      <point x="91" y="-5" type="curve" smooth="yes"/>
      <point x="141" y="-5"/>
      <point x="182" y="19"/>
      <point x="182" y="48" type="curve" smooth="yes"/>
    </contour>
    <contour>
      <point x="182" y="952" type="line"/>
      <point x="182" y="981"/>
      <point x="141" y="1005"/>
      <point x="91" y="1005" type="curve" smooth="yes"/>
      <point x="41" y="1005"/>
      <point x="0" y="981"/>
      <point x="0" y="952" type="curve" smooth="yes"/>
      <point x="12" y="346" type="line" smooth="yes"/>
      <point x="12" y="321"/>
      <point x="47" y="300"/>
      <point x="91" y="300" type="curve" smooth="yes"/>
      <point x="135" y="300"/>
      <point x="170" y="321"/>
      <point x="170" y="346" type="curve"/>
    </contour>
  </outline>
</glyph>
<glyph name="quotedbl" format="1">
  <advance width="569"/>
  <unicode hex="0022"/>
  <outline>
    <contour>
      <point x="170" y="952" type="line" smooth="yes"/>
      <point x="172" y="971"/>
      <point x="157" y="987"/>
      <point x="129" y="997" type="curve" smooth="yes"/>
      <point x="101" y="1007"/>
      <point x="69" y="1007"/>
      <point x="41" y="997" type="curve" smooth="yes"/>
      <point x="13" y="987"/>
      <point x="-2" y="971"/>
      <point x="0" y="952" type="curve" smooth="yes"/>
      <point x="27" y="753" type="line" smooth="yes"/>
      <point x="30" y="735"/>
      <point x="55" y="722"/>
      <point x="85" y="722" type="curve" smooth="yes"/>
      <point x="115" y="722"/>
      <point x="140" y="735"/>
      <point x="143" y="753" type="curve" smooth="yes"/>
    </contour>
    <contour>
      <point x="433" y="952" type="line" smooth="yes"/>
      <point x="436" y="971"/>
      <point x="421" y="987"/>
      <point x="393" y="997" type="curve" smooth="yes"/>
      <point x="365" y="1007"/>
      <point x="332" y="1007"/>
      <point x="304" y="997" type="curve" smooth="yes"/>
      <point x="276" y="987"/>
      <point x="261" y="971"/>
      <point x="264" y="952" type="curve" smooth="yes"/>
      <point x="291" y="753" type="line" smooth="yes"/>
      <point x="293" y="735"/>
      <point x="318" y="722"/>
      <point x="349" y="722" type="curve" smooth="yes"/>
      <point x="379" y="722"/>
      <point x="404" y="735"/>
      <point x="406" y="753" type="curve" smooth="yes"/>
    </contour>
  </outline>
</glyph>
<glyph name="numbersign" format="1">
  <advance width="1075"/>
  <unicode hex="0023"/>
  <outline>
    <contour>
      <point x="588" y="621" type="line"/>
      <point x="539" y="379" type="line"/>
      <point x="352" y="379" type="line"/>
      <point x="401" y="621" type="line"/>
    </contour>
    <contour>
      <point x="758" y="621" type="line"/>
      <point x="896" y="621" type="line" smooth="yes"/>
      <point x="909" y="621"/>
      <point x="926" y="657"/>
      <point x="935" y="700" type="curve" smooth="yes"/>
      <point x="944" y="743"/>
      <point x="940" y="779"/>
      <point x="928" y="779" type="curve" smooth="yes"/>
      <point x="789" y="779" type="line"/>
      <point x="830" y="983" type="line" smooth="yes"/>
      <point x="832" y="995"/>
      <point x="796" y="1005"/>
      <point x="749" y="1005" type="curve" smooth="yes"/>
      <point x="702" y="1005"/>
      <point x="662" y="995"/>
      <point x="660" y="983" type="curve" smooth="yes"/>
      <point x="619" y="779" type="line"/>
      <point x="432" y="779" type="line"/>
      <point x="473" y="983" type="line" smooth="yes"/>
      <point x="475" y="995"/>
      <point x="439" y="1005"/>
      <point x="392" y="1005" type="curve" smooth="yes"/>
      <point x="345" y="1005"/>
      <point x="305" y="995"/>
      <point x="303" y="983" type="curve" smooth="yes"/>
      <point x="262" y="779" type="line"/>
      <point x="124" y="779" type="line" smooth="yes"/>
      <point x="111" y="779"/>
      <point x="94" y="743"/>
      <point x="85" y="700" type="curve" smooth="yes"/>
      <point x="76" y="657"/>
      <point x="79" y="621"/>
      <point x="92" y="621" type="curve" smooth="yes"/>
      <point x="231" y="621" type="line"/>
      <point x="182" y="379" type="line"/>
      <point x="44" y="379" type="line" smooth="yes"/>
      <point x="31" y="379"/>
      <point x="14" y="343"/>
      <point x="5" y="300" type="curve" smooth="yes"/>
      <point x="-4" y="257"/>
      <point x="-1" y="221"/>
      <point x="12" y="221" type="curve" smooth="yes"/>
      <point x="151" y="221" type="line"/>
      <point x="110" y="17" type="line" smooth="yes"/>
      <point x="107" y="5"/>
      <point x="143" y="-5"/>
      <point x="190" y="-5" type="curve" smooth="yes"/>
      <point x="237" y="-5"/>
      <point x="277" y="5"/>
      <point x="280" y="17" type="curve" smooth="yes"/>
      <point x="321" y="221" type="line"/>
      <point x="508" y="221" type="line"/>
      <point x="467" y="17" type="line" smooth="yes"/>
      <point x="464" y="5"/>
      <point x="500" y="-5"/>
      <point x="547" y="-5" type="curve" smooth="yes"/>
      <point x="594" y="-5"/>
      <point x="634" y="5"/>
      <point x="637" y="17" type="curve" smooth="yes"/>
      <point x="678" y="221" type="line"/>
      <point x="816" y="221" type="line" smooth="yes"/>
      <point x="829" y="221"/>
      <point x="846" y="257"/>
      <point x="855" y="300" type="curve" smooth="yes"/>
      <point x="864" y="343"/>
      <point x="860" y="379"/>
      <point x="848" y="379" type="curve" smooth="yes"/>
      <point x="709" y="379" type="line"/>
    </contour>
  </outline>
</glyph>
<glyph name="dollar" format="1">
  <advance width="788"/>
  <unicode hex="0024"/>
  <outline>
    <contour>
      <point x="383" y="5" type="line"/>
      <point x="538" y="41"/>
      <point x="653" y="163"/>
      <point x="653" y="310" type="curve" smooth="yes"/>
      <point x="653" y="466"/>
      <point x="528" y="549"/>
      <point x="383" y="603" type="curve"/>
      <point x="383" y="838" type="line"/>
      <point x="403" y="833"/>
      <point x="422" y="825"/>
      <point x="439" y="815" type="curve"/>
      <point x="448" y="807"/>
      <point x="481" y="824"/>
      <point x="514" y="854" type="curve" smooth="yes"/>
      <point x="546" y="885"/>
      <point x="566" y="916"/>
      <point x="559" y="926" type="curve"/>
      <point x="508" y="964"/>
      <point x="449" y="989"/>
      <point x="383" y="999" type="curve"/>
      <point x="383" y="1060" type="line" smooth="yes"/>
      <point x="383" y="1068"/>
      <point x="356" y="1075"/>
      <point x="323" y="1075" type="curve" smooth="yes"/>
      <point x="291" y="1075"/>
      <point x="264" y="1068"/>
      <point x="264" y="1060" type="curve" smooth="yes"/>
      <point x="264" y="1002" type="line"/>
      <point x="115" y="984"/>
      <point x="0" y="872"/>
      <point x="0" y="736" type="curve" smooth="yes"/>
      <point x="0" y="595"/>
      <point x="130" y="523"/>
      <point x="264" y="477" type="curve"/>
      <point x="264" y="153" type="line"/>
      <point x="209" y="157"/>
      <point x="162" y="172"/>
      <point x="121" y="198" type="curve"/>
      <point x="112" y="207"/>
      <point x="79" y="189"/>
      <point x="47" y="159" type="curve" smooth="yes"/>
      <point x="14" y="129"/>
      <point x="-6" y="97"/>
      <point x="2" y="88" type="curve"/>
      <point x="75" y="31"/>
      <point x="162" y="1"/>
      <point x="264" y="-4" type="curve"/>
      <point x="264" y="-60" type="line" smooth="yes"/>
      <point x="264" y="-68"/>
      <point x="291" y="-75"/>
      <point x="323" y="-75" type="curve" smooth="yes"/>
      <point x="356" y="-75"/>
      <point x="383" y="-68"/>
      <point x="383" y="-60" type="curve" smooth="yes"/>
    </contour>
    <contour>
      <point x="264" y="842" type="curve"/>
      <point x="264" y="647" type="line"/>
      <point x="218" y="667"/>
      <point x="175" y="696"/>
      <point x="175" y="736" type="curve" smooth="yes"/>
      <point x="174" y="785"/>
      <point x="212" y="826"/>
    </contour>
    <contour>
      <point x="383" y="173" type="curve"/>
      <point x="383" y="429" type="line"/>
      <point x="434" y="402"/>
      <point x="477" y="363"/>
      <point x="477" y="310" type="curve" smooth="yes"/>
      <point x="477" y="251"/>
      <point x="439" y="200"/>
    </contour>
  </outline>
</glyph>
<glyph name="percent" format="1">
  <advance width="1035"/>
  <unicode hex="0025"/>
  <outline>
    <contour>
      <point x="138" y="803" type="curve" smooth="yes"/>
      <point x="138" y="845"/>
      <point x="174" y="879"/>
      <point x="218" y="879" type="curve" smooth="yes"/>
      <point x="261" y="879"/>
      <point x="297" y="845"/>
      <point x="297" y="803" type="curve" smooth="yes"/>
      <point x="297" y="762"/>
      <point x="261" y="728"/>
      <point x="218" y="728" type="curve" smooth="yes"/>
      <point x="174" y="728"/>
      <point x="138" y="762"/>
    </contour>
    <contour>
      <point x="0" y="803" type="curve" smooth="yes"/>
      <point x="0" y="692"/>
      <point x="97" y="602"/>
      <point x="218" y="602" type="curve" smooth="yes"/>
      <point x="338" y="602"/>
      <point x="435" y="692"/>
      <point x="435" y="803" type="curve" smooth="yes"/>
      <point x="435" y="915"/>
      <point x="338" y="1005"/>
      <point x="218" y="1005" type="curve" smooth="yes"/>
      <point x="97" y="1005"/>
      <point x="0" y="915"/>
    </contour>
    <contour>
      <point x="603" y="197" type="curve" smooth="yes"/>
      <point x="603" y="238"/>
      <point x="639" y="272"/>
      <point x="682" y="272" type="curve" smooth="yes"/>
      <point x="726" y="272"/>
      <point x="762" y="238"/>
      <point x="762" y="197" type="curve" smooth="yes"/>
      <point x="762" y="155"/>
      <point x="726" y="121"/>
      <point x="682" y="121" type="curve" smooth="yes"/>
      <point x="639" y="121"/>
      <point x="603" y="155"/>
    </contour>
    <contour>
      <point x="465" y="197" type="curve" smooth="yes"/>
      <point x="465" y="85"/>
      <point x="562" y="-5"/>
      <point x="682" y="-5" type="curve" smooth="yes"/>
      <point x="803" y="-5"/>
      <point x="900" y="85"/>
      <point x="900" y="197" type="curve" smooth="yes"/>
      <point x="900" y="308"/>
      <point x="803" y="398"/>
      <point x="682" y="398" type="curve" smooth="yes"/>
      <point x="562" y="398"/>
      <point x="465" y="308"/>
    </contour>
    <contour>
      <point x="804" y="914" type="line"/>
      <point x="808" y="919"/>
      <point x="801" y="930"/>
      <point x="785" y="944" type="curve"/>
      <point x="770" y="959"/>
      <point x="750" y="972"/>
      <point x="731" y="980" type="curve" smooth="yes"/>
      <point x="712" y="989"/>
      <point x="699" y="991"/>
      <point x="696" y="986" type="curve" smooth="yes"/>
      <point x="96" y="86" type="line" smooth="yes"/>
      <point x="91" y="78"/>
      <point x="111" y="56"/>
      <point x="140" y="36" type="curve" smooth="yes"/>
      <point x="170" y="16"/>
      <point x="199" y="6"/>
      <point x="204" y="14" type="curve" smooth="yes"/>
    </contour>
  </outline>
</glyph>
<glyph name="ampersand" format="1">
  <advance width="940"/>
  <unicode hex="0026"/>
  <outline>
    <contour>
      <point x="289" y="611" type="curve"/>
      <point x="273" y="630"/>
      <point x="258" y="650"/>
      <point x="243" y="670" type="curve" smooth="yes"/>
      <point x="228" y="690"/>
      <point x="220" y="711"/>
      <point x="220" y="736" type="curve" smooth="yes"/>
      <point x="220" y="797"/>
      <point x="272" y="847"/>
      <point x="336" y="847" type="curve" smooth="yes"/>
      <point x="400" y="847"/>
      <point x="452" y="797"/>
      <point x="452" y="736" type="curve" smooth="yes"/>
      <point x="452" y="654"/>
      <point x="346" y="640"/>
      <point x="300" y="616" type="curve"/>
      <point x="297" y="614"/>
      <point x="293" y="612"/>
    </contour>
    <contour>
      <point x="563" y="324" type="curve"/>
      <point x="506" y="376"/>
      <point x="451" y="430"/>
      <point x="397" y="487" type="curve"/>
      <point x="496" y="536"/>
      <point x="622" y="599"/>
      <point x="622" y="736" type="curve" smooth="yes"/>
      <point x="622" y="884"/>
      <point x="494" y="1005"/>
      <point x="336" y="1005" type="curve" smooth="yes"/>
      <point x="178" y="1005"/>
      <point x="50" y="884"/>
      <point x="50" y="736" type="curve" smooth="yes"/>
      <point x="50" y="676"/>
      <point x="68" y="626"/>
      <point x="105" y="578" type="curve" smooth="yes"/>
      <point x="117" y="562"/>
      <point x="129" y="547"/>
      <point x="141" y="532" type="curve"/>
      <point x="64" y="482"/>
      <point x="0" y="415"/>
      <point x="0" y="310" type="curve" smooth="yes"/>
      <point x="0" y="136"/>
      <point x="151" y="-5"/>
      <point x="336" y="-5" type="curve" smooth="yes"/>
      <point x="427" y="-5"/>
      <point x="512" y="29"/>
      <point x="584" y="92" type="curve"/>
      <point x="621" y="60"/>
      <point x="659" y="28"/>
      <point x="698" y="-5" type="curve" smooth="yes"/>
      <point x="707" y="-13"/>
      <point x="738" y="8"/>
      <point x="767" y="41" type="curve" smooth="yes"/>
      <point x="795" y="75"/>
      <point x="811" y="109"/>
      <point x="802" y="116" type="curve"/>
      <point x="763" y="150"/>
      <point x="724" y="183"/>
      <point x="687" y="215" type="curve"/>
      <point x="718" y="265"/>
      <point x="745" y="323"/>
      <point x="766" y="389" type="curve" smooth="yes"/>
      <point x="770" y="400"/>
      <point x="740" y="423"/>
      <point x="699" y="441" type="curve" smooth="yes"/>
      <point x="657" y="460"/>
      <point x="619" y="465"/>
      <point x="614" y="455" type="curve"/>
      <point x="600" y="406"/>
      <point x="583" y="362"/>
    </contour>
    <contour>
      <point x="240" y="417" type="curve"/>
      <point x="312" y="339"/>
      <point x="386" y="268"/>
      <point x="463" y="198" type="curve"/>
      <point x="425" y="168"/>
      <point x="382" y="153"/>
      <point x="336" y="153" type="curve" smooth="yes"/>
      <point x="244" y="153"/>
      <point x="170" y="223"/>
      <point x="170" y="310" type="curve" smooth="yes"/>
      <point x="170" y="362"/>
      <point x="201" y="394"/>
    </contour>
  </outline>
</glyph>
<glyph name="quotesingle" format="1">
  <advance width="305"/>
  <unicode hex="0027"/>
  <outline>
    <contour>
      <point x="170" y="983" type="line" smooth="yes"/>
      <point x="171" y="991"/>
      <point x="156" y="998"/>
      <point x="128" y="1002" type="curve" smooth="yes"/>
      <point x="101" y="1006"/>
      <point x="69" y="1006"/>
      <point x="42" y="1002" type="curve" smooth="yes"/>
      <point x="14" y="998"/>
      <point x="-1" y="991"/>
      <point x="0" y="983" type="curve" smooth="yes"/>
      <point x="27" y="783" type="line" smooth="yes"/>
      <point x="28" y="775"/>
      <point x="54" y="769"/>
      <point x="85" y="769" type="curve" smooth="yes"/>
      <point x="116" y="769"/>
      <point x="142" y="775"/>
      <point x="143" y="783" type="curve" smooth="yes"/>
    </contour>
  </outline>
</glyph>
<glyph name="parenleft" format="1">
  <advance width="410"/>
  <unicode hex="0028"/>
  <outline>
    <contour>
      <point x="275" y="971" type="curve" smooth="yes"/>
      <point x="279" y="982"/>
      <point x="248" y="1004"/>
      <point x="205" y="1020" type="curve" smooth="yes"/>
      <point x="162" y="1036"/>
      <point x="124" y="1040"/>
      <point x="120" y="1029" type="curve" smooth="yes"/>
      <point x="-40" y="606"/>
      <point x="-40" y="194"/>
      <point x="120" y="-229" type="curve" smooth="yes"/>
      <point x="124" y="-240"/>
      <point x="162" y="-236"/>
      <point x="205" y="-220" type="curve" smooth="yes"/>
      <point x="248" y="-204"/>
      <point x="279" y="-182"/>
      <point x="275" y="-171" type="curve" smooth="yes"/>
      <point x="130" y="213"/>
      <point x="130" y="587"/>
    </contour>
  </outline>
</glyph>
<glyph name="parenright" format="1">
  <advance width="410"/>
  <unicode hex="0029"/>
  <outline>
    <contour>
      <point x="0" y="971" type="curve" smooth="yes"/>
      <point x="145" y="587"/>
      <point x="145" y="213"/>
      <point x="0" y="-171" type="curve" smooth="yes"/>
      <point x="-4" y="-182"/>
      <point x="27" y="-204"/>
      <point x="70" y="-220" type="curve" smooth="yes"/>
      <point x="113" y="-236"/>
      <point x="151" y="-240"/>
      <point x="155" y="-229" type="curve" smooth="yes"/>
      <point x="315" y="194"/>
      <point x="315" y="606"/>
      <point x="155" y="1029" type="curve" smooth="yes"/>
      <point x="151" y="1040"/>
      <point x="113" y="1036"/>
      <point x="70" y="1020" type="curve" smooth="yes"/>
      <point x="27" y="1004"/>
      <point x="-4" y="982"/>
    </contour>
  </outline>
</glyph>
<glyph name="asterisk" format="1">
  <advance width="571"/>
  <unicode hex="002A"/>
  <outline>
    <contour>
      <point x="282" y="975" type="line"/>
      <point x="282" y="995"/>
      <point x="253" y="1012"/>
      <point x="218" y="1012" type="curve" smooth="yes"/>
      <point x="183" y="1012"/>
      <point x="154" y="995"/>
      <point x="154" y="975" type="curve"/>
      <point x="163" y="870" type="line"/>
      <point x="74" y="926" type="line" smooth="yes"/>
      <point x="56" y="937"/>
      <point x="28" y="922"/>
      <point x="11" y="894" type="curve" smooth="yes"/>
      <point x="-5" y="865"/>
      <point x="-4" y="834"/>
      <point x="15" y="823" type="curve" smooth="yes"/>
      <point x="108" y="775" type="line"/>
      <point x="15" y="726" type="line" smooth="yes"/>
      <point x="-4" y="716"/>
      <point x="-5" y="684"/>
      <point x="11" y="655" type="curve" smooth="yes"/>
      <point x="28" y="627"/>
      <point x="56" y="612"/>
      <point x="74" y="623" type="curve" smooth="yes"/>
      <point x="163" y="679" type="line"/>
      <point x="154" y="575" type="line"/>
      <point x="154" y="554"/>
      <point x="183" y="538"/>
      <point x="218" y="538" type="curve" smooth="yes"/>
      <point x="253" y="538"/>
      <point x="282" y="554"/>
      <point x="282" y="575" type="curve"/>
      <point x="273" y="679" type="line"/>
      <point x="361" y="623" type="line"/>
      <point x="374" y="616"/>
      <point x="389" y="619"/>
      <point x="405" y="632" type="curve" smooth="yes"/>
      <point x="421" y="645"/>
      <point x="431" y="664"/>
      <point x="435" y="684" type="curve" smooth="yes"/>
      <point x="438" y="704"/>
      <point x="433" y="719"/>
      <point x="421" y="726" type="curve" smooth="yes"/>
      <point x="328" y="775" type="line"/>
      <point x="421" y="823" type="line"/>
      <point x="439" y="834"/>
      <point x="441" y="865"/>
      <point x="424" y="894" type="curve" smooth="yes"/>
      <point x="408" y="922"/>
      <point x="380" y="937"/>
      <point x="361" y="926" type="curve" smooth="yes"/>
      <point x="273" y="870" type="line"/>
    </contour>
  </outline>
</glyph>
<glyph name="plus" format="1">
  <advance width="835"/>
  <unicode hex="002B"/>
  <outline>
    <contour>
      <point x="265" y="431" type="line"/>
      <point x="265" y="183" type="line" smooth="yes"/>
      <point x="265" y="171"/>
      <point x="303" y="162"/>
      <point x="350" y="162" type="curve" smooth="yes"/>
      <point x="397" y="162"/>
      <point x="435" y="171"/>
      <point x="435" y="183" type="curve" smooth="yes"/>
      <point x="435" y="431" type="line"/>
      <point x="677" y="431" type="line" smooth="yes"/>
      <point x="690" y="431"/>
      <point x="700" y="467"/>
      <point x="700" y="510" type="curve" smooth="yes"/>
      <point x="700" y="553"/>
      <point x="690" y="589"/>
      <point x="677" y="589" type="curve" smooth="yes"/>
      <point x="435" y="589" type="line"/>
      <point x="435" y="837" type="line" smooth="yes"/>
      <point x="435" y="849"/>
      <point x="397" y="858"/>
      <point x="350" y="858" type="curve" smooth="yes"/>
      <point x="303" y="858"/>
      <point x="265" y="849"/>
      <point x="265" y="837" type="curve" smooth="yes"/>
      <point x="265" y="589" type="line"/>
      <point x="23" y="589" type="line" smooth="yes"/>
      <point x="10" y="589"/>
      <point x="0" y="553"/>
      <point x="0" y="510" type="curve" smooth="yes"/>
      <point x="0" y="467"/>
      <point x="10" y="431"/>
      <point x="23" y="431" type="curve" smooth="yes"/>
    </contour>
  </outline>
</glyph>
<glyph name="comma" format="1">
  <advance width="322"/>
  <unicode hex="002C"/>
  <outline>
    <contour>
      <point x="187" y="124" type="curve" smooth="yes"/>
      <point x="187" y="154"/>
      <point x="145" y="178"/>
      <point x="94" y="178" type="curve" smooth="yes"/>
      <point x="42" y="178"/>
      <point x="0" y="154"/>
      <point x="0" y="124" type="curve" smooth="yes"/>
      <point x="0" y="50" type="line" smooth="yes"/>
      <point x="0" y="30"/>
      <point x="18" y="13"/>
      <point x="44" y="3" type="curve"/>
      <point x="52" y="1"/>
      <point x="57" y="-8"/>
      <point x="58" y="-19" type="curve"/>
      <point x="58" y="-30"/>
      <point x="55" y="-40"/>
      <point x="48" y="-45" type="curve"/>
      <point x="22" y="-59" type="line" smooth="yes"/>
      <point x="13" y="-64"/>
      <point x="11" y="-79"/>
      <point x="18" y="-93" type="curve"/>
      <point x="26" y="-107"/>
      <point x="39" y="-115"/>
      <point x="48" y="-110" type="curve" smooth="yes"/>
      <point x="139" y="-64"/>
      <point x="187" y="24"/>
    </contour>
  </outline>
</glyph>
<glyph name="hyphen" format="1">
  <advance width="585"/>
  <unicode hex="002D"/>
  <outline>
    <contour>
      <point x="427" y="431" type="line" smooth="yes"/>
      <point x="440" y="431"/>
      <point x="450" y="467"/>
      <point x="450" y="510" type="curve" smooth="yes"/>
      <point x="450" y="553"/>
      <point x="440" y="589"/>
      <point x="427" y="589" type="curve" smooth="yes"/>
      <point x="23" y="589" type="line" smooth="yes"/>
      <point x="10" y="589"/>
      <point x="0" y="553"/>
      <point x="0" y="510" type="curve" smooth="yes"/>
      <point x="0" y="467"/>
      <point x="10" y="431"/>
      <point x="23" y="431" type="curve" smooth="yes"/>
    </contour>
  </outline>
</glyph>
<glyph name="period" format="1">
  <advance width="322"/>
  <unicode hex="002E"/>
  <outline>
    <contour>
      <point x="187" y="124" type="line" smooth="yes"/>
      <point x="187" y="154"/>
      <point x="145" y="178"/>
      <point x="94" y="178" type="curve" smooth="yes"/>
      <point x="42" y="178"/>
      <point x="0" y="154"/>
      <point x="0" y="124" type="curve" smooth="yes"/>
      <point x="0" y="50" type="line" smooth="yes"/>
      <point x="0" y="20"/>
      <point x="42" y="-5"/>
      <point x="94" y="-5" type="curve" smooth="yes"/>
      <point x="145" y="-5"/>
      <point x="187" y="20"/>
      <point x="187" y="50" type="curve" smooth="yes"/>
    </contour>
  </outline>
</glyph>
<glyph name="slash" format="1">
  <advance width="652"/>
  <unicode hex="002F"/>
  <outline>
    <contour>
      <point x="515" y="1022" type="line" smooth="yes"/>
      <point x="523" y="1048"/>
      <point x="495" y="1080"/>
      <point x="451" y="1094" type="curve" smooth="yes"/>
      <point x="408" y="1109"/>
      <point x="366" y="1099"/>
      <point x="357" y="1073" type="curve" smooth="yes"/>
      <point x="1" y="-22" type="line" smooth="yes"/>
      <point x="-7" y="-48"/>
      <point x="22" y="-80"/>
      <point x="65" y="-94" type="curve" smooth="yes"/>
      <point x="109" y="-109"/>
      <point x="151" y="-99"/>
      <point x="159" y="-73" type="curve" smooth="yes"/>
    </contour>
  </outline>
</glyph>
<glyph name="Digit_One" format="1">
  <advance width="495"/>
  <unicode hex="0031"/>
  <outline>
    <contour>
      <point x="360" y="946" type="line" smooth="yes"/>
      <point x="360" y="971"/>
      <point x="337" y="992"/>
      <point x="300" y="1001" type="curve" smooth="yes"/>
      <point x="264" y="1010"/>
      <point x="224" y="1004"/>
      <point x="198" y="986" type="curve"/>
      <point x="11" y="785" type="line" smooth="yes"/>
      <point x="-10" y="763"/>
      <point x="0" y="720"/>
      <point x="33" y="690" type="curve"/>
      <point x="33" y="690" type="line"/>
      <point x="66" y="660"/>
      <point x="109" y="654"/>
      <point x="129" y="675" type="curve" smooth="yes"/>
      <point x="190" y="741" type="line"/>
      <point x="190" y="48" type="line" smooth="yes"/>
      <point x="190" y="19"/>
      <point x="228" y="-5"/>
      <point x="275" y="-5" type="curve" smooth="yes"/>
      <point x="322" y="-5"/>
      <point x="360" y="19"/>
      <point x="360" y="48" type="curve" smooth="yes"/>
    </contour>
  </outline>
</glyph>
<glyph name="one" format="1">
  <advance width="523"/>
  <unicode hex="0031"/>
  <outline>
    <contour>
      <point x="387" y="950" type="line" smooth="yes"/>
      <point x="387" y="973"/>
      <point x="366" y="992"/>
      <point x="330" y="1001" type="curve" smooth="yes"/>
      <point x="294" y="1009"/>
      <point x="256" y="1005"/>
      <point x="228" y="989" type="curve"/>
      <point x="10" y="777" type="line" smooth="yes"/>
      <point x="-9" y="757"/>
      <point x="0" y="716"/>
      <point x="31" y="685" type="curve" smooth="yes"/>
      <point x="63" y="653"/>
      <point x="104" y="644"/>
      <point x="124" y="663" type="curve" smooth="yes"/>
      <point x="217" y="754" type="line"/>
      <point x="217" y="45" type="line" smooth="yes"/>
      <point x="217" y="17"/>
      <point x="255" y="-5"/>
      <point x="302" y="-5" type="curve" smooth="yes"/>
      <point x="349" y="-5"/>
      <point x="387" y="17"/>
      <point x="387" y="45" type="curve" smooth="yes"/>
    </contour>
  </outline>
</glyph>
<glyph name="2" format="1">
  <advance width="812"/>
  <unicode hex="0032"/>
  <outline>
    <contour>
      <point x="231" y="157" type="line"/>
      <point x="619" y="157" type="line" smooth="yes"/>
      <point x="651" y="157"/>
      <point x="677" y="122"/>
      <point x="677" y="79" type="curve"/>
      <point x="677" y="79" type="line"/>
      <point x="677" y="35"/>
      <point x="651" y="0"/>
      <point x="619" y="0" type="curve" smooth="yes"/>
      <point x="72" y="0" type="line" smooth="yes"/>
      <point x="32" y="0"/>
      <point x="0" y="44"/>
      <point x="0" y="98" type="curve"/>
      <point x="0" y="98" type="line"/>
      <point x="0" y="129"/>
      <point x="11" y="157"/>
      <point x="27" y="175" type="curve" smooth="yes"/>
      <point x="482" y="670" type="line" smooth="yes"/>
      <point x="498" y="687"/>
      <point x="507" y="707"/>
      <point x="507" y="729" type="curve"/>
      <point x="507" y="729" type="line"/>
      <point x="507" y="792"/>
      <point x="431" y="843"/>
      <point x="338" y="843" type="curve"/>
      <point x="338" y="843" type="line"/>
      <point x="266" y="843"/>
      <point x="204" y="826"/>
      <point x="162" y="796" type="curve" smooth="yes"/>
      <point x="159" y="794" type="line"/>
      <point x="141" y="770"/>
      <point x="98" y="772"/>
      <point x="61" y="799" type="curve"/>
      <point x="61" y="799" type="line"/>
      <point x="25" y="825"/>
      <point x="10" y="866"/>
      <point x="27" y="890" type="curve"/>
      <point x="24" y="888" type="line"/>
      <point x="100" y="961"/>
      <point x="210" y="1000"/>
      <point x="338" y="1000" type="curve"/>
      <point x="338" y="1000" type="line"/>
      <point x="525" y="1000"/>
      <point x="677" y="879"/>
      <point x="677" y="729" type="curve"/>
      <point x="677" y="729" type="line"/>
      <point x="677" y="677"/>
      <point x="658" y="628"/>
      <point x="626" y="587" type="curve"/>
    </contour>
  </outline>
</glyph>
<glyph name="two" format="1">
  <advance width="813"/>
  <unicode hex="0032"/>
  <outline>
    <contour>
      <point x="244" y="157" type="line"/>
      <point x="629" y="590" type="line"/>
      <point x="660" y="631"/>
      <point x="678" y="678"/>
      <point x="678" y="729" type="curve" smooth="yes"/>
      <point x="678" y="879"/>
      <point x="526" y="1000"/>
      <point x="339" y="1000" type="curve" smooth="yes"/>
      <point x="198" y="1000"/>
      <point x="76" y="951"/>
      <point x="7" y="870" type="curve"/>
      <point x="-10" y="847"/>
      <point x="5" y="808"/>
      <point x="41" y="781" type="curve" smooth="yes"/>
      <point x="77" y="753"/>
      <point x="119" y="749"/>
      <point x="136" y="771" type="curve" smooth="yes"/>
      <point x="170" y="815"/>
      <point x="247" y="843"/>
      <point x="339" y="843" type="curve" smooth="yes"/>
      <point x="432" y="843"/>
      <point x="508" y="792"/>
      <point x="508" y="729" type="curve" smooth="yes"/>
      <point x="508" y="708"/>
      <point x="499" y="688"/>
      <point x="484" y="671" type="curve" smooth="yes"/>
      <point x="24" y="155" type="line" smooth="yes"/>
      <point x="10" y="140"/>
      <point x="1" y="115"/>
      <point x="1" y="86" type="curve" smooth="yes"/>
      <point x="1" y="39"/>
      <point x="27" y="0"/>
      <point x="59" y="0" type="curve" smooth="yes"/>
      <point x="624" y="0" type="line" smooth="yes"/>
      <point x="654" y="0"/>
      <point x="678" y="35"/>
      <point x="678" y="79" type="curve" smooth="yes"/>
      <point x="678" y="122"/>
      <point x="654" y="157"/>
      <point x="624" y="157" type="curve" smooth="yes"/>
    </contour>
  </outline>
</glyph>
<glyph name="Digit_Three" format="1">
  <advance width="626"/>
  <unicode hex="0033"/>
  <outline>
    <contour>
      <point x="417" y="547" type="curve"/>
      <point x="507" y="573"/>
      <point x="572" y="648"/>
      <point x="572" y="736" type="curve"/>
      <point x="572" y="736" type="line"/>
      <point x="572" y="884"/>
      <point x="434" y="1005"/>
      <point x="265" y="1005" type="curve"/>
      <point x="265" y="1005" type="line"/>
      <point x="180" y="1005"/>
      <point x="108" y="978"/>
      <point x="48" y="926" type="curve"/>
      <point x="49" y="925" type="line"/>
      <point x="28" y="903"/>
      <point x="38" y="861"/>
      <point x="71" y="831" type="curve"/>
      <point x="71" y="831" type="line"/>
      <point x="104" y="800"/>
      <point x="147" y="794"/>
      <point x="167" y="816" type="curve"/>
      <point x="168" y="815" type="line"/>
      <point x="195" y="837"/>
      <point x="227" y="847"/>
      <point x="265" y="847" type="curve"/>
      <point x="265" y="847" type="line"/>
      <point x="335" y="847"/>
      <point x="391" y="797"/>
      <point x="391" y="736" type="curve"/>
      <point x="391" y="736" type="line"/>
      <point x="391" y="674"/>
      <point x="335" y="624"/>
      <point x="265" y="624" type="curve"/>
      <point x="265" y="624" type="line"/>
      <point x="238" y="624"/>
      <point x="216" y="589"/>
      <point x="216" y="545" type="curve"/>
      <point x="216" y="545" type="line"/>
      <point x="216" y="502"/>
      <point x="238" y="467"/>
      <point x="265" y="467" type="curve"/>
      <point x="265" y="467" type="line"/>
      <point x="362" y="467"/>
      <point x="442" y="396"/>
      <point x="442" y="310" type="curve"/>
      <point x="442" y="310" type="line"/>
      <point x="442" y="223"/>
      <point x="362" y="153"/>
      <point x="265" y="153" type="curve"/>
      <point x="265" y="153" type="line"/>
      <point x="212" y="153"/>
      <point x="167" y="168"/>
      <point x="130" y="199" type="curve"/>
      <point x="129" y="198" type="line"/>
      <point x="109" y="220"/>
      <point x="66" y="213"/>
      <point x="33" y="183" type="curve"/>
      <point x="33" y="183" type="line"/>
      <point x="0" y="153"/>
      <point x="-10" y="110"/>
      <point x="11" y="88" type="curve"/>
      <point x="10" y="87" type="line"/>
      <point x="80" y="26"/>
      <point x="165" y="-5"/>
      <point x="265" y="-5" type="curve"/>
      <point x="265" y="-5" type="line"/>
      <point x="464" y="-5"/>
      <point x="626" y="136"/>
      <point x="626" y="310" type="curve"/>
      <point x="626" y="310" type="line"/>
      <point x="626" y="423"/>
      <point x="537" y="519"/>
    </contour>
  </outline>
</glyph>
<glyph name="three" format="1">
  <advance width="760"/>
  <unicode hex="0033"/>
  <outline>
    <contour>
      <point x="415" y="547" type="curve"/>
      <point x="506" y="573"/>
      <point x="570" y="648"/>
      <point x="570" y="736" type="curve" smooth="yes"/>
      <point x="570" y="884"/>
      <point x="433" y="1005"/>
      <point x="264" y="1005" type="curve" smooth="yes"/>
      <point x="179" y="1005"/>
      <point x="107" y="978"/>
      <point x="47" y="926" type="curve"/>
      <point x="29" y="905"/>
      <point x="40" y="864"/>
      <point x="73" y="833" type="curve" smooth="yes"/>
      <point x="105" y="803"/>
      <point x="147" y="795"/>
      <point x="166" y="815" type="curve"/>
      <point x="194" y="837"/>
      <point x="226" y="847"/>
      <point x="264" y="847" type="curve" smooth="yes"/>
      <point x="334" y="847"/>
      <point x="390" y="797"/>
      <point x="390" y="736" type="curve" smooth="yes"/>
      <point x="390" y="678"/>
      <point x="340" y="630"/>
      <point x="276" y="625" type="curve" smooth="yes"/>
      <point x="191" y="617" type="line" smooth="yes"/>
      <point x="170" y="615"/>
      <point x="152" y="584"/>
      <point x="152" y="545" type="curve" smooth="yes"/>
      <point x="152" y="507"/>
      <point x="170" y="476"/>
      <point x="192" y="474" type="curve" smooth="yes"/>
      <point x="281" y="466" type="line" smooth="yes"/>
      <point x="370" y="458"/>
      <point x="440" y="391"/>
      <point x="440" y="310" type="curve" smooth="yes"/>
      <point x="440" y="223"/>
      <point x="361" y="153"/>
      <point x="264" y="153" type="curve" smooth="yes"/>
      <point x="211" y="153"/>
      <point x="166" y="168"/>
      <point x="128" y="198" type="curve"/>
      <point x="109" y="218"/>
      <point x="67" y="210"/>
      <point x="34" y="180" type="curve" smooth="yes"/>
      <point x="2" y="150"/>
      <point x="-10" y="109"/>
      <point x="9" y="88" type="curve"/>
      <point x="79" y="26"/>
      <point x="164" y="-5"/>
      <point x="264" y="-5" type="curve" smooth="yes"/>
      <point x="463" y="-5"/>
      <point x="625" y="136"/>
      <point x="625" y="310" type="curve" smooth="yes"/>
      <point x="625" y="423"/>
      <point x="536" y="519"/>
    </contour>
  </outline>
</glyph>
<glyph name="Digit_Four" format="1">
  <advance width="857"/>
  <unicode hex="0034"/>
  <outline>
    <contour>
      <point x="420" y="701" type="line"/>
      <point x="420" y="399" type="line"/>
      <point x="217" y="399" type="line"/>
    </contour>
    <contour>
      <point x="590" y="241" type="line"/>
      <point x="665" y="241" type="line" smooth="yes"/>
      <point x="696" y="241"/>
      <point x="722" y="277"/>
      <point x="722" y="320" type="curve"/>
      <point x="722" y="320" type="line"/>
      <point x="722" y="363"/>
      <point x="696" y="399"/>
      <point x="665" y="399" type="curve" smooth="yes"/>
      <point x="590" y="399" type="line"/>
      <point x="590" y="944" type="line" smooth="yes"/>
      <point x="590" y="977"/>
      <point x="547" y="1005"/>
      <point x="493" y="1005" type="curve"/>
      <point x="493" y="1005" type="line"/>
      <point x="452" y="1005"/>
      <point x="417" y="989"/>
      <point x="402" y="967" type="curve" smooth="yes"/>
      <point x="17" y="393" type="line" smooth="yes"/>
      <point x="7" y="377"/>
      <point x="0" y="355"/>
      <point x="0" y="332" type="curve"/>
      <point x="0" y="332" type="line"/>
      <point x="0" y="282"/>
      <point x="30" y="241"/>
      <point x="66" y="241" type="curve" smooth="yes"/>
      <point x="420" y="241" type="line"/>
      <point x="420" y="48" type="line" smooth="yes"/>
      <point x="420" y="19"/>
      <point x="458" y="-5"/>
      <point x="505" y="-5" type="curve" smooth="yes"/>
      <point x="552" y="-5"/>
      <point x="590" y="19"/>
      <point x="590" y="48" type="curve" smooth="yes"/>
    </contour>
  </outline>
</glyph>
<glyph name="four" format="1">
  <advance width="857"/>
  <unicode hex="0034"/>
  <outline>
    <contour>
      <point x="420" y="704" type="line"/>
      <point x="420" y="399" type="line"/>
      <point x="216" y="399" type="line"/>
    </contour>
    <contour>
      <point x="590" y="241" type="line"/>
      <point x="669" y="241" type="line" smooth="yes"/>
      <point x="698" y="241"/>
      <point x="722" y="277"/>
      <point x="722" y="320" type="curve" smooth="yes"/>
      <point x="722" y="363"/>
      <point x="698" y="399"/>
      <point x="669" y="399" type="curve" smooth="yes"/>
      <point x="590" y="399" type="line"/>
      <point x="590" y="948" type="line" smooth="yes"/>
      <point x="590" y="979"/>
      <point x="547" y="1005"/>
      <point x="493" y="1005" type="curve" smooth="yes"/>
      <point x="451" y="1005"/>
      <point x="416" y="990"/>
      <point x="401" y="969" type="curve" smooth="yes"/>
      <point x="18" y="395" type="line" smooth="yes"/>
      <point x="7" y="379"/>
      <point x="0" y="357"/>
      <point x="0" y="332" type="curve" smooth="yes"/>
      <point x="0" y="282"/>
      <point x="27" y="241"/>
      <point x="61" y="241" type="curve" smooth="yes"/>
      <point x="420" y="241" type="line"/>
      <point x="420" y="45" type="line" smooth="yes"/>
      <point x="420" y="17"/>
      <point x="458" y="-5"/>
      <point x="505" y="-5" type="curve" smooth="yes"/>
      <point x="552" y="-5"/>
      <point x="590" y="17"/>
      <point x="590" y="45" type="curve" smooth="yes"/>
    </contour>
  </outline>
</glyph>
<glyph name="Digit_Five" format="1">
  <advance width="626"/>
  <unicode hex="0035"/>
  <outline>
    <contour>
      <point x="228" y="843" type="line"/>
      <point x="568" y="843" type="line" smooth="yes"/>
      <point x="600" y="843"/>
      <point x="626" y="878"/>
      <point x="626" y="921" type="curve"/>
      <point x="626" y="921" type="line"/>
      <point x="626" y="965"/>
      <point x="600" y="1000"/>
      <point x="568" y="1000" type="curve" smooth="yes"/>
      <point x="127" y="1000" type="line" smooth="yes"/>
      <point x="99" y="1000"/>
      <point x="76" y="972"/>
      <point x="71" y="936" type="curve" smooth="yes"/>
      <point x="15" y="520" type="line" smooth="yes"/>
      <point x="12" y="498"/>
      <point x="22" y="471"/>
      <point x="43" y="449" type="curve"/>
      <point x="43" y="449" type="line"/>
      <point x="74" y="417"/>
      <point x="116" y="408"/>
      <point x="138" y="428" type="curve"/>
      <point x="139" y="428" type="line"/>
      <point x="175" y="454"/>
      <point x="216" y="467"/>
      <point x="265" y="467" type="curve"/>
      <point x="265" y="467" type="line"/>
      <point x="362" y="467"/>
      <point x="442" y="396"/>
      <point x="442" y="310" type="curve"/>
      <point x="442" y="310" type="line"/>
      <point x="442" y="223"/>
      <point x="362" y="153"/>
      <point x="265" y="153" type="curve"/>
      <point x="265" y="153" type="line"/>
      <point x="212" y="153"/>
      <point x="167" y="168"/>
      <point x="130" y="199" type="curve"/>
      <point x="129" y="198" type="line"/>
      <point x="109" y="220"/>
      <point x="66" y="213"/>
      <point x="33" y="183" type="curve"/>
      <point x="33" y="183" type="line"/>
      <point x="0" y="153"/>
      <point x="-10" y="110"/>
      <point x="11" y="88" type="curve"/>
      <point x="10" y="87" type="line"/>
      <point x="80" y="26"/>
      <point x="165" y="-5"/>
      <point x="265" y="-5" type="curve"/>
      <point x="265" y="-5" type="line"/>
      <point x="464" y="-5"/>
      <point x="626" y="136"/>
      <point x="626" y="310" type="curve"/>
      <point x="626" y="310" type="line"/>
      <point x="626" y="483"/>
      <point x="464" y="624"/>
      <point x="265" y="624" type="curve"/>
      <point x="265" y="624" type="line"/>
      <point x="242" y="624"/>
      <point x="220" y="622"/>
      <point x="198" y="619" type="curve"/>
    </contour>
  </outline>
</glyph>
<glyph name="five" format="1">
  <advance width="760"/>
  <unicode hex="0035"/>
  <outline>
    <contour>
      <point x="227" y="843" type="line"/>
      <point x="571" y="843" type="line" smooth="yes"/>
      <point x="601" y="843"/>
      <point x="625" y="878"/>
      <point x="625" y="921" type="curve" smooth="yes"/>
      <point x="625" y="965"/>
      <point x="601" y="1000"/>
      <point x="571" y="1000" type="curve" smooth="yes"/>
      <point x="122" y="1000" type="line" smooth="yes"/>
      <point x="96" y="1000"/>
      <point x="74" y="973"/>
      <point x="70" y="936" type="curve" smooth="yes"/>
      <point x="15" y="523" type="line" smooth="yes"/>
      <point x="12" y="502"/>
      <point x="23" y="474"/>
      <point x="45" y="452" type="curve" smooth="yes"/>
      <point x="75" y="420"/>
      <point x="116" y="409"/>
      <point x="137" y="428" type="curve"/>
      <point x="174" y="454"/>
      <point x="215" y="467"/>
      <point x="264" y="467" type="curve" smooth="yes"/>
      <point x="361" y="467"/>
      <point x="440" y="396"/>
      <point x="440" y="310" type="curve" smooth="yes"/>
      <point x="440" y="223"/>
      <point x="361" y="153"/>
      <point x="264" y="153" type="curve" smooth="yes"/>
      <point x="211" y="153"/>
      <point x="166" y="168"/>
      <point x="128" y="198" type="curve"/>
      <point x="109" y="218"/>
      <point x="67" y="210"/>
      <point x="34" y="180" type="curve" smooth="yes"/>
      <point x="2" y="150"/>
      <point x="-10" y="109"/>
      <point x="9" y="88" type="curve"/>
      <point x="79" y="26"/>
      <point x="164" y="-5"/>
      <point x="264" y="-5" type="curve" smooth="yes"/>
      <point x="463" y="-5"/>
      <point x="625" y="136"/>
      <point x="625" y="310" type="curve" smooth="yes"/>
      <point x="625" y="483"/>
      <point x="463" y="624"/>
      <point x="264" y="624" type="curve" smooth="yes"/>
      <point x="241" y="624"/>
      <point x="219" y="622"/>
      <point x="198" y="619" type="curve"/>
    </contour>
  </outline>
</glyph>
<glyph name="Digit_Six" format="1">
  <advance width="785"/>
  <unicode hex="0036"/>
  <outline>
    <contour>
      <point x="182" y="320" type="curve"/>
      <point x="182" y="413"/>
      <point x="246" y="488"/>
      <point x="325" y="488" type="curve"/>
      <point x="325" y="488" type="line"/>
      <point x="404" y="488"/>
      <point x="468" y="413"/>
      <point x="468" y="320" type="curve"/>
      <point x="468" y="320" type="line"/>
      <point x="468" y="228"/>
      <point x="404" y="153"/>
      <point x="325" y="153" type="curve"/>
      <point x="325" y="153" type="line"/>
      <point x="246" y="153"/>
      <point x="182" y="228"/>
    </contour>
    <contour>
      <point x="313" y="990" type="curve" smooth="yes"/>
      <point x="157" y="790"/>
      <point x="0" y="593"/>
      <point x="0" y="320" type="curve" smooth="yes"/>
      <point x="0" y="141"/>
      <point x="145" y="-5"/>
      <point x="325" y="-5" type="curve"/>
      <point x="325" y="-5" type="line"/>
      <point x="504" y="-5"/>
      <point x="650" y="141"/>
      <point x="650" y="320" type="curve"/>
      <point x="650" y="320" type="line"/>
      <point x="650" y="486"/>
      <point x="515" y="621"/>
      <point x="349" y="621" type="curve"/>
      <point x="349" y="621" type="line"/>
      <point x="311" y="621"/>
      <point x="274" y="614"/>
      <point x="241" y="600" type="curve"/>
      <point x="241" y="600" type="line"/>
      <point x="293" y="704"/>
      <point x="368" y="797"/>
      <point x="441" y="891" type="curve" smooth="yes"/>
      <point x="459" y="914"/>
      <point x="445" y="956"/>
      <point x="410" y="983" type="curve"/>
      <point x="410" y="983" type="line"/>
      <point x="375" y="1011"/>
      <point x="331" y="1014"/>
    </contour>
  </outline>
</glyph>
<glyph name="six" format="1">
  <advance width="785"/>
  <unicode hex="0036"/>
  <outline>
    <contour>
      <point x="175" y="320" type="curve" smooth="yes"/>
      <point x="175" y="413"/>
      <point x="242" y="488"/>
      <point x="325" y="488" type="curve" smooth="yes"/>
      <point x="408" y="488"/>
      <point x="475" y="413"/>
      <point x="475" y="320" type="curve" smooth="yes"/>
      <point x="475" y="228"/>
      <point x="408" y="153"/>
      <point x="325" y="153" type="curve" smooth="yes"/>
      <point x="242" y="153"/>
      <point x="175" y="228"/>
    </contour>
    <contour>
      <point x="313" y="1010" type="curve" smooth="yes"/>
      <point x="153" y="804"/>
      <point x="0" y="599"/>
      <point x="0" y="320" type="curve" smooth="yes"/>
      <point x="0" y="141"/>
      <point x="145" y="-5"/>
      <point x="325" y="-5" type="curve" smooth="yes"/>
      <point x="504" y="-5"/>
      <point x="650" y="141"/>
      <point x="650" y="320" type="curve" smooth="yes"/>
      <point x="650" y="486"/>
      <point x="515" y="621"/>
      <point x="349" y="621" type="curve" smooth="yes"/>
      <point x="308" y="621"/>
      <point x="269" y="612"/>
      <point x="233" y="598" type="curve"/>
      <point x="285" y="710"/>
      <point x="363" y="810"/>
      <point x="441" y="911" type="curve" smooth="yes"/>
      <point x="448" y="921"/>
      <point x="425" y="950"/>
      <point x="390" y="978" type="curve" smooth="yes"/>
      <point x="355" y="1005"/>
      <point x="320" y="1020"/>
    </contour>
  </outline>
</glyph>
<glyph name="7" format="1">
  <advance width="880"/>
  <unicode hex="0037"/>
  <outline>
    <contour>
      <point x="526" y="847" type="line"/>
      <point x="434" y="699" type="line" smooth="yes"/>
      <point x="309" y="494"/>
      <point x="228" y="293"/>
      <point x="228" y="48" type="curve" smooth="yes"/>
      <point x="228" y="19"/>
      <point x="266" y="-5"/>
      <point x="313" y="-5" type="curve" smooth="yes"/>
      <point x="360" y="-5"/>
      <point x="398" y="19"/>
      <point x="398" y="48" type="curve" smooth="yes"/>
      <point x="398" y="261"/>
      <point x="465" y="435"/>
      <point x="574" y="613" type="curve" smooth="yes"/>
      <point x="730" y="869" type="line" smooth="yes"/>
      <point x="746" y="894"/>
      <point x="749" y="927"/>
      <point x="739" y="957" type="curve"/>
      <point x="739" y="957" type="line"/>
      <point x="729" y="987"/>
      <point x="708" y="1005"/>
      <point x="684" y="1005" type="curve" smooth="yes"/>
      <point x="57" y="1005" type="line" smooth="yes"/>
      <point x="26" y="1005"/>
      <point x="0" y="970"/>
      <point x="0" y="926" type="curve"/>
      <point x="0" y="926" type="line"/>
      <point x="0" y="883"/>
      <point x="26" y="847"/>
      <point x="57" y="847" type="curve" smooth="yes"/>
    </contour>
  </outline>
</glyph>
<glyph name="seven" format="1">
  <advance width="835"/>
  <unicode hex="0037"/>
  <outline>
    <contour>
      <point x="495" y="847" type="line"/>
      <point x="385" y="627" type="line" smooth="yes"/>
      <point x="291" y="437"/>
      <point x="219" y="261"/>
      <point x="219" y="45" type="curve" smooth="yes"/>
      <point x="219" y="17"/>
      <point x="257" y="-5"/>
      <point x="304" y="-5" type="curve" smooth="yes"/>
      <point x="351" y="-5"/>
      <point x="389" y="17"/>
      <point x="389" y="45" type="curve" smooth="yes"/>
      <point x="389" y="234"/>
      <point x="450" y="387"/>
      <point x="533" y="554" type="curve" smooth="yes"/>
      <point x="688" y="867" type="line" smooth="yes"/>
      <point x="702" y="894"/>
      <point x="703" y="928"/>
      <point x="693" y="957" type="curve" smooth="yes"/>
      <point x="683" y="987"/>
      <point x="664" y="1005"/>
      <point x="641" y="1005" type="curve" smooth="yes"/>
      <point x="53" y="1005" type="line" smooth="yes"/>
      <point x="24" y="1005"/>
      <point x="0" y="970"/>
      <point x="0" y="926" type="curve" smooth="yes"/>
      <point x="0" y="883"/>
      <point x="24" y="847"/>
      <point x="53" y="847" type="curve" smooth="yes"/>
    </contour>
  </outline>
</glyph>
<glyph name="eight" format="1">
  <advance width="808"/>
  <unicode hex="0038"/>
  <outline>
    <contour>
      <point x="336" y="153" type="curve" smooth="yes"/>
      <point x="251" y="153"/>
      <point x="182" y="223"/>
      <point x="182" y="310" type="curve" smooth="yes"/>
      <point x="182" y="396"/>
      <point x="251" y="467"/>
      <point x="336" y="467" type="curve" smooth="yes"/>
      <point x="421" y="467"/>
      <point x="490" y="396"/>
      <point x="490" y="310" type="curve" smooth="yes"/>
      <point x="490" y="223"/>
      <point x="421" y="153"/>
    </contour>
    <contour>
      <point x="336" y="624" type="curve" smooth="yes"/>
      <point x="277" y="624"/>
      <point x="229" y="674"/>
      <point x="229" y="736" type="curve" smooth="yes"/>
      <point x="229" y="797"/>
      <point x="277" y="847"/>
      <point x="336" y="847" type="curve" smooth="yes"/>
      <point x="395" y="847"/>
      <point x="443" y="797"/>
      <point x="443" y="736" type="curve" smooth="yes"/>
      <point x="443" y="674"/>
      <point x="395" y="624"/>
    </contour>
    <contour>
      <point x="336" y="1005" type="curve" smooth="yes"/>
      <point x="178" y="1005"/>
      <point x="50" y="884"/>
      <point x="50" y="736" type="curve" smooth="yes"/>
      <point x="50" y="655"/>
      <point x="98" y="585"/>
      <point x="168" y="549" type="curve"/>
      <point x="69" y="509"/>
      <point x="0" y="417"/>
      <point x="0" y="310" type="curve" smooth="yes"/>
      <point x="0" y="136"/>
      <point x="151" y="-5"/>
      <point x="336" y="-5" type="curve" smooth="yes"/>
      <point x="522" y="-5"/>
      <point x="672" y="136"/>
      <point x="672" y="310" type="curve" smooth="yes"/>
      <point x="672" y="417"/>
      <point x="603" y="509"/>
      <point x="504" y="549" type="curve"/>
      <point x="574" y="585"/>
      <point x="622" y="655"/>
      <point x="622" y="736" type="curve" smooth="yes"/>
      <point x="622" y="884"/>
      <point x="494" y="1005"/>
    </contour>
  </outline>
</glyph>
<glyph name="9" format="1">
  <advance width="785"/>
  <unicode hex="0039"/>
  <outline>
    <contour>
      <point x="468" y="680" type="curve"/>
      <point x="468" y="680" type="line"/>
      <point x="468" y="587"/>
      <point x="404" y="512"/>
      <point x="325" y="512" type="curve"/>
      <point x="325" y="512" type="line"/>
      <point x="246" y="512"/>
      <point x="182" y="587"/>
      <point x="182" y="680" type="curve"/>
      <point x="182" y="680" type="line"/>
      <point x="182" y="772"/>
      <point x="246" y="847"/>
      <point x="325" y="847" type="curve"/>
      <point x="325" y="847" type="line"/>
      <point x="404" y="847"/>
      <point x="468" y="772"/>
    </contour>
    <contour>
      <point x="337" y="10" type="curve" smooth="yes"/>
      <point x="492" y="210"/>
      <point x="650" y="407"/>
      <point x="650" y="680" type="curve" smooth="yes"/>
      <point x="650" y="859"/>
      <point x="504" y="1005"/>
      <point x="325" y="1005" type="curve"/>
      <point x="325" y="1005" type="line"/>
      <point x="145" y="1005"/>
      <point x="0" y="859"/>
      <point x="0" y="680" type="curve"/>
      <point x="0" y="680" type="line"/>
      <point x="0" y="515"/>
      <point x="134" y="381"/>
      <point x="299" y="381" type="curve"/>
      <point x="299" y="381" type="line"/>
      <point x="338" y="381"/>
      <point x="376" y="389"/>
      <point x="411" y="403" type="curve"/>
      <point x="411" y="403" type="line"/>
      <point x="358" y="298"/>
      <point x="283" y="204"/>
      <point x="209" y="109" type="curve" smooth="yes"/>
      <point x="191" y="86"/>
      <point x="204" y="44"/>
      <point x="240" y="17" type="curve"/>
      <point x="240" y="17" type="line"/>
      <point x="275" y="-11"/>
      <point x="319" y="-14"/>
    </contour>
  </outline>
</glyph>
<glyph name="Digit_Nine" format="1">
  <advance width="650"/>
  <unicode hex="0039"/>
  <outline>
    <contour>
      <point x="468" y="680" type="curve"/>
      <point x="468" y="680" type="line"/>
      <point x="468" y="587"/>
      <point x="404" y="512"/>
      <point x="325" y="512" type="curve"/>
      <point x="325" y="512" type="line"/>
      <point x="246" y="512"/>
      <point x="182" y="587"/>
      <point x="182" y="680" type="curve"/>
      <point x="182" y="680" type="line"/>
      <point x="182" y="772"/>
      <point x="246" y="847"/>
      <point x="325" y="847" type="curve"/>
      <point x="325" y="847" type="line"/>
      <point x="404" y="847"/>
      <point x="468" y="772"/>
    </contour>
    <contour>
      <point x="337" y="10" type="curve" smooth="yes"/>
      <point x="492" y="210"/>
      <point x="650" y="407"/>
      <point x="650" y="680" type="curve" smooth="yes"/>
      <point x="650" y="859"/>
      <point x="504" y="1005"/>
      <point x="325" y="1005" type="curve"/>
      <point x="325" y="1005" type="line"/>
      <point x="145" y="1005"/>
      <point x="0" y="859"/>
      <point x="0" y="680" type="curve"/>
      <point x="0" y="680" type="line"/>
      <point x="0" y="514"/>
      <point x="135" y="379"/>
      <point x="301" y="379" type="curve"/>
      <point x="301" y="379" type="line"/>
      <point x="339" y="379"/>
      <point x="376" y="386"/>
      <point x="409" y="400" type="curve"/>
      <point x="409" y="400" type="line"/>
      <point x="357" y="296"/>
      <point x="282" y="203"/>
      <point x="209" y="109" type="curve" smooth="yes"/>
      <point x="191" y="86"/>
      <point x="204" y="44"/>
      <point x="240" y="17" type="curve"/>
      <point x="240" y="17" type="line"/>
      <point x="275" y="-11"/>
      <point x="319" y="-14"/>
    </contour>
  </outline>
</glyph>
<glyph name="nine" format="1">
  <advance width="785"/>
  <unicode hex="0039"/>
  <outline>
    <contour>
      <point x="468" y="680" type="curve" smooth="yes"/>
      <point x="468" y="587"/>
      <point x="404" y="512"/>
      <point x="325" y="512" type="curve" smooth="yes"/>
      <point x="246" y="512"/>
      <point x="182" y="587"/>
      <point x="182" y="680" type="curve" smooth="yes"/>
      <point x="182" y="772"/>
      <point x="246" y="847"/>
      <point x="325" y="847" type="curve" smooth="yes"/>
      <point x="404" y="847"/>
      <point x="468" y="772"/>
    </contour>
    <contour>
      <point x="337" y="7" type="curve" smooth="yes"/>
      <point x="493" y="208"/>
      <point x="650" y="406"/>
      <point x="650" y="680" type="curve" smooth="yes"/>
      <point x="650" y="859"/>
      <point x="504" y="1005"/>
      <point x="325" y="1005" type="curve" smooth="yes"/>
      <point x="145" y="1005"/>
      <point x="0" y="859"/>
      <point x="0" y="680" type="curve" smooth="yes"/>
      <point x="0" y="514"/>
      <point x="135" y="379"/>
      <point x="301" y="379" type="curve" smooth="yes"/>
      <point x="339" y="379"/>
      <point x="376" y="387"/>
      <point x="410" y="400" type="curve"/>
      <point x="358" y="295"/>
      <point x="283" y="202"/>
      <point x="209" y="107" type="curve" smooth="yes"/>
      <point x="192" y="85"/>
      <point x="207" y="45"/>
      <point x="242" y="17" type="curve" smooth="yes"/>
      <point x="278" y="-10"/>
      <point x="320" y="-15"/>
    </contour>
  </outline>
</glyph>
<glyph name="colon" format="1">
  <advance width="322"/>
  <unicode hex="003A"/>
  <outline>
    <contour>
      <point x="187" y="124" type="line" smooth="yes"/>
      <point x="187" y="154"/>
      <point x="145" y="178"/>
      <point x="94" y="178" type="curve" smooth="yes"/>
      <point x="42" y="178"/>
      <point x="0" y="154"/>
      <point x="0" y="124" type="curve" smooth="yes"/>
      <point x="0" y="50" type="line" smooth="yes"/>
      <point x="0" y="20"/>
      <point x="42" y="-5"/>
      <point x="94" y="-5" type="curve" smooth="yes"/>
      <point x="145" y="-5"/>
      <point x="187" y="20"/>
      <point x="187" y="50" type="curve" smooth="yes"/>
    </contour>
    <contour>
      <point x="187" y="524" type="line" smooth="yes"/>
      <point x="187" y="554"/>
      <point x="145" y="578"/>
      <point x="94" y="578" type="curve" smooth="yes"/>
      <point x="42" y="578"/>
      <point x="0" y="554"/>
      <point x="0" y="524" type="curve" smooth="yes"/>
      <point x="0" y="450" type="line" smooth="yes"/>
      <point x="0" y="420"/>
      <point x="42" y="395"/>
      <point x="94" y="395" type="curve" smooth="yes"/>
      <point x="145" y="395"/>
      <point x="187" y="420"/>
      <point x="187" y="450" type="curve" smooth="yes"/>
    </contour>
  </outline>
</glyph>
<glyph name="semicolon" format="1">
  <advance width="322"/>
  <unicode hex="003B"/>
  <outline>
    <contour>
      <point x="187" y="149" type="curve" smooth="yes"/>
      <point x="187" y="162"/>
      <point x="145" y="173"/>
      <point x="94" y="173" type="curve" smooth="yes"/>
      <point x="42" y="173"/>
      <point x="0" y="162"/>
      <point x="0" y="149" type="curve" smooth="yes"/>
      <point x="0" y="19" type="line" smooth="yes"/>
      <point x="0" y="10"/>
      <point x="18" y="3"/>
      <point x="44" y="-1" type="curve"/>
      <point x="48" y="-2"/>
      <point x="51" y="-10"/>
      <point x="51" y="-22" type="curve"/>
      <point x="52" y="-33"/>
      <point x="50" y="-45"/>
      <point x="47" y="-50" type="curve"/>
      <point x="21" y="-64" type="line"/>
      <point x="17" y="-67"/>
      <point x="20" y="-80"/>
      <point x="27" y="-94" type="curve" smooth="yes"/>
      <point x="34" y="-108"/>
      <point x="43" y="-118"/>
      <point x="47" y="-116" type="curve" smooth="yes"/>
      <point x="150" y="-64"/>
      <point x="187" y="43"/>
    </contour>
    <contour>
      <point x="187" y="549" type="line" smooth="yes"/>
      <point x="187" y="562"/>
      <point x="145" y="573"/>
      <point x="94" y="573" type="curve" smooth="yes"/>
      <point x="42" y="573"/>
      <point x="0" y="562"/>
      <point x="0" y="549" type="curve" smooth="yes"/>
      <point x="0" y="419" type="line" smooth="yes"/>
      <point x="0" y="406"/>
      <point x="42" y="395"/>
      <point x="94" y="395" type="curve" smooth="yes"/>
      <point x="145" y="395"/>
      <point x="187" y="406"/>
      <point x="187" y="419" type="curve" smooth="yes"/>
    </contour>
  </outline>
</glyph>
<glyph name="less" format="1">
  <advance width="736"/>
  <unicode hex="003C"/>
  <outline>
    <contour>
      <point x="510" y="208" type="line" smooth="yes"/>
      <point x="516" y="205"/>
      <point x="524" y="204"/>
      <point x="533" y="206" type="curve" smooth="yes"/>
      <point x="564" y="212"/>
      <point x="594" y="250"/>
      <point x="600" y="291" type="curve" smooth="yes"/>
      <point x="604" y="320"/>
      <point x="595" y="344"/>
      <point x="577" y="352" type="curve" smooth="yes"/>
      <point x="234" y="510" type="line"/>
      <point x="577" y="668" type="line" smooth="yes"/>
      <point x="595" y="676"/>
      <point x="604" y="700"/>
      <point x="600" y="729" type="curve" smooth="yes"/>
      <point x="594" y="770"/>
      <point x="564" y="808"/>
      <point x="533" y="814" type="curve" smooth="yes"/>
      <point x="524" y="816"/>
      <point x="516" y="815"/>
      <point x="510" y="812" type="curve" smooth="yes"/>
      <point x="43" y="596" type="line" smooth="yes"/>
      <point x="18" y="585"/>
      <point x="0" y="551"/>
      <point x="0" y="510" type="curve" smooth="yes"/>
      <point x="0" y="469"/>
      <point x="18" y="435"/>
      <point x="43" y="424" type="curve" smooth="yes"/>
    </contour>
  </outline>
</glyph>
<glyph name="equal" format="1">
  <advance width="785"/>
  <unicode hex="003D"/>
  <outline>
    <contour>
      <point x="627" y="596" type="line" smooth="yes"/>
      <point x="640" y="596"/>
      <point x="650" y="632"/>
      <point x="650" y="675" type="curve" smooth="yes"/>
      <point x="650" y="718"/>
      <point x="640" y="754"/>
      <point x="627" y="754" type="curve" smooth="yes"/>
      <point x="23" y="754" type="line" smooth="yes"/>
      <point x="10" y="754"/>
      <point x="0" y="718"/>
      <point x="0" y="675" type="curve" smooth="yes"/>
      <point x="0" y="632"/>
      <point x="10" y="596"/>
      <point x="23" y="596" type="curve" smooth="yes"/>
    </contour>
    <contour>
      <point x="627" y="266" type="line" smooth="yes"/>
      <point x="640" y="266"/>
      <point x="650" y="302"/>
      <point x="650" y="345" type="curve" smooth="yes"/>
      <point x="650" y="388"/>
      <point x="640" y="424"/>
      <point x="627" y="424" type="curve" smooth="yes"/>
      <point x="23" y="424" type="line" smooth="yes"/>
      <point x="10" y="424"/>
      <point x="0" y="388"/>
      <point x="0" y="345" type="curve" smooth="yes"/>
      <point x="0" y="302"/>
      <point x="10" y="266"/>
      <point x="23" y="266" type="curve" smooth="yes"/>
    </contour>
  </outline>
</glyph>
<glyph name="greater" format="1">
  <advance width="736"/>
  <unicode hex="003E"/>
  <outline>
    <contour>
      <point x="91" y="208" type="curve" smooth="yes"/>
      <point x="558" y="424" type="line" smooth="yes"/>
      <point x="583" y="435"/>
      <point x="601" y="469"/>
      <point x="601" y="510" type="curve" smooth="yes"/>
      <point x="601" y="551"/>
      <point x="583" y="585"/>
      <point x="558" y="596" type="curve" smooth="yes"/>
      <point x="91" y="812" type="line" smooth="yes"/>
      <point x="85" y="815"/>
      <point x="77" y="816"/>
      <point x="68" y="814" type="curve" smooth="yes"/>
      <point x="37" y="808"/>
      <point x="7" y="770"/>
      <point x="1" y="729" type="curve" smooth="yes"/>
      <point x="-3" y="700"/>
      <point x="6" y="676"/>
      <point x="24" y="668" type="curve" smooth="yes"/>
      <point x="367" y="510" type="line"/>
      <point x="24" y="352" type="line" smooth="yes"/>
      <point x="6" y="344"/>
      <point x="-3" y="320"/>
      <point x="1" y="291" type="curve" smooth="yes"/>
      <point x="7" y="250"/>
      <point x="37" y="212"/>
      <point x="68" y="206" type="curve" smooth="yes"/>
      <point x="77" y="204"/>
      <point x="85" y="205"/>
    </contour>
  </outline>
</glyph>
<glyph name="question" format="1">
  <advance width="732"/>
  <unicode hex="003F"/>
  <outline>
    <contour>
      <point x="384" y="149" type="line" smooth="yes"/>
      <point x="384" y="162"/>
      <point x="342" y="173"/>
      <point x="291" y="173" type="curve" smooth="yes"/>
      <point x="239" y="173"/>
      <point x="197" y="162"/>
      <point x="197" y="149" type="curve" smooth="yes"/>
      <point x="197" y="19" type="line" smooth="yes"/>
      <point x="197" y="6"/>
      <point x="239" y="-5"/>
      <point x="291" y="-5" type="curve" smooth="yes"/>
      <point x="342" y="-5"/>
      <point x="384" y="6"/>
      <point x="384" y="19" type="curve" smooth="yes"/>
    </contour>
    <contour>
      <point x="0" y="809" type="curve"/>
      <point x="-3" y="797"/>
      <point x="30" y="778"/>
      <point x="74" y="764" type="curve" smooth="yes"/>
      <point x="118" y="751"/>
      <point x="157" y="750"/>
      <point x="161" y="761" type="curve" smooth="yes"/>
      <point x="182" y="820"/>
      <point x="245" y="856"/>
      <point x="312" y="846" type="curve" smooth="yes"/>
      <point x="379" y="836"/>
      <point x="427" y="784"/>
      <point x="427" y="722" type="curve" smooth="yes"/>
      <point x="427" y="672"/>
      <point x="406" y="626"/>
      <point x="361" y="600" type="curve" smooth="yes"/>
      <point x="266" y="545"/>
      <point x="206" y="454"/>
      <point x="206" y="341" type="curve" smooth="yes"/>
      <point x="206" y="330"/>
      <point x="244" y="320"/>
      <point x="291" y="320" type="curve" smooth="yes"/>
      <point x="338" y="320"/>
      <point x="376" y="330"/>
      <point x="376" y="341" type="curve" smooth="yes"/>
      <point x="376" y="391"/>
      <point x="396" y="437"/>
      <point x="441" y="463" type="curve" smooth="yes"/>
      <point x="536" y="518"/>
      <point x="597" y="609"/>
      <point x="597" y="722" type="curve" smooth="yes"/>
      <point x="597" y="862"/>
      <point x="489" y="979"/>
      <point x="338" y="1001" type="curve" smooth="yes"/>
      <point x="188" y="1023"/>
      <point x="47" y="943"/>
    </contour>
  </outline>
</glyph>
<glyph name="A" format="1">
  <advance width="1038"/>
  <unicode hex="0041"/>
  <outline>
    <contour>
      <point x="307" y="399" type="line"/>
      <point x="451" y="771" type="line"/>
      <point x="595" y="399" type="line"/>
    </contour>
    <contour>
      <point x="739" y="28" type="line"/>
      <point x="757" y="1"/>
      <point x="806" y="-12"/>
      <point x="850" y="-1" type="curve" smooth="yes"/>
      <point x="893" y="10"/>
      <point x="914" y="41"/>
      <point x="896" y="69" type="curve"/>
      <point x="550" y="964" type="line"/>
      <point x="533" y="989"/>
      <point x="495" y="1005"/>
      <point x="450" y="1005" type="curve" smooth="yes"/>
      <point x="406" y="1004"/>
      <point x="368" y="988"/>
      <point x="352" y="962" type="curve"/>
      <point x="6" y="68" type="line"/>
      <point x="-11" y="40"/>
      <point x="11" y="9"/>
      <point x="54" y="-1" type="curve" smooth="yes"/>
      <point x="98" y="-12"/>
      <point x="147" y="2"/>
      <point x="164" y="29" type="curve"/>
      <point x="246" y="241" type="line"/>
      <point x="656" y="241" type="line"/>
    </contour>
  </outline>
</glyph>
<glyph name="B" format="1">
  <advance width="830"/>
  <unicode hex="0042"/>
  <outline>
    <contour>
      <point x="170" y="451" type="line"/>
      <point x="366" y="451" type="line" smooth="yes"/>
      <point x="451" y="451"/>
      <point x="520" y="386"/>
      <point x="520" y="304" type="curve" smooth="yes"/>
      <point x="520" y="223"/>
      <point x="451" y="157"/>
      <point x="366" y="157" type="curve" smooth="yes"/>
      <point x="170" y="157" type="line"/>
    </contour>
    <contour>
      <point x="170" y="843" type="line"/>
      <point x="338" y="843" type="line" smooth="yes"/>
      <point x="406" y="843"/>
      <point x="461" y="790"/>
      <point x="461" y="726" type="curve" smooth="yes"/>
      <point x="461" y="661"/>
      <point x="406" y="609"/>
      <point x="338" y="609" type="curve" smooth="yes"/>
      <point x="170" y="609" type="line"/>
    </contour>
    <contour>
      <point x="366" y="0" type="line" smooth="yes"/>
      <point x="548" y="0"/>
      <point x="695" y="136"/>
      <point x="695" y="304" type="curve" smooth="yes"/>
      <point x="695" y="418"/>
      <point x="609" y="512"/>
      <point x="494" y="536" type="curve"/>
      <point x="577" y="565"/>
      <point x="635" y="639"/>
      <point x="635" y="726" type="curve" smooth="yes"/>
      <point x="635" y="877"/>
      <point x="502" y="1000"/>
      <point x="338" y="1000" type="curve" smooth="yes"/>
      <point x="98" y="1000" type="line" smooth="yes"/>
      <point x="44" y="1000"/>
      <point x="0" y="989"/>
      <point x="0" y="976" type="curve" smooth="yes"/>
      <point x="0" y="24" type="line" smooth="yes"/>
      <point x="0" y="11"/>
      <point x="44" y="0"/>
      <point x="98" y="0" type="curve" smooth="yes"/>
    </contour>
  </outline>
</glyph>
<glyph name="C" format="1">
  <advance width="893"/>
  <unicode hex="0043"/>
  <outline>
    <contour>
      <point x="455" y="0" type="line" smooth="yes"/>
      <point x="573" y="0"/>
      <point x="679" y="53"/>
      <point x="755" y="138" type="curve"/>
      <point x="762" y="148"/>
      <point x="743" y="180"/>
      <point x="710" y="210" type="curve" smooth="yes"/>
      <point x="678" y="241"/>
      <point x="645" y="259"/>
      <point x="636" y="251" type="curve"/>
      <point x="589" y="194"/>
      <point x="526" y="157"/>
      <point x="455" y="157" type="curve" smooth="yes"/>
      <point x="425" y="157" type="line" smooth="yes"/>
      <point x="280" y="157"/>
      <point x="178" y="298"/>
      <point x="178" y="472" type="curve" smooth="yes"/>
      <point x="178" y="528" type="line" smooth="yes"/>
      <point x="178" y="694"/>
      <point x="288" y="843"/>
      <point x="425" y="843" type="curve" smooth="yes"/>
      <point x="455" y="843" type="line" smooth="yes"/>
      <point x="530" y="843"/>
      <point x="594" y="808"/>
      <point x="639" y="751" type="curve"/>
      <point x="647" y="742"/>
      <point x="680" y="760"/>
      <point x="712" y="790" type="curve" smooth="yes"/>
      <point x="744" y="821"/>
      <point x="764" y="853"/>
      <point x="756" y="862" type="curve" smooth="yes"/>
      <point x="679" y="947"/>
      <point x="573" y="1000"/>
      <point x="455" y="1000" type="curve" smooth="yes"/>
      <point x="425" y="1000" type="line" smooth="yes"/>
      <point x="190" y="1000"/>
      <point x="0" y="788"/>
      <point x="0" y="528" type="curve" smooth="yes"/>
      <point x="0" y="472" type="line" smooth="yes"/>
      <point x="0" y="212"/>
      <point x="190" y="0"/>
      <point x="425" y="0" type="curve" smooth="yes"/>
    </contour>
  </outline>
</glyph>
<glyph name="E" format="1">
  <advance width="789"/>
  <unicode hex="0045"/>
  <outline>
    <contour>
      <point x="597" y="6" type="line" smooth="yes"/>
      <point x="628" y="6"/>
      <point x="654" y="42"/>
      <point x="654" y="85" type="curve"/>
      <point x="654" y="85" type="line"/>
      <point x="654" y="128"/>
      <point x="628" y="164"/>
      <point x="597" y="164" type="curve" smooth="yes"/>
      <point x="170" y="164" type="line"/>
      <point x="170" y="431" type="line"/>
      <point x="422" y="431" type="line" smooth="yes"/>
      <point x="454" y="431"/>
      <point x="480" y="467"/>
      <point x="480" y="510" type="curve"/>
      <point x="480" y="510" type="line"/>
      <point x="480" y="553"/>
      <point x="454" y="589"/>
      <point x="422" y="589" type="curve" smooth="yes"/>
      <point x="170" y="589" type="line"/>
      <point x="170" y="836" type="line"/>
      <point x="597" y="836" type="line" smooth="yes"/>
      <point x="628" y="836"/>
      <point x="654" y="872"/>
      <point x="654" y="915" type="curve"/>
      <point x="654" y="915" type="line"/>
      <point x="654" y="958"/>
      <point x="628" y="994"/>
      <point x="597" y="994" type="curve" smooth="yes"/>
      <point x="98" y="1000" type="line" smooth="yes"/>
      <point x="44" y="1000"/>
      <point x="0" y="973"/>
      <point x="0" y="939" type="curve" smooth="yes"/>
      <point x="0" y="61" type="line" smooth="yes"/>
      <point x="0" y="27"/>
      <point x="44" y="0"/>
      <point x="98" y="0" type="curve" smooth="yes"/>
    </contour>
  </outline>
</glyph>
<glyph name="Latin_Capital_Letter_E" format="1">
  <advance width="785"/>
  <unicode hex="0045"/>
  <outline>
    <contour>
      <point x="592" y="0" type="line" smooth="yes"/>
      <point x="624" y="0"/>
      <point x="650" y="35"/>
      <point x="650" y="79" type="curve"/>
      <point x="650" y="79" type="line"/>
      <point x="650" y="122"/>
      <point x="624" y="157"/>
      <point x="592" y="157" type="curve" smooth="yes"/>
      <point x="170" y="157" type="line"/>
      <point x="170" y="431" type="line"/>
      <point x="422" y="431" type="line" smooth="yes"/>
      <point x="454" y="431"/>
      <point x="480" y="467"/>
      <point x="480" y="510" type="curve"/>
      <point x="480" y="510" type="line"/>
      <point x="480" y="553"/>
      <point x="454" y="589"/>
      <point x="422" y="589" type="curve" smooth="yes"/>
      <point x="170" y="589" type="line"/>
      <point x="170" y="843" type="line"/>
      <point x="592" y="843" type="line" smooth="yes"/>
      <point x="624" y="843"/>
      <point x="650" y="878"/>
      <point x="650" y="921" type="curve"/>
      <point x="650" y="921" type="line"/>
      <point x="650" y="965"/>
      <point x="624" y="1000"/>
      <point x="592" y="1000" type="curve" smooth="yes"/>
      <point x="98" y="1000" type="line" smooth="yes"/>
      <point x="44" y="1000"/>
      <point x="0" y="973"/>
      <point x="0" y="939" type="curve" smooth="yes"/>
      <point x="0" y="61" type="line" smooth="yes"/>
      <point x="0" y="27"/>
      <point x="44" y="0"/>
      <point x="98" y="0" type="curve" smooth="yes"/>
    </contour>
  </outline>
</glyph>
<glyph name="F" format="1">
  <advance width="789"/>
  <unicode hex="0046"/>
  <outline>
    <contour>
      <point x="170" y="48" type="curve" smooth="yes"/>
      <point x="170" y="431" type="line"/>
      <point x="422" y="431" type="line" smooth="yes"/>
      <point x="454" y="431"/>
      <point x="480" y="467"/>
      <point x="480" y="510" type="curve"/>
      <point x="480" y="510" type="line"/>
      <point x="480" y="553"/>
      <point x="454" y="589"/>
      <point x="422" y="589" type="curve" smooth="yes"/>
      <point x="170" y="589" type="line"/>
      <point x="170" y="836" type="line"/>
      <point x="597" y="836" type="line" smooth="yes"/>
      <point x="628" y="836"/>
      <point x="654" y="872"/>
      <point x="654" y="915" type="curve"/>
      <point x="654" y="915" type="line"/>
      <point x="654" y="958"/>
      <point x="628" y="994"/>
      <point x="597" y="994" type="curve" smooth="yes"/>
      <point x="98" y="1000" type="line" smooth="yes"/>
      <point x="44" y="1000"/>
      <point x="0" y="973"/>
      <point x="0" y="939" type="curve" smooth="yes"/>
      <point x="0" y="48" type="line" smooth="yes"/>
      <point x="0" y="19"/>
      <point x="38" y="-5"/>
      <point x="85" y="-5" type="curve" smooth="yes"/>
      <point x="132" y="-5"/>
      <point x="170" y="19"/>
    </contour>
  </outline>
</glyph>
<glyph name="Latin_Capital_Letter_F" format="1">
  <advance width="650"/>
  <unicode hex="0046"/>
  <outline>
    <contour>
      <point x="170" y="48" type="curve" smooth="yes"/>
      <point x="170" y="431" type="line"/>
      <point x="422" y="431" type="line" smooth="yes"/>
      <point x="454" y="431"/>
      <point x="480" y="467"/>
      <point x="480" y="510" type="curve"/>
      <point x="480" y="510" type="line"/>
      <point x="480" y="553"/>
      <point x="454" y="589"/>
      <point x="422" y="589" type="curve" smooth="yes"/>
      <point x="170" y="589" type="line"/>
      <point x="170" y="843" type="line"/>
      <point x="592" y="843" type="line" smooth="yes"/>
      <point x="624" y="843"/>
      <point x="650" y="878"/>
      <point x="650" y="921" type="curve"/>
      <point x="650" y="921" type="line"/>
      <point x="650" y="965"/>
      <point x="624" y="1000"/>
      <point x="592" y="1000" type="curve" smooth="yes"/>
      <point x="98" y="1000" type="line" smooth="yes"/>
      <point x="44" y="1000"/>
      <point x="0" y="973"/>
      <point x="0" y="939" type="curve" smooth="yes"/>
      <point x="0" y="48" type="line" smooth="yes"/>
      <point x="0" y="19"/>
      <point x="38" y="-5"/>
      <point x="85" y="-5" type="curve" smooth="yes"/>
      <point x="132" y="-5"/>
      <point x="170" y="19"/>
    </contour>
  </outline>
</glyph>
<glyph name="Latin_Capital_Letter_G" format="1">
  <advance width="1018"/>
  <unicode hex="0047"/>
  <outline>
    <contour>
      <point x="519" y="549" type="line" smooth="yes"/>
      <point x="488" y="549"/>
      <point x="462" y="513"/>
      <point x="462" y="470" type="curve" smooth="yes"/>
      <point x="462" y="427"/>
      <point x="488" y="391"/>
      <point x="519" y="391" type="curve" smooth="yes"/>
      <point x="701" y="391" type="line"/>
      <point x="672" y="261"/>
      <point x="573" y="157"/>
      <point x="455" y="157" type="curve" smooth="yes"/>
      <point x="426" y="157" type="line" smooth="yes"/>
      <point x="287" y="157"/>
      <point x="190" y="298"/>
      <point x="190" y="472" type="curve" smooth="yes"/>
      <point x="190" y="528" type="line" smooth="yes"/>
      <point x="190" y="694"/>
      <point x="295" y="843"/>
      <point x="426" y="843" type="curve" smooth="yes"/>
      <point x="455" y="843" type="line" smooth="yes"/>
      <point x="530" y="843"/>
      <point x="594" y="808"/>
      <point x="639" y="751" type="curve"/>
      <point x="659" y="729"/>
      <point x="702" y="736"/>
      <point x="735" y="767" type="curve" smooth="yes"/>
      <point x="767" y="797"/>
      <point x="776" y="840"/>
      <point x="756" y="862" type="curve" smooth="yes"/>
      <point x="679" y="947"/>
      <point x="573" y="1000"/>
      <point x="455" y="1000" type="curve" smooth="yes"/>
      <point x="425" y="1000" type="line" smooth="yes"/>
      <point x="190" y="1000"/>
      <point x="0" y="788"/>
      <point x="0" y="528" type="curve" smooth="yes"/>
      <point x="0" y="472" type="line" smooth="yes"/>
      <point x="0" y="212"/>
      <point x="190" y="0"/>
      <point x="425" y="0" type="curve" smooth="yes"/>
      <point x="455" y="0" type="line" smooth="yes"/>
      <point x="690" y="0"/>
      <point x="880" y="210"/>
      <point x="882" y="470" type="curve" smooth="yes"/>
      <point x="884" y="513"/>
      <point x="859" y="549"/>
      <point x="827" y="549" type="curve" smooth="yes"/>
    </contour>
  </outline>
</glyph>
<glyph name="H" format="1">
  <advance width="882"/>
  <unicode hex="0048"/>
  <outline>
    <contour>
      <point x="170" y="431" type="line"/>
      <point x="577" y="431" type="line"/>
      <point x="577" y="45" type="line" smooth="yes"/>
      <point x="577" y="17"/>
      <point x="615" y="-5"/>
      <point x="662" y="-5" type="curve" smooth="yes"/>
      <point x="709" y="-5"/>
      <point x="747" y="17"/>
      <point x="747" y="45" type="curve" smooth="yes"/>
      <point x="747" y="955" type="line" smooth="yes"/>
      <point x="747" y="983"/>
      <point x="709" y="1005"/>
      <point x="662" y="1005" type="curve" smooth="yes"/>
      <point x="615" y="1005"/>
      <point x="577" y="983"/>
      <point x="577" y="955" type="curve" smooth="yes"/>
      <point x="577" y="589" type="line"/>
      <point x="170" y="589" type="line"/>
      <point x="170" y="955" type="line" smooth="yes"/>
      <point x="170" y="983"/>
      <point x="132" y="1005"/>
      <point x="85" y="1005" type="curve" smooth="yes"/>
      <point x="38" y="1005"/>
      <point x="0" y="983"/>
      <point x="0" y="955" type="curve" smooth="yes"/>
      <point x="0" y="45" type="line" smooth="yes"/>
      <point x="0" y="17"/>
      <point x="38" y="-5"/>
      <point x="85" y="-5" type="curve" smooth="yes"/>
      <point x="132" y="-5"/>
      <point x="170" y="17"/>
      <point x="170" y="45" type="curve" smooth="yes"/>
    </contour>
  </outline>
</glyph>
<glyph name="I" format="1">
  <advance width="305"/>
  <unicode hex="0049"/>
  <outline>
    <contour>
      <point x="170" y="983" type="line" smooth="yes"/>
      <point x="170" y="995"/>
      <point x="132" y="1005"/>
      <point x="85" y="1005" type="curve" smooth="yes"/>
      <point x="38" y="1005"/>
      <point x="0" y="995"/>
      <point x="0" y="983" type="curve" smooth="yes"/>
      <point x="0" y="17" type="line" smooth="yes"/>
      <point x="0" y="5"/>
      <point x="38" y="-5"/>
      <point x="85" y="-5" type="curve" smooth="yes"/>
      <point x="132" y="-5"/>
      <point x="170" y="5"/>
      <point x="170" y="17" type="curve" smooth="yes"/>
    </contour>
  </outline>
</glyph>
<glyph name="Latin_Capital_Letter_I" format="1">
  <advance width="305"/>
  <unicode hex="0049"/>
  <outline>
    <contour>
      <point x="170" y="952" type="line" smooth="yes"/>
      <point x="170" y="981"/>
      <point x="132" y="1005"/>
      <point x="85" y="1005" type="curve" smooth="yes"/>
      <point x="38" y="1005"/>
      <point x="0" y="981"/>
      <point x="0" y="952" type="curve" smooth="yes"/>
      <point x="0" y="48" type="line" smooth="yes"/>
      <point x="0" y="19"/>
      <point x="38" y="-5"/>
      <point x="85" y="-5" type="curve" smooth="yes"/>
      <point x="132" y="-5"/>
      <point x="170" y="19"/>
      <point x="170" y="48" type="curve" smooth="yes"/>
    </contour>
  </outline>
</glyph>
<glyph name="J" format="1">
  <advance width="542"/>
  <unicode hex="004A"/>
  <outline>
    <contour>
      <point x="237" y="163" type="line" smooth="yes"/>
      <point x="237" y="159"/>
      <point x="223" y="155"/>
      <point x="199" y="153" type="curve" smooth="yes"/>
      <point x="176" y="152"/>
      <point x="150" y="153"/>
      <point x="132" y="156" type="curve"/>
      <point x="110" y="180"/>
      <point x="65" y="174"/>
      <point x="32" y="143" type="curve" smooth="yes"/>
      <point x="-1" y="113"/>
      <point x="-10" y="68"/>
      <point x="12" y="44" type="curve"/>
      <point x="80" y="-5"/>
      <point x="176" y="-19"/>
      <point x="264" y="8" type="curve" smooth="yes"/>
      <point x="353" y="35"/>
      <point x="407" y="93"/>
      <point x="407" y="163" type="curve" smooth="yes"/>
      <point x="407" y="983" type="line" smooth="yes"/>
      <point x="407" y="995"/>
      <point x="369" y="1005"/>
      <point x="322" y="1005" type="curve" smooth="yes"/>
      <point x="275" y="1005"/>
      <point x="237" y="995"/>
      <point x="237" y="983" type="curve" smooth="yes"/>
    </contour>
  </outline>
</glyph>
<glyph name="Latin_Capital_Letter_J" format="1">
  <advance width="467"/>
  <unicode hex="004A"/>
  <outline>
    <contour>
      <point x="297" y="227" type="line" smooth="yes"/>
      <point x="297" y="196"/>
      <point x="275" y="170"/>
      <point x="239" y="158" type="curve" smooth="yes"/>
      <point x="203" y="146"/>
      <point x="165" y="153"/>
      <point x="138" y="174" type="curve"/>
      <point x="138" y="174" type="line"/>
      <point x="111" y="203"/>
      <point x="62" y="202"/>
      <point x="29" y="171" type="curve"/>
      <point x="29" y="171" type="line"/>
      <point x="-5" y="141"/>
      <point x="-10" y="92"/>
      <point x="17" y="63" type="curve"/>
      <point x="17" y="63" type="line"/>
      <point x="94" y="-5"/>
      <point x="203" y="-24"/>
      <point x="304" y="13" type="curve" smooth="yes"/>
      <point x="405" y="50"/>
      <point x="467" y="131"/>
      <point x="467" y="227" type="curve" smooth="yes"/>
      <point x="467" y="952" type="line" smooth="yes"/>
      <point x="467" y="981"/>
      <point x="428" y="1005"/>
      <point x="382" y="1005" type="curve" smooth="yes"/>
      <point x="335" y="1005"/>
      <point x="297" y="981"/>
      <point x="297" y="952" type="curve" smooth="yes"/>
    </contour>
  </outline>
</glyph>
<glyph name="K" format="1">
  <advance width="803"/>
  <unicode hex="004B"/>
  <outline>
    <contour>
      <point x="170" y="261" type="line"/>
      <point x="265" y="392" type="line"/>
      <point x="512" y="19" type="line"/>
      <point x="538" y="-5"/>
      <point x="591" y="-12"/>
      <point x="630" y="4" type="curve" smooth="yes"/>
      <point x="669" y="20"/>
      <point x="680" y="53"/>
      <point x="654" y="78" type="curve"/>
      <point x="360" y="521" type="line"/>
      <point x="651" y="920" type="line"/>
      <point x="679" y="944"/>
      <point x="671" y="977"/>
      <point x="633" y="994" type="curve" smooth="yes"/>
      <point x="595" y="1012"/>
      <point x="542" y="1007"/>
      <point x="514" y="983" type="curve"/>
      <point x="170" y="512" type="line"/>
      <point x="170" y="952" type="line" smooth="yes"/>
      <point x="170" y="981"/>
      <point x="132" y="1005"/>
      <point x="85" y="1005" type="curve" smooth="yes"/>
      <point x="38" y="1005"/>
      <point x="0" y="981"/>
      <point x="0" y="952" type="curve" smooth="yes"/>
      <point x="0" y="48" type="line" smooth="yes"/>
      <point x="0" y="19"/>
      <point x="38" y="-5"/>
      <point x="85" y="-5" type="curve" smooth="yes"/>
      <point x="132" y="-5"/>
      <point x="170" y="19"/>
      <point x="170" y="48" type="curve" smooth="yes"/>
    </contour>
  </outline>
</glyph>
<glyph name="L" format="1">
  <advance width="817"/>
  <unicode hex="004C"/>
  <outline>
    <contour>
      <point x="624" y="6" type="line" smooth="yes"/>
      <point x="655" y="6"/>
      <point x="681" y="42"/>
      <point x="681" y="85" type="curve"/>
      <point x="681" y="85" type="line"/>
      <point x="681" y="128"/>
      <point x="655" y="164"/>
      <point x="624" y="164" type="curve" smooth="yes"/>
      <point x="170" y="164" type="line"/>
      <point x="170" y="952" type="line" smooth="yes"/>
      <point x="170" y="981"/>
      <point x="132" y="1005"/>
      <point x="85" y="1005" type="curve" smooth="yes"/>
      <point x="38" y="1005"/>
      <point x="0" y="981"/>
      <point x="0" y="952" type="curve" smooth="yes"/>
      <point x="0" y="56" type="line" smooth="yes"/>
      <point x="0" y="23"/>
      <point x="44" y="-5"/>
      <point x="98" y="-5" type="curve" smooth="yes"/>
    </contour>
  </outline>
</glyph>
<glyph name="Latin_Capital_Letter_L" format="1">
  <advance width="812"/>
  <unicode hex="004C"/>
  <outline>
    <contour>
      <point x="619" y="0" type="line" smooth="yes"/>
      <point x="651" y="0"/>
      <point x="677" y="35"/>
      <point x="677" y="79" type="curve"/>
      <point x="677" y="79" type="line"/>
      <point x="677" y="122"/>
      <point x="651" y="157"/>
      <point x="619" y="157" type="curve" smooth="yes"/>
      <point x="170" y="157" type="line"/>
      <point x="170" y="952" type="line" smooth="yes"/>
      <point x="170" y="981"/>
      <point x="132" y="1005"/>
      <point x="85" y="1005" type="curve" smooth="yes"/>
      <point x="38" y="1005"/>
      <point x="0" y="981"/>
      <point x="0" y="952" type="curve" smooth="yes"/>
      <point x="0" y="61" type="line" smooth="yes"/>
      <point x="0" y="27"/>
      <point x="44" y="0"/>
      <point x="98" y="0" type="curve" smooth="yes"/>
    </contour>
  </outline>
</glyph>
<glyph name="M" format="1">
  <advance width="1264"/>
  <unicode hex="004D"/>
  <outline>
    <contour>
      <point x="471" y="38" type="line"/>
      <point x="484" y="12"/>
      <point x="521" y="-5"/>
      <point x="564" y="-5" type="curve" smooth="yes"/>
      <point x="607" y="-5"/>
      <point x="644" y="12"/>
      <point x="657" y="38" type="curve"/>
      <point x="839" y="662" type="line"/>
      <point x="960" y="37" type="line"/>
      <point x="967" y="18"/>
      <point x="987" y="4"/>
      <point x="1017" y="-2" type="curve" smooth="yes"/>
      <point x="1047" y="-8"/>
      <point x="1077" y="-4"/>
      <point x="1100" y="9" type="curve" smooth="yes"/>
      <point x="1124" y="22"/>
      <point x="1133" y="41"/>
      <point x="1126" y="60" type="curve"/>
      <point x="943" y="957" type="line"/>
      <point x="934" y="984"/>
      <point x="897" y="1003"/>
      <point x="852" y="1005" type="curve" smooth="yes"/>
      <point x="808" y="1006"/>
      <point x="768" y="989"/>
      <point x="755" y="962" type="curve"/>
      <point x="559" y="266" type="line"/>
      <point x="373" y="962" type="line"/>
      <point x="360" y="989"/>
      <point x="320" y="1006"/>
      <point x="275" y="1005" type="curve" smooth="yes"/>
      <point x="230" y="1003"/>
      <point x="194" y="984"/>
      <point x="185" y="956" type="curve"/>
      <point x="2" y="59" type="line"/>
      <point x="-8" y="30"/>
      <point x="22" y="2"/>
      <point x="68" y="-4" type="curve" smooth="yes"/>
      <point x="114" y="-10"/>
      <point x="159" y="9"/>
      <point x="168" y="38" type="curve"/>
      <point x="293" y="680" type="line"/>
    </contour>
  </outline>
</glyph>
<glyph name="Latin_Capital_Letter_N" format="1">
  <advance width="903"/>
  <unicode hex="004E"/>
  <outline>
    <contour>
      <point x="170" y="668" type="line"/>
      <point x="579" y="34" type="line" smooth="yes"/>
      <point x="596" y="6"/>
      <point x="641" y="-9"/>
      <point x="688" y="-4" type="curve" smooth="yes"/>
      <point x="735" y="2"/>
      <point x="767" y="27"/>
      <point x="767" y="56" type="curve" smooth="yes"/>
      <point x="767" y="952" type="line" smooth="yes"/>
      <point x="767" y="981"/>
      <point x="729" y="1005"/>
      <point x="682" y="1005" type="curve" smooth="yes"/>
      <point x="635" y="1005"/>
      <point x="597" y="981"/>
      <point x="597" y="952" type="curve" smooth="yes"/>
      <point x="597" y="332" type="line"/>
      <point x="188" y="966" type="line" smooth="yes"/>
      <point x="171" y="994"/>
      <point x="126" y="1009"/>
      <point x="79" y="1004" type="curve" smooth="yes"/>
      <point x="33" y="998"/>
      <point x="0" y="973"/>
      <point x="0" y="944" type="curve" smooth="yes"/>
      <point x="0" y="48" type="line" smooth="yes"/>
      <point x="0" y="19"/>
      <point x="38" y="-5"/>
      <point x="85" y="-5" type="curve" smooth="yes"/>
      <point x="132" y="-5"/>
      <point x="170" y="19"/>
      <point x="170" y="48" type="curve" smooth="yes"/>
    </contour>
  </outline>
</glyph>
<glyph name="N" format="1">
  <advance width="903"/>
  <unicode hex="004E"/>
  <outline>
    <contour>
      <point x="170" y="671" type="line"/>
      <point x="587" y="23" type="line"/>
      <point x="611" y="0"/>
      <point x="655" y="-10"/>
      <point x="697" y="-2" type="curve" smooth="yes"/>
      <point x="739" y="6"/>
      <point x="767" y="29"/>
      <point x="767" y="56" type="curve" smooth="yes"/>
      <point x="767" y="952" type="line" smooth="yes"/>
      <point x="767" y="981"/>
      <point x="729" y="1005"/>
      <point x="682" y="1005" type="curve" smooth="yes"/>
      <point x="635" y="1005"/>
      <point x="597" y="981"/>
      <point x="597" y="952" type="curve" smooth="yes"/>
      <point x="597" y="329" type="line"/>
      <point x="180" y="977" type="line"/>
      <point x="156" y="1000"/>
      <point x="113" y="1010"/>
      <point x="70" y="1002" type="curve" smooth="yes"/>
      <point x="28" y="994"/>
      <point x="0" y="971"/>
      <point x="0" y="944" type="curve" smooth="yes"/>
      <point x="0" y="48" type="line" smooth="yes"/>
      <point x="0" y="19"/>
      <point x="38" y="-5"/>
      <point x="85" y="-5" type="curve" smooth="yes"/>
      <point x="132" y="-5"/>
      <point x="170" y="19"/>
      <point x="170" y="48" type="curve" smooth="yes"/>
    </contour>
  </outline>
</glyph>
<glyph name="Q" format="1">
  <advance width="1015"/>
  <unicode hex="0051"/>
  <outline>
    <contour>
      <point x="189" y="472" type="curve" smooth="yes"/>
      <point x="189" y="528" type="line" smooth="yes"/>
      <point x="189" y="694"/>
      <point x="294" y="843"/>
      <point x="425" y="843" type="curve" smooth="yes"/>
      <point x="455" y="843" type="line" smooth="yes"/>
      <point x="594" y="843"/>
      <point x="691" y="702"/>
      <point x="691" y="528" type="curve" smooth="yes"/>
      <point x="691" y="472" type="line" smooth="yes"/>
      <point x="691" y="306"/>
      <point x="586" y="157"/>
      <point x="455" y="157" type="curve" smooth="yes"/>
      <point x="425" y="157" type="line" smooth="yes"/>
      <point x="286" y="157"/>
      <point x="189" y="298"/>
    </contour>
    <contour>
      <point x="0" y="473" type="line" smooth="yes"/>
      <point x="0" y="286"/>
      <point x="89" y="128"/>
      <point x="240" y="47" type="curve" smooth="yes"/>
      <point x="707" y="-177" type="line"/>
      <point x="729" y="-196"/>
      <point x="766" y="-181"/>
      <point x="788" y="-144" type="curve" smooth="yes"/>
      <point x="811" y="-107"/>
      <point x="812" y="-62"/>
      <point x="789" y="-44" type="curve"/>
      <point x="605" y="30" type="line"/>
      <point x="766" y="98"/>
      <point x="880" y="270"/>
      <point x="880" y="472" type="curve" smooth="yes"/>
      <point x="880" y="528" type="line" smooth="yes"/>
      <point x="880" y="788"/>
      <point x="690" y="1000"/>
      <point x="455" y="1000" type="curve" smooth="yes"/>
      <point x="425" y="1000" type="line" smooth="yes"/>
      <point x="190" y="1000"/>
      <point x="0" y="788"/>
      <point x="0" y="528" type="curve" smooth="yes"/>
    </contour>
  </outline>
</glyph>
<glyph name="R" format="1">
  <advance width="790"/>
  <unicode hex="0052"/>
  <outline>
    <contour>
      <point x="170" y="371" type="line"/>
      <point x="317" y="371" type="line"/>
      <point x="488" y="31" type="line" smooth="yes"/>
      <point x="501" y="5"/>
      <point x="548" y="-10"/>
      <point x="593" y="-3" type="curve" smooth="yes"/>
      <point x="638" y="5"/>
      <point x="664" y="32"/>
      <point x="651" y="58" type="curve" smooth="yes"/>
      <point x="476" y="408" type="line"/>
      <point x="582" y="460"/>
      <point x="654" y="562"/>
      <point x="654" y="679" type="curve" smooth="yes"/>
      <point x="654" y="692" type="line" smooth="yes"/>
      <point x="654" y="862"/>
      <point x="503" y="1000"/>
      <point x="315" y="1000" type="curve" smooth="yes"/>
      <point x="98" y="1000" type="line" smooth="yes"/>
      <point x="44" y="1000"/>
      <point x="0" y="975"/>
      <point x="0" y="943" type="curve" smooth="yes"/>
      <point x="0" y="45" type="line" smooth="yes"/>
      <point x="0" y="17"/>
      <point x="38" y="-5"/>
      <point x="85" y="-5" type="curve" smooth="yes"/>
      <point x="132" y="-5"/>
      <point x="170" y="17"/>
      <point x="170" y="45" type="curve" smooth="yes"/>
    </contour>
    <contour>
      <point x="170" y="843" type="line"/>
      <point x="315" y="843" type="line" smooth="yes"/>
      <point x="401" y="843"/>
      <point x="472" y="775"/>
      <point x="472" y="692" type="curve" smooth="yes"/>
      <point x="472" y="679" type="line" smooth="yes"/>
      <point x="472" y="595"/>
      <point x="402" y="529"/>
      <point x="315" y="529" type="curve" smooth="yes"/>
      <point x="170" y="529" type="line"/>
    </contour>
  </outline>
</glyph>
<glyph name="S" format="1">
  <advance width="795"/>
  <unicode hex="0053"/>
  <outline>
    <contour>
      <point x="660" y="310" type="curve" smooth="yes"/>
      <point x="660" y="483"/>
      <point x="506" y="567"/>
      <point x="341" y="621" type="curve" smooth="yes"/>
      <point x="286" y="640"/>
      <point x="189" y="674"/>
      <point x="188" y="736" type="curve" smooth="yes"/>
      <point x="187" y="797"/>
      <point x="244" y="847"/>
      <point x="314" y="847" type="curve" smooth="yes"/>
      <point x="366" y="847"/>
      <point x="410" y="837"/>
      <point x="447" y="815" type="curve"/>
      <point x="466" y="795"/>
      <point x="508" y="803"/>
      <point x="540" y="833" type="curve" smooth="yes"/>
      <point x="573" y="864"/>
      <point x="584" y="905"/>
      <point x="566" y="926" type="curve"/>
      <point x="497" y="978"/>
      <point x="413" y="1005"/>
      <point x="314" y="1005" type="curve" smooth="yes"/>
      <point x="145" y="1005"/>
      <point x="7" y="884"/>
      <point x="7" y="736" type="curve" smooth="yes"/>
      <point x="7" y="587"/>
      <point x="151" y="516"/>
      <point x="292" y="470" type="curve" smooth="yes"/>
      <point x="368" y="444"/>
      <point x="475" y="396"/>
      <point x="475" y="310" type="curve" smooth="yes"/>
      <point x="476" y="223"/>
      <point x="397" y="153"/>
      <point x="299" y="153" type="curve" smooth="yes"/>
      <point x="232" y="153"/>
      <point x="176" y="168"/>
      <point x="128" y="198" type="curve"/>
      <point x="109" y="218"/>
      <point x="67" y="210"/>
      <point x="34" y="180" type="curve" smooth="yes"/>
      <point x="2" y="150"/>
      <point x="-10" y="109"/>
      <point x="9" y="88" type="curve"/>
      <point x="89" y="26"/>
      <point x="186" y="-5"/>
      <point x="299" y="-5" type="curve" smooth="yes"/>
      <point x="498" y="-5"/>
      <point x="660" y="136"/>
    </contour>
  </outline>
</glyph>
<glyph name="T" format="1">
  <advance width="948"/>
  <unicode hex="0054"/>
  <outline>
    <contour>
      <point x="491" y="843" type="line"/>
      <point x="755" y="843" type="line" smooth="yes"/>
      <point x="787" y="843"/>
      <point x="812" y="878"/>
      <point x="812" y="921" type="curve"/>
      <point x="812" y="921" type="line"/>
      <point x="812" y="965"/>
      <point x="787" y="1000"/>
      <point x="755" y="1000" type="curve" smooth="yes"/>
      <point x="57" y="1000" type="line" smooth="yes"/>
      <point x="26" y="1000"/>
      <point x="0" y="965"/>
      <point x="0" y="921" type="curve"/>
      <point x="0" y="921" type="line"/>
      <point x="0" y="878"/>
      <point x="26" y="843"/>
      <point x="57" y="843" type="curve" smooth="yes"/>
      <point x="321" y="843" type="line"/>
      <point x="321" y="48" type="line" smooth="yes"/>
      <point x="321" y="19"/>
      <point x="359" y="-5"/>
      <point x="406" y="-5" type="curve" smooth="yes"/>
      <point x="453" y="-5"/>
      <point x="491" y="19"/>
      <point x="491" y="48" type="curve" smooth="yes"/>
    </contour>
  </outline>
</glyph>
<glyph name="U" format="1">
  <advance width="971"/>
  <unicode hex="0055"/>
  <outline>
    <contour>
      <point x="433" y="0" type="line" smooth="yes"/>
      <point x="655" y="0"/>
      <point x="836" y="212"/>
      <point x="836" y="472" type="curve" smooth="yes"/>
      <point x="836" y="952" type="line" smooth="yes"/>
      <point x="836" y="981"/>
      <point x="798" y="1005"/>
      <point x="751" y="1005" type="curve" smooth="yes"/>
      <point x="704" y="1005"/>
      <point x="666" y="981"/>
      <point x="666" y="952" type="curve" smooth="yes"/>
      <point x="666" y="472" type="line" smooth="yes"/>
      <point x="666" y="308"/>
      <point x="562" y="157"/>
      <point x="433" y="157" type="curve" smooth="yes"/>
      <point x="403" y="157" type="line" smooth="yes"/>
      <point x="263" y="157"/>
      <point x="170" y="298"/>
      <point x="170" y="472" type="curve" smooth="yes"/>
      <point x="170" y="952" type="line" smooth="yes"/>
      <point x="170" y="981"/>
      <point x="132" y="1005"/>
      <point x="85" y="1005" type="curve" smooth="yes"/>
      <point x="38" y="1005"/>
      <point x="0" y="981"/>
      <point x="0" y="952" type="curve" smooth="yes"/>
      <point x="0" y="472" type="line" smooth="yes"/>
      <point x="0" y="212"/>
      <point x="181" y="0"/>
      <point x="403" y="0" type="curve" smooth="yes"/>
    </contour>
  </outline>
</glyph>
<glyph name="Latin_Capital_Letter_V" format="1">
  <advance width="857"/>
  <unicode hex="0056"/>
  <outline>
    <contour>
      <point x="304" y="58" type="line" smooth="yes"/>
      <point x="317" y="21"/>
      <point x="368" y="-5"/>
      <point x="429" y="-5" type="curve" smooth="yes"/>
      <point x="490" y="-5"/>
      <point x="541" y="21"/>
      <point x="553" y="58" type="curve" smooth="yes"/>
      <point x="856" y="940" type="line" smooth="yes"/>
      <point x="865" y="969"/>
      <point x="836" y="997"/>
      <point x="790" y="1004" type="curve" smooth="yes"/>
      <point x="744" y="1010"/>
      <point x="699" y="991"/>
      <point x="689" y="963" type="curve" smooth="yes"/>
      <point x="429" y="202" type="line"/>
      <point x="168" y="963" type="line" smooth="yes"/>
      <point x="158" y="991"/>
      <point x="113" y="1010"/>
      <point x="67" y="1004" type="curve" smooth="yes"/>
      <point x="21" y="997"/>
      <point x="-8" y="969"/>
      <point x="2" y="940" type="curve" smooth="yes"/>
    </contour>
  </outline>
</glyph>
<glyph name="V" format="1">
  <advance width="977"/>
  <unicode hex="0056"/>
  <outline>
    <contour>
      <point x="326" y="38" type="line"/>
      <point x="338" y="12"/>
      <point x="376" y="-5"/>
      <point x="421" y="-5" type="curve" smooth="yes"/>
      <point x="466" y="-5"/>
      <point x="504" y="12"/>
      <point x="515" y="38" type="curve"/>
      <point x="840" y="933" type="line" smooth="yes"/>
      <point x="849" y="959"/>
      <point x="820" y="988"/>
      <point x="775" y="997" type="curve" smooth="yes"/>
      <point x="730" y="1007"/>
      <point x="685" y="993"/>
      <point x="676" y="967" type="curve" smooth="yes"/>
      <point x="421" y="263" type="line"/>
      <point x="166" y="967" type="line" smooth="yes"/>
      <point x="160" y="984"/>
      <point x="139" y="996"/>
      <point x="110" y="999" type="curve" smooth="yes"/>
      <point x="81" y="1003"/>
      <point x="51" y="997"/>
      <point x="28" y="983" type="curve" smooth="yes"/>
      <point x="5" y="968"/>
      <point x="-4" y="951"/>
      <point x="2" y="933" type="curve" smooth="yes"/>
    </contour>
  </outline>
</glyph>
<glyph name="W" format="1">
  <advance width="1489"/>
  <unicode hex="0057"/>
  <outline>
    <contour>
      <point x="279" y="45" type="line" smooth="yes"/>
      <point x="288" y="16"/>
      <point x="328" y="-5"/>
      <point x="375" y="-5" type="curve" smooth="yes"/>
      <point x="422" y="-5"/>
      <point x="462" y="16"/>
      <point x="471" y="45" type="curve" smooth="yes"/>
      <point x="677" y="745" type="line"/>
      <point x="883" y="45" type="line" smooth="yes"/>
      <point x="892" y="16"/>
      <point x="931" y="-5"/>
      <point x="979" y="-5" type="curve" smooth="yes"/>
      <point x="1026" y="-5"/>
      <point x="1066" y="16"/>
      <point x="1075" y="45" type="curve" smooth="yes"/>
      <point x="1352" y="942" type="line" smooth="yes"/>
      <point x="1361" y="970"/>
      <point x="1331" y="998"/>
      <point x="1285" y="1004" type="curve" smooth="yes"/>
      <point x="1239" y="1009"/>
      <point x="1194" y="990"/>
      <point x="1185" y="962" type="curve" smooth="yes"/>
      <point x="978" y="257" type="line"/>
      <point x="773" y="955" type="line" smooth="yes"/>
      <point x="764" y="984"/>
      <point x="724" y="1005"/>
      <point x="677" y="1005" type="curve" smooth="yes"/>
      <point x="629" y="1005"/>
      <point x="590" y="984"/>
      <point x="581" y="955" type="curve" smooth="yes"/>
      <point x="376" y="257" type="line"/>
      <point x="168" y="962" type="line" smooth="yes"/>
      <point x="160" y="990"/>
      <point x="115" y="1009"/>
      <point x="69" y="1004" type="curve" smooth="yes"/>
      <point x="23" y="998"/>
      <point x="-7" y="970"/>
      <point x="2" y="942" type="curve" smooth="yes"/>
    </contour>
  </outline>
</glyph>
<glyph name="Latin_Capital_Letter_X" format="1">
  <advance width="722"/>
  <unicode hex="0058"/>
  <outline>
    <contour>
      <point x="361" y="351" type="line"/>
      <point x="558" y="29" type="line" smooth="yes"/>
      <point x="574" y="2"/>
      <point x="623" y="-12"/>
      <point x="667" y="-1" type="curve" smooth="yes"/>
      <point x="711" y="9"/>
      <point x="733" y="40"/>
      <point x="716" y="67" type="curve" smooth="yes"/>
      <point x="452" y="500" type="line"/>
      <point x="716" y="933" type="line" smooth="yes"/>
      <point x="733" y="960"/>
      <point x="711" y="991"/>
      <point x="667" y="1001" type="curve" smooth="yes"/>
      <point x="623" y="1012"/>
      <point x="574" y="998"/>
      <point x="558" y="971" type="curve" smooth="yes"/>
      <point x="361" y="649" type="line"/>
      <point x="164" y="971" type="line" smooth="yes"/>
      <point x="148" y="998"/>
      <point x="99" y="1012"/>
      <point x="55" y="1001" type="curve" smooth="yes"/>
      <point x="11" y="991"/>
      <point x="-11" y="960"/>
      <point x="6" y="933" type="curve" smooth="yes"/>
      <point x="270" y="500" type="line"/>
      <point x="6" y="67" type="line" smooth="yes"/>
      <point x="-11" y="40"/>
      <point x="11" y="9"/>
      <point x="55" y="-1" type="curve" smooth="yes"/>
      <point x="99" y="-12"/>
      <point x="148" y="2"/>
      <point x="164" y="29" type="curve" smooth="yes"/>
    </contour>
  </outline>
</glyph>
<glyph name="X" format="1">
  <advance width="823"/>
  <unicode hex="0058"/>
  <outline>
    <contour>
      <point x="344" y="339" type="line"/>
      <point x="526" y="26" type="line" smooth="yes"/>
      <point x="541" y="1"/>
      <point x="587" y="-8"/>
      <point x="631" y="6" type="curve" smooth="yes"/>
      <point x="674" y="20"/>
      <point x="698" y="51"/>
      <point x="684" y="75" type="curve" smooth="yes"/>
      <point x="437" y="500" type="line"/>
      <point x="684" y="925" type="line" smooth="yes"/>
      <point x="698" y="949"/>
      <point x="674" y="980"/>
      <point x="631" y="994" type="curve" smooth="yes"/>
      <point x="587" y="1008"/>
      <point x="541" y="999"/>
      <point x="526" y="974" type="curve" smooth="yes"/>
      <point x="344" y="661" type="line"/>
      <point x="162" y="974" type="line" smooth="yes"/>
      <point x="147" y="999"/>
      <point x="101" y="1008"/>
      <point x="57" y="994" type="curve" smooth="yes"/>
      <point x="14" y="980"/>
      <point x="-10" y="949"/>
      <point x="4" y="925" type="curve" smooth="yes"/>
      <point x="251" y="500" type="line"/>
      <point x="4" y="75" type="line" smooth="yes"/>
      <point x="-10" y="51"/>
      <point x="14" y="20"/>
      <point x="57" y="6" type="curve" smooth="yes"/>
      <point x="101" y="-8"/>
      <point x="147" y="1"/>
      <point x="162" y="26" type="curve" smooth="yes"/>
    </contour>
  </outline>
</glyph>
<glyph name="Latin_Capital_Letter_Y" format="1">
  <advance width="948"/>
  <unicode hex="0059"/>
  <outline>
    <contour>
      <point x="321" y="489" type="line"/>
      <point x="321" y="48" type="line" smooth="yes"/>
      <point x="321" y="19"/>
      <point x="359" y="-5"/>
      <point x="406" y="-5" type="curve" smooth="yes"/>
      <point x="453" y="-5"/>
      <point x="491" y="19"/>
      <point x="491" y="48" type="curve" smooth="yes"/>
      <point x="491" y="489" type="line"/>
      <point x="805" y="930" type="line" smooth="yes"/>
      <point x="824" y="957"/>
      <point x="805" y="988"/>
      <point x="762" y="1000" type="curve" smooth="yes"/>
      <point x="719" y="1012"/>
      <point x="669" y="1000"/>
      <point x="650" y="973" type="curve" smooth="yes"/>
      <point x="406" y="631" type="line"/>
      <point x="163" y="973" type="line" smooth="yes"/>
      <point x="144" y="1000"/>
      <point x="93" y="1012"/>
      <point x="50" y="1000" type="curve" smooth="yes"/>
      <point x="8" y="988"/>
      <point x="-12" y="957"/>
      <point x="7" y="930" type="curve" smooth="yes"/>
    </contour>
  </outline>
</glyph>
<glyph name="Y" format="1">
  <advance width="902"/>
  <unicode hex="0059"/>
  <outline>
    <contour>
      <point x="298" y="500" type="line"/>
      <point x="298" y="17" type="line" smooth="yes"/>
      <point x="298" y="5"/>
      <point x="336" y="-5"/>
      <point x="383" y="-5" type="curve" smooth="yes"/>
      <point x="430" y="-5"/>
      <point x="468" y="5"/>
      <point x="468" y="17" type="curve" smooth="yes"/>
      <point x="468" y="500" type="line"/>
      <point x="765" y="958" type="line" smooth="yes"/>
      <point x="772" y="969"/>
      <point x="741" y="985"/>
      <point x="696" y="996" type="curve" smooth="yes"/>
      <point x="651" y="1006"/>
      <point x="609" y="1005"/>
      <point x="603" y="995" type="curve" smooth="yes"/>
      <point x="383" y="638" type="line"/>
      <point x="164" y="994" type="line" smooth="yes"/>
      <point x="157" y="1005"/>
      <point x="115" y="1006"/>
      <point x="70" y="996" type="curve" smooth="yes"/>
      <point x="25" y="986"/>
      <point x="-6" y="969"/>
      <point x="1" y="958" type="curve" smooth="yes"/>
    </contour>
  </outline>
</glyph>
<glyph name="Z" format="1">
  <advance width="824"/>
  <unicode hex="005A"/>
  <outline>
    <contour>
      <point x="483" y="836" type="line"/>
      <point x="14" y="175" type="line"/>
      <point x="-3" y="142"/>
      <point x="-5" y="101"/>
      <point x="9" y="65" type="curve"/>
      <point x="9" y="65" type="line"/>
      <point x="23" y="30"/>
      <point x="48" y="9"/>
      <point x="78" y="9" type="curve" smooth="yes"/>
      <point x="630" y="6" type="line" smooth="yes"/>
      <point x="662" y="6"/>
      <point x="687" y="42"/>
      <point x="687" y="85" type="curve"/>
      <point x="687" y="85" type="line"/>
      <point x="687" y="128"/>
      <point x="662" y="164"/>
      <point x="630" y="164" type="curve" smooth="yes"/>
      <point x="206" y="164" type="line"/>
      <point x="675" y="825" type="line"/>
      <point x="692" y="858"/>
      <point x="694" y="899"/>
      <point x="680" y="935" type="curve"/>
      <point x="680" y="935" type="line"/>
      <point x="666" y="970"/>
      <point x="641" y="991"/>
      <point x="611" y="991" type="curve" smooth="yes"/>
      <point x="59" y="994" type="line" smooth="yes"/>
      <point x="28" y="994"/>
      <point x="2" y="958"/>
      <point x="2" y="915" type="curve"/>
      <point x="2" y="915" type="line"/>
      <point x="2" y="872"/>
      <point x="28" y="836"/>
      <point x="59" y="836" type="curve" smooth="yes"/>
    </contour>
  </outline>
</glyph>
<glyph name="bracketleft" format="1">
  <advance width="496"/>
  <unicode hex="005B"/>
  <outline>
    <contour>
      <point x="308" y="-100" type="line" smooth="yes"/>
      <point x="337" y="-100"/>
      <point x="361" y="-65"/>
      <point x="361" y="-21" type="curve" smooth="yes"/>
      <point x="361" y="22"/>
      <point x="337" y="57"/>
      <point x="308" y="57" type="curve" smooth="yes"/>
      <point x="151" y="57" type="line"/>
      <point x="151" y="943" type="line"/>
      <point x="308" y="943" type="line" smooth="yes"/>
      <point x="337" y="943"/>
      <point x="361" y="978"/>
      <point x="361" y="1021" type="curve" smooth="yes"/>
      <point x="361" y="1065"/>
      <point x="337" y="1100"/>
      <point x="308" y="1100" type="curve" smooth="yes"/>
      <point x="98" y="1100" type="line" smooth="yes"/>
      <point x="44" y="1100"/>
      <point x="0" y="1075"/>
      <point x="0" y="1043" type="curve" smooth="yes"/>
      <point x="0" y="-43" type="line" smooth="yes"/>
      <point x="0" y="-75"/>
      <point x="44" y="-100"/>
      <point x="98" y="-100" type="curve" smooth="yes"/>
    </contour>
  </outline>
</glyph>
<glyph name="backslash" format="1">
  <advance width="652"/>
  <unicode hex="005C"/>
  <outline>
    <contour>
      <point x="1" y="1022" type="curve" smooth="yes"/>
      <point x="357" y="-73" type="line" smooth="yes"/>
      <point x="366" y="-99"/>
      <point x="408" y="-109"/>
      <point x="451" y="-94" type="curve" smooth="yes"/>
      <point x="495" y="-80"/>
      <point x="523" y="-48"/>
      <point x="515" y="-22" type="curve" smooth="yes"/>
      <point x="159" y="1073" type="line" smooth="yes"/>
      <point x="151" y="1099"/>
      <point x="109" y="1109"/>
      <point x="65" y="1094" type="curve" smooth="yes"/>
      <point x="22" y="1080"/>
      <point x="-7" y="1048"/>
    </contour>
  </outline>
</glyph>
<glyph name="bracketright" format="1">
  <advance width="496"/>
  <unicode hex="005D"/>
  <outline>
    <contour>
      <point x="53" y="-100" type="curve" smooth="yes"/>
      <point x="263" y="-100" type="line" smooth="yes"/>
      <point x="317" y="-100"/>
      <point x="361" y="-75"/>
      <point x="361" y="-43" type="curve" smooth="yes"/>
      <point x="361" y="1043" type="line" smooth="yes"/>
      <point x="361" y="1075"/>
      <point x="317" y="1100"/>
      <point x="263" y="1100" type="curve" smooth="yes"/>
      <point x="53" y="1100" type="line" smooth="yes"/>
      <point x="24" y="1100"/>
      <point x="0" y="1065"/>
      <point x="0" y="1021" type="curve" smooth="yes"/>
      <point x="0" y="978"/>
      <point x="24" y="943"/>
      <point x="53" y="943" type="curve" smooth="yes"/>
      <point x="210" y="943" type="line"/>
      <point x="210" y="57" type="line"/>
      <point x="53" y="57" type="line" smooth="yes"/>
      <point x="24" y="57"/>
      <point x="0" y="22"/>
      <point x="0" y="-21" type="curve" smooth="yes"/>
      <point x="0" y="-65"/>
      <point x="24" y="-100"/>
    </contour>
  </outline>
</glyph>
<glyph name="asciicircum" format="1">
  <advance width="697"/>
  <unicode hex="005E"/>
  <outline>
    <contour>
      <point x="1" y="746" type="line"/>
      <point x="-1" y="743"/>
      <point x="0" y="736"/>
      <point x="6" y="728" type="curve"/>
      <point x="21" y="705"/>
      <point x="62" y="675"/>
      <point x="96" y="660" type="curve" smooth="yes"/>
      <point x="117" y="650"/>
      <point x="131" y="649"/>
      <point x="136" y="654" type="curve"/>
      <point x="281" y="843" type="line"/>
      <point x="426" y="654" type="line" smooth="yes"/>
      <point x="430" y="649"/>
      <point x="444" y="650"/>
      <point x="466" y="660" type="curve" smooth="yes"/>
      <point x="500" y="675"/>
      <point x="541" y="705"/>
      <point x="556" y="728" type="curve"/>
      <point x="562" y="736"/>
      <point x="563" y="743"/>
      <point x="561" y="746" type="curve"/>
      <point x="377" y="985" type="line" smooth="yes"/>
      <point x="368" y="996"/>
      <point x="329" y="1005"/>
      <point x="281" y="1005" type="curve" smooth="yes"/>
      <point x="233" y="1005"/>
      <point x="194" y="996"/>
      <point x="185" y="985" type="curve" smooth="yes"/>
    </contour>
  </outline>
</glyph>
<glyph name="underscore" format="1">
  <advance width="960"/>
  <unicode hex="005F"/>
  <outline>
    <contour>
      <point x="772" y="-199" type="line" smooth="yes"/>
      <point x="801" y="-199"/>
      <point x="825" y="-163"/>
      <point x="825" y="-120" type="curve" smooth="yes"/>
      <point x="825" y="-77"/>
      <point x="801" y="-41"/>
      <point x="772" y="-41" type="curve" smooth="yes"/>
      <point x="53" y="-41" type="line" smooth="yes"/>
      <point x="24" y="-41"/>
      <point x="0" y="-77"/>
      <point x="0" y="-120" type="curve" smooth="yes"/>
      <point x="0" y="-163"/>
      <point x="24" y="-199"/>
      <point x="53" y="-199" type="curve" smooth="yes"/>
    </contour>
  </outline>
</glyph>
<glyph name="grave" format="1">
  <advance width="385"/>
  <unicode hex="0060"/>
  <outline>
    <contour>
      <point x="111" y="1003" type="line" smooth="yes"/>
      <point x="106" y="1009"/>
      <point x="91" y="1001"/>
      <point x="70" y="983" type="curve"/>
      <point x="50" y="964"/>
      <point x="29" y="940"/>
      <point x="15" y="916" type="curve" smooth="yes"/>
      <point x="1" y="892"/>
      <point x="-4" y="876"/>
      <point x="3" y="872" type="curve" smooth="yes"/>
      <point x="174" y="765" type="line" smooth="yes"/>
      <point x="181" y="761"/>
      <point x="202" y="777"/>
      <point x="222" y="801" type="curve" smooth="yes"/>
      <point x="242" y="825"/>
      <point x="253" y="849"/>
      <point x="248" y="854" type="curve" smooth="yes"/>
    </contour>
  </outline>
</glyph>
<glyph name="b" format="1">
  <advance width="781"/>
  <unicode hex="0062"/>
  <outline>
    <contour>
      <point x="170" y="325" type="curve" smooth="yes"/>
      <point x="170" y="420"/>
      <point x="237" y="497"/>
      <point x="320" y="497" type="curve" smooth="yes"/>
      <point x="403" y="497"/>
      <point x="471" y="420"/>
      <point x="471" y="325" type="curve" smooth="yes"/>
      <point x="471" y="230"/>
      <point x="403" y="153"/>
      <point x="320" y="153" type="curve" smooth="yes"/>
      <point x="237" y="153"/>
      <point x="170" y="230"/>
    </contour>
    <contour>
      <point x="170" y="594" type="curve"/>
      <point x="170" y="983" type="line" smooth="yes"/>
      <point x="170" y="995"/>
      <point x="132" y="1005"/>
      <point x="85" y="1005" type="curve" smooth="yes"/>
      <point x="38" y="1005"/>
      <point x="0" y="995"/>
      <point x="0" y="983" type="curve" smooth="yes"/>
      <point x="0" y="17" type="line" smooth="yes"/>
      <point x="0" y="5"/>
      <point x="38" y="-5"/>
      <point x="85" y="-5" type="curve" smooth="yes"/>
      <point x="132" y="-5"/>
      <point x="170" y="5"/>
      <point x="170" y="17" type="curve" smooth="yes"/>
      <point x="170" y="56" type="line"/>
      <point x="212" y="18"/>
      <point x="264" y="-5"/>
      <point x="320" y="-5" type="curve" smooth="yes"/>
      <point x="500" y="-5"/>
      <point x="645" y="143"/>
      <point x="645" y="325" type="curve" smooth="yes"/>
      <point x="645" y="507"/>
      <point x="500" y="655"/>
      <point x="320" y="655" type="curve" smooth="yes"/>
      <point x="264" y="655"/>
      <point x="212" y="632"/>
    </contour>
  </outline>
</glyph>
<glyph name="f" format="1">
  <advance width="593"/>
  <unicode hex="0066"/>
  <outline>
    <contour>
      <point x="100" y="493" type="line"/>
      <point x="100" y="17" type="line" smooth="yes"/>
      <point x="100" y="5"/>
      <point x="139" y="-5"/>
      <point x="185" y="-5" type="curve" smooth="yes"/>
      <point x="232" y="-5"/>
      <point x="270" y="5"/>
      <point x="270" y="17" type="curve" smooth="yes"/>
      <point x="270" y="493" type="line"/>
      <point x="380" y="493" type="line" smooth="yes"/>
      <point x="393" y="493"/>
      <point x="403" y="528"/>
      <point x="403" y="571" type="curve" smooth="yes"/>
      <point x="403" y="615"/>
      <point x="393" y="650"/>
      <point x="380" y="650" type="curve" smooth="yes"/>
      <point x="270" y="650" type="line"/>
      <point x="270" y="769" type="line" smooth="yes"/>
      <point x="270" y="795"/>
      <point x="285" y="817"/>
      <point x="311" y="833" type="curve" smooth="yes"/>
      <point x="337" y="848"/>
      <point x="367" y="852"/>
      <point x="398" y="844" type="curve"/>
      <point x="410" y="840"/>
      <point x="431" y="870"/>
      <point x="445" y="911" type="curve" smooth="yes"/>
      <point x="460" y="952"/>
      <point x="462" y="989"/>
      <point x="451" y="993" type="curve"/>
      <point x="366" y="1017"/>
      <point x="282" y="1006"/>
      <point x="211" y="960" type="curve" smooth="yes"/>
      <point x="139" y="914"/>
      <point x="100" y="847"/>
      <point x="100" y="769" type="curve" smooth="yes"/>
      <point x="100" y="650" type="line"/>
      <point x="23" y="650" type="line" smooth="yes"/>
      <point x="10" y="650"/>
      <point x="0" y="615"/>
      <point x="0" y="571" type="curve" smooth="yes"/>
      <point x="0" y="528"/>
      <point x="10" y="493"/>
      <point x="23" y="493" type="curve" smooth="yes"/>
    </contour>
  </outline>
</glyph>
<glyph name="i" format="1">
  <advance width="305"/>
  <unicode hex="0069"/>
  <outline>
    <contour>
      <point x="170" y="633" type="line" smooth="yes"/>
      <point x="170" y="645"/>
      <point x="132" y="655"/>
      <point x="85" y="655" type="curve" smooth="yes"/>
      <point x="38" y="655"/>
      <point x="0" y="645"/>
      <point x="0" y="633" type="curve" smooth="yes"/>
      <point x="0" y="17" type="line" smooth="yes"/>
      <point x="0" y="5"/>
      <point x="38" y="-5"/>
      <point x="85" y="-5" type="curve" smooth="yes"/>
      <point x="132" y="-5"/>
      <point x="170" y="5"/>
      <point x="170" y="17" type="curve" smooth="yes"/>
    </contour>
    <contour>
      <point x="170" y="891" type="line" smooth="yes"/>
      <point x="170" y="902"/>
      <point x="132" y="912"/>
      <point x="85" y="912" type="curve" smooth="yes"/>
      <point x="38" y="912"/>
      <point x="0" y="902"/>
      <point x="0" y="891" type="curve" smooth="yes"/>
      <point x="0" y="776" type="line" smooth="yes"/>
      <point x="0" y="764"/>
      <point x="38" y="755"/>
      <point x="85" y="755" type="curve" smooth="yes"/>
      <point x="132" y="755"/>
      <point x="170" y="764"/>
      <point x="170" y="776" type="curve" smooth="yes"/>
    </contour>
  </outline>
</glyph>
<glyph name="j" format="1">
  <advance width="512"/>
  <unicode hex="006A"/>
  <outline>
    <contour>
      <point x="377" y="633" type="line" smooth="yes"/>
      <point x="377" y="645"/>
      <point x="339" y="655"/>
      <point x="292" y="655" type="curve" smooth="yes"/>
      <point x="245" y="655"/>
      <point x="207" y="645"/>
      <point x="207" y="633" type="curve" smooth="yes"/>
      <point x="207" y="-135" type="line" smooth="yes"/>
      <point x="207" y="-140"/>
      <point x="195" y="-145"/>
      <point x="176" y="-147" type="curve"/>
      <point x="157" y="-148"/>
      <point x="136" y="-147"/>
      <point x="121" y="-144" type="curve"/>
      <point x="112" y="-136"/>
      <point x="79" y="-153"/>
      <point x="47" y="-183" type="curve" smooth="yes"/>
      <point x="14" y="-214"/>
      <point x="-6" y="-245"/>
      <point x="2" y="-255" type="curve"/>
      <point x="66" y="-305"/>
      <point x="157" y="-319"/>
      <point x="241" y="-292" type="curve" smooth="yes"/>
      <point x="325" y="-265"/>
      <point x="377" y="-205"/>
      <point x="377" y="-135" type="curve" smooth="yes"/>
    </contour>
    <contour>
      <point x="377" y="891" type="line" smooth="yes"/>
      <point x="377" y="902"/>
      <point x="339" y="912"/>
      <point x="292" y="912" type="curve" smooth="yes"/>
      <point x="245" y="912"/>
      <point x="207" y="902"/>
      <point x="207" y="891" type="curve" smooth="yes"/>
      <point x="207" y="776" type="line" smooth="yes"/>
      <point x="207" y="764"/>
      <point x="245" y="755"/>
      <point x="292" y="755" type="curve" smooth="yes"/>
      <point x="339" y="755"/>
      <point x="377" y="764"/>
      <point x="377" y="776" type="curve" smooth="yes"/>
    </contour>
  </outline>
</glyph>
<glyph name="k" format="1">
  <advance width="729"/>
  <unicode hex="006B"/>
  <outline>
    <contour>
      <point x="0" y="17" type="line" smooth="yes"/>
      <point x="0" y="5"/>
      <point x="38" y="-5"/>
      <point x="85" y="-5" type="curve" smooth="yes"/>
      <point x="132" y="-5"/>
      <point x="170" y="5"/>
      <point x="170" y="17" type="curve" smooth="yes"/>
      <point x="170" y="189" type="line"/>
      <point x="248" y="253" type="line"/>
      <point x="466" y="-11" type="line" smooth="yes"/>
      <point x="473" y="-20"/>
      <point x="508" y="-4"/>
      <point x="542" y="24" type="curve" smooth="yes"/>
      <point x="576" y="53"/>
      <point x="598" y="83"/>
      <point x="591" y="93" type="curve"/>
      <point x="372" y="356" type="line"/>
      <point x="591" y="537" type="line" smooth="yes"/>
      <point x="597" y="542"/>
      <point x="593" y="557"/>
      <point x="580" y="580" type="curve"/>
      <point x="566" y="602"/>
      <point x="548" y="624"/>
      <point x="529" y="641" type="curve" smooth="yes"/>
      <point x="509" y="658"/>
      <point x="495" y="665"/>
      <point x="488" y="660" type="curve"/>
      <point x="170" y="397" type="line"/>
      <point x="170" y="983" type="line" smooth="yes"/>
      <point x="170" y="995"/>
      <point x="132" y="1005"/>
      <point x="85" y="1005" type="curve" smooth="yes"/>
      <point x="38" y="1005"/>
      <point x="0" y="995"/>
      <point x="0" y="983" type="curve" smooth="yes"/>
    </contour>
  </outline>
</glyph>
<glyph name="n" format="1">
  <advance width="707"/>
  <unicode hex="006E"/>
  <outline>
    <contour>
      <point x="0" y="17" type="line" smooth="yes"/>
      <point x="0" y="5"/>
      <point x="38" y="-5"/>
      <point x="85" y="-5" type="curve" smooth="yes"/>
      <point x="132" y="-5"/>
      <point x="170" y="5"/>
      <point x="170" y="17" type="curve" smooth="yes"/>
      <point x="170" y="455" type="line"/>
      <point x="170" y="455"/>
      <point x="245" y="514"/>
      <point x="337" y="514" type="curve" smooth="yes"/>
      <point x="373" y="514"/>
      <point x="402" y="487"/>
      <point x="402" y="455" type="curve" smooth="yes"/>
      <point x="402" y="17" type="line" smooth="yes"/>
      <point x="402" y="5"/>
      <point x="440" y="-5"/>
      <point x="487" y="-5" type="curve" smooth="yes"/>
      <point x="534" y="-5"/>
      <point x="572" y="5"/>
      <point x="572" y="17" type="curve" smooth="yes"/>
      <point x="572" y="455" type="line" smooth="yes"/>
      <point x="572" y="563"/>
      <point x="475" y="650"/>
      <point x="355" y="650" type="curve" smooth="yes"/>
      <point x="286" y="650"/>
      <point x="222" y="628"/>
      <point x="170" y="599" type="curve"/>
      <point x="170" y="633" type="line" smooth="yes"/>
      <point x="170" y="645"/>
      <point x="132" y="655"/>
      <point x="85" y="655" type="curve" smooth="yes"/>
      <point x="38" y="655"/>
      <point x="0" y="645"/>
      <point x="0" y="633" type="curve" smooth="yes"/>
    </contour>
  </outline>
</glyph>
<glyph name="o" format="1">
  <advance width="785"/>
  <unicode hex="006F"/>
  <outline>
    <contour>
      <point x="0" y="325" type="curve" smooth="yes"/>
      <point x="0" y="143"/>
      <point x="146" y="-5"/>
      <point x="325" y="-5" type="curve" smooth="yes"/>
      <point x="504" y="-5"/>
      <point x="650" y="143"/>
      <point x="650" y="325" type="curve" smooth="yes"/>
      <point x="650" y="507"/>
      <point x="504" y="655"/>
      <point x="325" y="655" type="curve" smooth="yes"/>
      <point x="146" y="655"/>
      <point x="0" y="507"/>
    </contour>
    <contour>
      <point x="175" y="325" type="curve" smooth="yes"/>
      <point x="175" y="420"/>
      <point x="242" y="497"/>
      <point x="325" y="497" type="curve" smooth="yes"/>
      <point x="408" y="497"/>
      <point x="475" y="420"/>
      <point x="475" y="325" type="curve" smooth="yes"/>
      <point x="475" y="230"/>
      <point x="408" y="153"/>
      <point x="325" y="153" type="curve" smooth="yes"/>
      <point x="242" y="153"/>
      <point x="175" y="230"/>
    </contour>
  </outline>
</glyph>
<glyph name="q" format="1">
  <advance width="781"/>
  <unicode hex="0071"/>
  <outline>
    <contour>
      <point x="475" y="325" type="curve" smooth="yes"/>
      <point x="475" y="230"/>
      <point x="408" y="153"/>
      <point x="325" y="153" type="curve" smooth="yes"/>
      <point x="242" y="153"/>
      <point x="175" y="230"/>
      <point x="175" y="325" type="curve" smooth="yes"/>
      <point x="175" y="420"/>
      <point x="242" y="497"/>
      <point x="325" y="497" type="curve" smooth="yes"/>
      <point x="408" y="497"/>
      <point x="475" y="420"/>
    </contour>
    <contour>
      <point x="475" y="56" type="curve"/>
      <point x="475" y="-283" type="line" smooth="yes"/>
      <point x="475" y="-295"/>
      <point x="513" y="-305"/>
      <point x="560" y="-305" type="curve" smooth="yes"/>
      <point x="607" y="-305"/>
      <point x="645" y="-295"/>
      <point x="645" y="-283" type="curve" smooth="yes"/>
      <point x="645" y="633" type="line" smooth="yes"/>
      <point x="645" y="645"/>
      <point x="607" y="655"/>
      <point x="560" y="655" type="curve" smooth="yes"/>
      <point x="513" y="655"/>
      <point x="475" y="645"/>
      <point x="475" y="633" type="curve" smooth="yes"/>
      <point x="475" y="594" type="line"/>
      <point x="433" y="632"/>
      <point x="381" y="655"/>
      <point x="325" y="655" type="curve" smooth="yes"/>
      <point x="146" y="655"/>
      <point x="0" y="507"/>
      <point x="0" y="325" type="curve" smooth="yes"/>
      <point x="0" y="143"/>
      <point x="146" y="-5"/>
      <point x="325" y="-5" type="curve" smooth="yes"/>
      <point x="381" y="-5"/>
      <point x="433" y="18"/>
    </contour>
  </outline>
</glyph>
<glyph name="r" format="1">
  <advance width="498"/>
  <unicode hex="0072"/>
  <outline>
    <contour>
      <point x="0" y="17" type="line" smooth="yes"/>
      <point x="0" y="5"/>
      <point x="38" y="-5"/>
      <point x="85" y="-5" type="curve" smooth="yes"/>
      <point x="132" y="-5"/>
      <point x="170" y="5"/>
      <point x="170" y="17" type="curve" smooth="yes"/>
      <point x="170" y="382" type="line" smooth="yes"/>
      <point x="170" y="443"/>
      <point x="246" y="493"/>
      <point x="340" y="493" type="curve" smooth="yes"/>
      <point x="353" y="493"/>
      <point x="363" y="528"/>
      <point x="363" y="571" type="curve" smooth="yes"/>
      <point x="363" y="615"/>
      <point x="353" y="650"/>
      <point x="340" y="650" type="curve" smooth="yes"/>
      <point x="246" y="650"/>
      <point x="170" y="601"/>
      <point x="170" y="540" type="curve"/>
      <point x="170" y="633" type="line" smooth="yes"/>
      <point x="170" y="645"/>
      <point x="132" y="655"/>
      <point x="85" y="655" type="curve" smooth="yes"/>
      <point x="38" y="655"/>
      <point x="0" y="645"/>
      <point x="0" y="633" type="curve" smooth="yes"/>
    </contour>
  </outline>
</glyph>
<glyph name="t" format="1">
  <advance width="539"/>
  <unicode hex="0074"/>
  <outline>
    <contour>
      <point x="100" y="650" type="line"/>
      <point x="23" y="650" type="line" smooth="yes"/>
      <point x="10" y="650"/>
      <point x="0" y="615"/>
      <point x="0" y="571" type="curve" smooth="yes"/>
      <point x="0" y="528"/>
      <point x="10" y="493"/>
      <point x="23" y="493" type="curve" smooth="yes"/>
      <point x="100" y="493" type="line"/>
      <point x="100" y="183" type="line" smooth="yes"/>
      <point x="100" y="121"/>
      <point x="130" y="68"/>
      <point x="184" y="31" type="curve" smooth="yes"/>
      <point x="238" y="-5"/>
      <point x="302" y="-15"/>
      <point x="366" y="5" type="curve" smooth="yes"/>
      <point x="377" y="9"/>
      <point x="375" y="45"/>
      <point x="360" y="87" type="curve" smooth="yes"/>
      <point x="346" y="128"/>
      <point x="325" y="158"/>
      <point x="313" y="154" type="curve" smooth="yes"/>
      <point x="303" y="151"/>
      <point x="293" y="152"/>
      <point x="284" y="158" type="curve" smooth="yes"/>
      <point x="275" y="164"/>
      <point x="270" y="173"/>
      <point x="270" y="183" type="curve" smooth="yes"/>
      <point x="270" y="493" type="line"/>
      <point x="380" y="493" type="line" smooth="yes"/>
      <point x="393" y="493"/>
      <point x="403" y="528"/>
      <point x="403" y="571" type="curve" smooth="yes"/>
      <point x="403" y="615"/>
      <point x="393" y="650"/>
      <point x="380" y="650" type="curve" smooth="yes"/>
      <point x="270" y="650" type="line"/>
      <point x="270" y="828" type="line" smooth="yes"/>
      <point x="270" y="840"/>
      <point x="232" y="850"/>
      <point x="185" y="850" type="curve" smooth="yes"/>
      <point x="139" y="850"/>
      <point x="100" y="840"/>
      <point x="100" y="828" type="curve" smooth="yes"/>
    </contour>
  </outline>
</glyph>
<glyph name="u" format="1">
  <advance width="707"/>
  <unicode hex="0075"/>
  <outline>
    <contour>
      <point x="572" y="633" type="line" smooth="yes"/>
      <point x="572" y="645"/>
      <point x="534" y="655"/>
      <point x="487" y="655" type="curve" smooth="yes"/>
      <point x="440" y="655"/>
      <point x="402" y="645"/>
      <point x="402" y="633" type="curve" smooth="yes"/>
      <point x="402" y="195" type="line"/>
      <point x="402" y="195"/>
      <point x="327" y="137"/>
      <point x="235" y="137" type="curve" smooth="yes"/>
      <point x="199" y="137"/>
      <point x="170" y="163"/>
      <point x="170" y="195" type="curve" smooth="yes"/>
      <point x="170" y="633" type="line" smooth="yes"/>
      <point x="170" y="645"/>
      <point x="132" y="655"/>
      <point x="85" y="655" type="curve" smooth="yes"/>
      <point x="38" y="655"/>
      <point x="0" y="645"/>
      <point x="0" y="633" type="curve" smooth="yes"/>
      <point x="0" y="195" type="line" smooth="yes"/>
      <point x="0" y="87"/>
      <point x="97" y="0"/>
      <point x="217" y="0" type="curve" smooth="yes"/>
      <point x="286" y="0"/>
      <point x="350" y="22"/>
      <point x="402" y="51" type="curve"/>
      <point x="402" y="17" type="line" smooth="yes"/>
      <point x="402" y="5"/>
      <point x="440" y="-5"/>
      <point x="487" y="-5" type="curve" smooth="yes"/>
      <point x="534" y="-5"/>
      <point x="572" y="5"/>
      <point x="572" y="17" type="curve" smooth="yes"/>
    </contour>
  </outline>
</glyph>
<glyph name="v" format="1">
  <advance width="750"/>
  <unicode hex="0076"/>
  <outline>
    <contour>
      <point x="211" y="15" type="line"/>
      <point x="219" y="3"/>
      <point x="257" y="-5"/>
      <point x="303" y="-5" type="curve" smooth="yes"/>
      <point x="349" y="-5"/>
      <point x="387" y="3"/>
      <point x="395" y="14" type="curve"/>
      <point x="615" y="621" type="line" smooth="yes"/>
      <point x="619" y="632"/>
      <point x="585" y="647"/>
      <point x="539" y="653" type="curve" smooth="yes"/>
      <point x="493" y="659"/>
      <point x="452" y="655"/>
      <point x="448" y="644" type="curve" smooth="yes"/>
      <point x="305" y="221" type="line"/>
      <point x="167" y="644" type="line" smooth="yes"/>
      <point x="163" y="655"/>
      <point x="123" y="659"/>
      <point x="77" y="653" type="curve" smooth="yes"/>
      <point x="30" y="647"/>
      <point x="-4" y="633"/>
      <point x="0" y="621" type="curve" smooth="yes"/>
    </contour>
  </outline>
</glyph>
<glyph name="x" format="1">
  <advance width="750"/>
  <unicode hex="0078"/>
  <outline>
    <contour>
      <point x="307" y="205" type="line"/>
      <point x="446" y="13" type="line" smooth="yes"/>
      <point x="454" y="1"/>
      <point x="498" y="-6"/>
      <point x="544" y="-4" type="curve" smooth="yes"/>
      <point x="591" y="-2"/>
      <point x="621" y="9"/>
      <point x="613" y="20" type="curve" smooth="yes"/>
      <point x="394" y="325" type="line"/>
      <point x="613" y="630" type="line" smooth="yes"/>
      <point x="621" y="641"/>
      <point x="591" y="652"/>
      <point x="544" y="654" type="curve" smooth="yes"/>
      <point x="498" y="656"/>
      <point x="454" y="649"/>
      <point x="446" y="637" type="curve" smooth="yes"/>
      <point x="307" y="445" type="line"/>
      <point x="169" y="637" type="line" smooth="yes"/>
      <point x="160" y="649"/>
      <point x="116" y="656"/>
      <point x="70" y="654" type="curve" smooth="yes"/>
      <point x="24" y="652"/>
      <point x="-7" y="641"/>
      <point x="1" y="630" type="curve" smooth="yes"/>
      <point x="221" y="325" type="line"/>
      <point x="1" y="20" type="line" smooth="yes"/>
      <point x="-4" y="13"/>
      <point x="6" y="5"/>
      <point x="30" y="0" type="curve" smooth="yes"/>
      <point x="54" y="-5"/>
      <point x="84" y="-6"/>
      <point x="114" y="-3" type="curve" smooth="yes"/>
      <point x="143" y="-1"/>
      <point x="163" y="5"/>
      <point x="169" y="13" type="curve" smooth="yes"/>
    </contour>
  </outline>
</glyph>
<glyph name="y" format="1">
  <advance width="743"/>
  <unicode hex="0079"/>
  <outline>
    <contour>
      <point x="78" y="-262" type="line" smooth="yes"/>
      <point x="73" y="-273"/>
      <point x="106" y="-290"/>
      <point x="151" y="-301" type="curve" smooth="yes"/>
      <point x="196" y="-311"/>
      <point x="236" y="-311"/>
      <point x="241" y="-299" type="curve" smooth="yes"/>
      <point x="607" y="612" type="line" smooth="yes"/>
      <point x="610" y="619"/>
      <point x="598" y="629"/>
      <point x="574" y="638" type="curve" smooth="yes"/>
      <point x="549" y="648"/>
      <point x="520" y="655"/>
      <point x="492" y="657" type="curve" smooth="yes"/>
      <point x="465" y="660"/>
      <point x="448" y="657"/>
      <point x="445" y="649" type="curve" smooth="yes"/>
      <point x="304" y="300" type="line"/>
      <point x="163" y="649" type="line"/>
      <point x="159" y="661"/>
      <point x="119" y="661"/>
      <point x="74" y="651" type="curve" smooth="yes"/>
      <point x="29" y="640"/>
      <point x="-4" y="623"/>
      <point x="0" y="612" type="curve" smooth="yes"/>
      <point x="215" y="79" type="line"/>
    </contour>
  </outline>
</glyph>
<glyph name="braceleft" format="1">
  <advance width="587"/>
  <unicode hex="007B"/>
  <outline>
    <contour>
      <point x="161" y="500" type="curve"/>
      <point x="223" y="529"/>
      <point x="271" y="583"/>
      <point x="271" y="660" type="curve" smooth="yes"/>
      <point x="271" y="816" type="line" smooth="yes"/>
      <point x="271" y="886"/>
      <point x="328" y="943"/>
      <point x="398" y="943" type="curve" smooth="yes"/>
      <point x="427" y="943"/>
      <point x="451" y="978"/>
      <point x="451" y="1021" type="curve" smooth="yes"/>
      <point x="451" y="1065"/>
      <point x="427" y="1100"/>
      <point x="398" y="1100" type="curve" smooth="yes"/>
      <point x="241" y="1100"/>
      <point x="135" y="961"/>
      <point x="135" y="816" type="curve" smooth="yes"/>
      <point x="135" y="660" type="line" smooth="yes"/>
      <point x="135" y="615"/>
      <point x="98" y="579"/>
      <point x="53" y="579" type="curve" smooth="yes"/>
      <point x="24" y="579"/>
      <point x="0" y="543"/>
      <point x="0" y="500" type="curve" smooth="yes"/>
      <point x="0" y="457"/>
      <point x="24" y="421"/>
      <point x="53" y="421" type="curve" smooth="yes"/>
      <point x="98" y="421"/>
      <point x="135" y="385"/>
      <point x="135" y="340" type="curve" smooth="yes"/>
      <point x="135" y="184" type="line" smooth="yes"/>
      <point x="135" y="39"/>
      <point x="241" y="-100"/>
      <point x="398" y="-100" type="curve" smooth="yes"/>
      <point x="427" y="-100"/>
      <point x="451" y="-65"/>
      <point x="451" y="-21" type="curve" smooth="yes"/>
      <point x="451" y="22"/>
      <point x="427" y="57"/>
      <point x="398" y="57" type="curve" smooth="yes"/>
      <point x="328" y="57"/>
      <point x="271" y="114"/>
      <point x="271" y="184" type="curve" smooth="yes"/>
      <point x="271" y="340" type="line" smooth="yes"/>
      <point x="271" y="417"/>
      <point x="223" y="471"/>
    </contour>
  </outline>
</glyph>
<glyph name="bar" format="1">
  <advance width="305"/>
  <unicode hex="007C"/>
  <outline>
    <contour>
      <point x="170" y="1055" type="line" smooth="yes"/>
      <point x="170" y="1083"/>
      <point x="132" y="1105"/>
      <point x="85" y="1105" type="curve" smooth="yes"/>
      <point x="38" y="1105"/>
      <point x="0" y="1083"/>
      <point x="0" y="1055" type="curve" smooth="yes"/>
      <point x="0" y="-55" type="line" smooth="yes"/>
      <point x="0" y="-83"/>
      <point x="38" y="-105"/>
      <point x="85" y="-105" type="curve" smooth="yes"/>
      <point x="132" y="-105"/>
      <point x="170" y="-83"/>
      <point x="170" y="-55" type="curve" smooth="yes"/>
    </contour>
  </outline>
</glyph>
<glyph name="braceright" format="1">
  <advance width="587"/>
  <unicode hex="007D"/>
  <outline>
    <contour>
      <point x="290" y="500" type="curve"/>
      <point x="229" y="471"/>
      <point x="180" y="417"/>
      <point x="180" y="340" type="curve" smooth="yes"/>
      <point x="180" y="184" type="line" smooth="yes"/>
      <point x="180" y="114"/>
      <point x="123" y="57"/>
      <point x="53" y="57" type="curve" smooth="yes"/>
      <point x="24" y="57"/>
      <point x="0" y="22"/>
      <point x="0" y="-21" type="curve" smooth="yes"/>
      <point x="0" y="-65"/>
      <point x="24" y="-100"/>
      <point x="53" y="-100" type="curve" smooth="yes"/>
      <point x="210" y="-100"/>
      <point x="316" y="39"/>
      <point x="316" y="184" type="curve" smooth="yes"/>
      <point x="316" y="340" type="line" smooth="yes"/>
      <point x="316" y="385"/>
      <point x="353" y="421"/>
      <point x="398" y="421" type="curve" smooth="yes"/>
      <point x="427" y="421"/>
      <point x="451" y="457"/>
      <point x="451" y="500" type="curve" smooth="yes"/>
      <point x="451" y="543"/>
      <point x="427" y="579"/>
      <point x="398" y="579" type="curve" smooth="yes"/>
      <point x="353" y="579"/>
      <point x="316" y="615"/>
      <point x="316" y="660" type="curve" smooth="yes"/>
      <point x="316" y="816" type="line" smooth="yes"/>
      <point x="316" y="961"/>
      <point x="210" y="1100"/>
      <point x="53" y="1100" type="curve" smooth="yes"/>
      <point x="24" y="1100"/>
      <point x="0" y="1065"/>
      <point x="0" y="1021" type="curve" smooth="yes"/>
      <point x="0" y="978"/>
      <point x="24" y="943"/>
      <point x="53" y="943" type="curve" smooth="yes"/>
      <point x="123" y="943"/>
      <point x="180" y="886"/>
      <point x="180" y="816" type="curve" smooth="yes"/>
      <point x="180" y="660" type="line" smooth="yes"/>
      <point x="180" y="583"/>
      <point x="229" y="529"/>
    </contour>
  </outline>
</glyph>
<glyph name="asciitilde" format="1">
  <advance width="688"/>
  <unicode hex="007E"/>
  <outline>
    <contour>
      <point x="127" y="451" type="curve" smooth="yes"/>
      <point x="154" y="501"/>
      <point x="216" y="455"/>
      <point x="239" y="443" type="curve" smooth="yes"/>
      <point x="336" y="390"/>
      <point x="484" y="383"/>
      <point x="549" y="501" type="curve" smooth="yes"/>
      <point x="556" y="515"/>
      <point x="552" y="533"/>
      <point x="536" y="551" type="curve" smooth="yes"/>
      <point x="520" y="568"/>
      <point x="498" y="581"/>
      <point x="474" y="584" type="curve" smooth="yes"/>
      <point x="451" y="588"/>
      <point x="433" y="583"/>
      <point x="425" y="569" type="curve" smooth="yes"/>
      <point x="398" y="519"/>
      <point x="336" y="565"/>
      <point x="313" y="577" type="curve" smooth="yes"/>
      <point x="216" y="630"/>
      <point x="68" y="637"/>
      <point x="3" y="519" type="curve" smooth="yes"/>
      <point x="-8" y="498"/>
      <point x="10" y="466"/>
      <point x="44" y="447" type="curve" smooth="yes"/>
      <point x="79" y="429"/>
      <point x="115" y="430"/>
    </contour>
  </outline>
</glyph>
<glyph name="exclamdown" format="1">
  <advance width="317"/>
  <unicode hex="00A1"/>
  <outline>
    <contour>
      <point x="182" y="856" type="curve" smooth="yes"/>
      <point x="182" y="982" type="line" smooth="yes"/>
      <point x="182" y="995"/>
      <point x="141" y="1005"/>
      <point x="91" y="1005" type="curve" smooth="yes"/>
      <point x="41" y="1005"/>
      <point x="0" y="995"/>
      <point x="0" y="982" type="curve" smooth="yes"/>
      <point x="0" y="856" type="line" smooth="yes"/>
      <point x="0" y="844"/>
      <point x="41" y="833"/>
      <point x="91" y="833" type="curve" smooth="yes"/>
      <point x="141" y="833"/>
      <point x="182" y="844"/>
    </contour>
    <contour>
      <point x="182" y="18" type="curve" smooth="yes"/>
      <point x="170" y="684" type="line" smooth="yes"/>
      <point x="170" y="695"/>
      <point x="135" y="703"/>
      <point x="91" y="703" type="curve" smooth="yes"/>
      <point x="47" y="703"/>
      <point x="12" y="695"/>
      <point x="12" y="684" type="curve" smooth="yes"/>
      <point x="0" y="18" type="line" smooth="yes"/>
      <point x="0" y="5"/>
      <point x="41" y="-5"/>
      <point x="91" y="-5" type="curve" smooth="yes"/>
      <point x="141" y="-5"/>
      <point x="182" y="5"/>
    </contour>
  </outline>
</glyph>
<glyph name="dieresis" format="1">
  <advance width="616"/>
  <unicode hex="00A8"/>
  <outline>
    <contour>
      <point x="170" y="955" type="line" smooth="yes"/>
      <point x="170" y="983"/>
      <point x="132" y="1005"/>
      <point x="85" y="1005" type="curve" smooth="yes"/>
      <point x="38" y="1005"/>
      <point x="0" y="983"/>
      <point x="0" y="955" type="curve" smooth="yes"/>
      <point x="0" y="897" type="line" smooth="yes"/>
      <point x="0" y="870"/>
      <point x="38" y="847"/>
      <point x="85" y="847" type="curve" smooth="yes"/>
      <point x="132" y="847"/>
      <point x="170" y="870"/>
      <point x="170" y="897" type="curve" smooth="yes"/>
    </contour>
    <contour>
      <point x="480" y="955" type="line" smooth="yes"/>
      <point x="480" y="983"/>
      <point x="442" y="1005"/>
      <point x="395" y="1005" type="curve" smooth="yes"/>
      <point x="348" y="1005"/>
      <point x="310" y="983"/>
      <point x="310" y="955" type="curve" smooth="yes"/>
      <point x="310" y="897" type="line" smooth="yes"/>
      <point x="310" y="870"/>
      <point x="348" y="847"/>
      <point x="395" y="847" type="curve" smooth="yes"/>
      <point x="442" y="847"/>
      <point x="480" y="870"/>
      <point x="480" y="897" type="curve" smooth="yes"/>
    </contour>
  </outline>
</glyph>
<glyph name="macron" format="1">
  <advance width="635"/>
  <unicode hex="00AF"/>
  <outline>
    <contour>
      <point x="477" y="818" type="line" smooth="yes"/>
      <point x="490" y="818"/>
      <point x="500" y="853"/>
      <point x="500" y="896" type="curve" smooth="yes"/>
      <point x="500" y="940"/>
      <point x="490" y="975"/>
      <point x="477" y="975" type="curve" smooth="yes"/>
      <point x="23" y="975" type="line" smooth="yes"/>
      <point x="10" y="975"/>
      <point x="0" y="940"/>
      <point x="0" y="896" type="curve" smooth="yes"/>
      <point x="0" y="853"/>
      <point x="10" y="818"/>
      <point x="23" y="818" type="curve" smooth="yes"/>
    </contour>
  </outline>
</glyph>
<glyph name="acute" format="1">
  <advance width="385"/>
  <unicode hex="00B4"/>
  <outline>
    <contour>
      <point x="138" y="1003" type="curve" smooth="yes"/>
      <point x="1" y="854" type="line" smooth="yes"/>
      <point x="-4" y="849"/>
      <point x="7" y="825"/>
      <point x="27" y="801" type="curve" smooth="yes"/>
      <point x="47" y="777"/>
      <point x="68" y="761"/>
      <point x="75" y="765" type="curve" smooth="yes"/>
      <point x="246" y="872" type="line" smooth="yes"/>
      <point x="253" y="876"/>
      <point x="249" y="892"/>
      <point x="234" y="916" type="curve" smooth="yes"/>
      <point x="220" y="940"/>
      <point x="200" y="964"/>
      <point x="179" y="983" type="curve" smooth="yes"/>
      <point x="158" y="1001"/>
      <point x="143" y="1009"/>
    </contour>
  </outline>
</glyph>
<glyph name="periodcentered" format="1">
  <advance width="322"/>
  <unicode hex="00B7"/>
  <outline>
    <contour>
      <point x="187" y="537" type="line" smooth="yes"/>
      <point x="187" y="567"/>
      <point x="145" y="591"/>
      <point x="94" y="591" type="curve" smooth="yes"/>
      <point x="42" y="591"/>
      <point x="0" y="567"/>
      <point x="0" y="537" type="curve" smooth="yes"/>
      <point x="0" y="463" type="line" smooth="yes"/>
      <point x="0" y="433"/>
      <point x="42" y="409"/>
      <point x="94" y="409" type="curve" smooth="yes"/>
      <point x="145" y="409"/>
      <point x="187" y="433"/>
      <point x="187" y="463" type="curve" smooth="yes"/>
    </contour>
  </outline>
</glyph>
<glyph name="Agrave" format="1">
  <advance width="993"/>
  <unicode hex="00C0"/>
  <outline>
    <contour>
      <point x="301" y="399" type="line"/>
      <point x="429" y="746" type="line"/>
      <point x="556" y="399" type="line"/>
    </contour>
    <contour>
      <point x="689" y="34" type="line" smooth="yes"/>
      <point x="699" y="8"/>
      <point x="744" y="-9"/>
      <point x="790" y="-4" type="curve" smooth="yes"/>
      <point x="836" y="2"/>
      <point x="865" y="28"/>
      <point x="856" y="55" type="curve" smooth="yes"/>
      <point x="524" y="960" type="line" smooth="yes"/>
      <point x="515" y="986"/>
      <point x="475" y="1005"/>
      <point x="429" y="1005" type="curve" smooth="yes"/>
      <point x="382" y="1005"/>
      <point x="343" y="986"/>
      <point x="333" y="960" type="curve" smooth="yes"/>
      <point x="2" y="55" type="line" smooth="yes"/>
      <point x="-8" y="28"/>
      <point x="21" y="2"/>
      <point x="67" y="-4" type="curve" smooth="yes"/>
      <point x="113" y="-9"/>
      <point x="158" y="8"/>
      <point x="168" y="34" type="curve" smooth="yes"/>
      <point x="244" y="241" type="line"/>
      <point x="613" y="241" type="line"/>
    </contour>
    <contour>
      <point x="356" y="1321" type="line" smooth="yes"/>
      <point x="343" y="1335"/>
      <point x="320" y="1334"/>
      <point x="295" y="1319" type="curve" smooth="yes"/>
      <point x="269" y="1304"/>
      <point x="248" y="1278"/>
      <point x="238" y="1250" type="curve" smooth="yes"/>
      <point x="228" y="1223"/>
      <point x="231" y="1200"/>
      <point x="248" y="1190" type="curve" smooth="yes"/>
      <point x="418" y="1084" type="line" smooth="yes"/>
      <point x="433" y="1075"/>
      <point x="459" y="1086"/>
      <point x="479" y="1109" type="curve" smooth="yes"/>
      <point x="498" y="1132"/>
      <point x="504" y="1160"/>
      <point x="492" y="1173" type="curve" smooth="yes"/>
    </contour>
  </outline>
</glyph>
<glyph name="Aacute" format="1">
  <advance width="993"/>
  <unicode hex="00C1"/>
  <outline>
    <contour>
      <point x="301" y="399" type="line"/>
      <point x="429" y="769" type="line"/>
      <point x="556" y="399" type="line"/>
    </contour>
    <contour>
      <point x="688" y="15" type="line" smooth="yes"/>
      <point x="692" y="3"/>
      <point x="733" y="-6"/>
      <point x="780" y="-5" type="curve" smooth="yes"/>
      <point x="826" y="-4"/>
      <point x="861" y="7"/>
      <point x="857" y="18" type="curve" smooth="yes"/>
      <point x="526" y="982" type="line" smooth="yes"/>
      <point x="522" y="995"/>
      <point x="480" y="1005"/>
      <point x="429" y="1005" type="curve" smooth="yes"/>
      <point x="378" y="1005"/>
      <point x="336" y="995"/>
      <point x="331" y="982" type="curve" smooth="yes"/>
      <point x="0" y="18" type="line" smooth="yes"/>
      <point x="-4" y="7"/>
      <point x="31" y="-4"/>
      <point x="78" y="-5" type="curve" smooth="yes"/>
      <point x="124" y="-6"/>
      <point x="166" y="3"/>
      <point x="170" y="15" type="curve" smooth="yes"/>
      <point x="248" y="241" type="line"/>
      <point x="610" y="241" type="line"/>
    </contour>
    <contour>
      <point x="508" y="1321" type="curve"/>
      <point x="371" y="1173" type="line"/>
      <point x="366" y="1167"/>
      <point x="378" y="1144"/>
      <point x="397" y="1119" type="curve" smooth="yes"/>
      <point x="417" y="1095"/>
      <point x="438" y="1080"/>
      <point x="445" y="1084" type="curve" smooth="yes"/>
      <point x="616" y="1190" type="line"/>
      <point x="623" y="1195"/>
      <point x="619" y="1211"/>
      <point x="604" y="1234" type="curve" smooth="yes"/>
      <point x="590" y="1258"/>
      <point x="570" y="1283"/>
      <point x="549" y="1301" type="curve" smooth="yes"/>
      <point x="528" y="1320"/>
      <point x="513" y="1327"/>
    </contour>
  </outline>
</glyph>
<glyph name="Acircumflex" format="1">
  <advance width="993"/>
  <unicode hex="00C2"/>
  <outline>
    <contour>
      <point x="301" y="399" type="line"/>
      <point x="429" y="746" type="line"/>
      <point x="556" y="399" type="line"/>
    </contour>
    <contour>
      <point x="689" y="34" type="line" smooth="yes"/>
      <point x="699" y="8"/>
      <point x="744" y="-9"/>
      <point x="790" y="-4" type="curve" smooth="yes"/>
      <point x="836" y="2"/>
      <point x="865" y="28"/>
      <point x="856" y="55" type="curve" smooth="yes"/>
      <point x="524" y="960" type="line" smooth="yes"/>
      <point x="515" y="986"/>
      <point x="475" y="1005"/>
      <point x="429" y="1005" type="curve" smooth="yes"/>
      <point x="382" y="1005"/>
      <point x="343" y="986"/>
      <point x="333" y="960" type="curve" smooth="yes"/>
      <point x="2" y="55" type="line" smooth="yes"/>
      <point x="-8" y="28"/>
      <point x="21" y="2"/>
      <point x="67" y="-4" type="curve" smooth="yes"/>
      <point x="113" y="-9"/>
      <point x="158" y="8"/>
      <point x="168" y="34" type="curve" smooth="yes"/>
      <point x="244" y="241" type="line"/>
      <point x="613" y="241" type="line"/>
    </contour>
    <contour>
      <point x="211" y="1195" type="line" smooth="yes"/>
      <point x="203" y="1187"/>
      <point x="200" y="1173"/>
      <point x="204" y="1157" type="curve" smooth="yes"/>
      <point x="212" y="1123"/>
      <point x="249" y="1088"/>
      <point x="287" y="1079" type="curve" smooth="yes"/>
      <point x="307" y="1075"/>
      <point x="324" y="1079"/>
      <point x="333" y="1089" type="curve" smooth="yes"/>
      <point x="429" y="1192" type="line"/>
      <point x="524" y="1089" type="line" smooth="yes"/>
      <point x="534" y="1079"/>
      <point x="550" y="1075"/>
      <point x="570" y="1079" type="curve" smooth="yes"/>
      <point x="608" y="1088"/>
      <point x="645" y="1123"/>
      <point x="654" y="1157" type="curve" smooth="yes"/>
      <point x="658" y="1173"/>
      <point x="655" y="1187"/>
      <point x="646" y="1195" type="curve"/>
      <point x="515" y="1337" type="line" smooth="yes"/>
      <point x="498" y="1355"/>
      <point x="466" y="1367"/>
      <point x="429" y="1367" type="curve" smooth="yes"/>
      <point x="391" y="1367"/>
      <point x="359" y="1355"/>
      <point x="343" y="1337" type="curve" smooth="yes"/>
    </contour>
  </outline>
</glyph>
<glyph name="Atilde" format="1">
  <advance width="993"/>
  <unicode hex="00C3"/>
  <outline>
    <contour>
      <point x="301" y="399" type="line"/>
      <point x="429" y="769" type="line"/>
      <point x="556" y="399" type="line"/>
    </contour>
    <contour>
      <point x="688" y="15" type="line" smooth="yes"/>
      <point x="692" y="3"/>
      <point x="733" y="-6"/>
      <point x="780" y="-5" type="curve" smooth="yes"/>
      <point x="826" y="-4"/>
      <point x="861" y="7"/>
      <point x="857" y="18" type="curve" smooth="yes"/>
      <point x="526" y="982" type="line" smooth="yes"/>
      <point x="522" y="995"/>
      <point x="480" y="1005"/>
      <point x="429" y="1005" type="curve" smooth="yes"/>
      <point x="378" y="1005"/>
      <point x="336" y="995"/>
      <point x="331" y="982" type="curve" smooth="yes"/>
      <point x="0" y="18" type="line" smooth="yes"/>
      <point x="-4" y="7"/>
      <point x="31" y="-4"/>
      <point x="78" y="-5" type="curve" smooth="yes"/>
      <point x="124" y="-6"/>
      <point x="166" y="3"/>
      <point x="170" y="15" type="curve" smooth="yes"/>
      <point x="248" y="241" type="line"/>
      <point x="610" y="241" type="line"/>
    </contour>
    <contour>
      <point x="305" y="1136" type="curve" smooth="yes"/>
      <point x="328" y="1177"/>
      <point x="380" y="1140"/>
      <point x="399" y="1129" type="curve" smooth="yes"/>
      <point x="478" y="1086"/>
      <point x="599" y="1080"/>
      <point x="651" y="1176" type="curve" smooth="yes"/>
      <point x="654" y="1181"/>
      <point x="647" y="1190"/>
      <point x="633" y="1201" type="curve" smooth="yes"/>
      <point x="618" y="1212"/>
      <point x="601" y="1221"/>
      <point x="583" y="1228" type="curve" smooth="yes"/>
      <point x="566" y="1234"/>
      <point x="555" y="1235"/>
      <point x="553" y="1230" type="curve"/>
      <point x="530" y="1189"/>
      <point x="477" y="1226"/>
      <point x="458" y="1237" type="curve" smooth="yes"/>
      <point x="380" y="1280"/>
      <point x="259" y="1286"/>
      <point x="206" y="1190" type="curve" smooth="yes"/>
      <point x="202" y="1183"/>
      <point x="221" y="1165"/>
      <point x="248" y="1150" type="curve" smooth="yes"/>
      <point x="275" y="1135"/>
      <point x="301" y="1129"/>
    </contour>
  </outline>
</glyph>
<glyph name="Adieresis" format="1">
  <advance width="993"/>
  <unicode hex="00C4"/>
  <outline>
    <contour>
      <point x="301" y="399" type="line"/>
      <point x="429" y="769" type="line"/>
      <point x="556" y="399" type="line"/>
    </contour>
    <contour>
      <point x="688" y="15" type="line" smooth="yes"/>
      <point x="692" y="3"/>
      <point x="733" y="-6"/>
      <point x="780" y="-5" type="curve" smooth="yes"/>
      <point x="826" y="-4"/>
      <point x="861" y="7"/>
      <point x="857" y="18" type="curve" smooth="yes"/>
      <point x="526" y="982" type="line" smooth="yes"/>
      <point x="522" y="995"/>
      <point x="480" y="1005"/>
      <point x="429" y="1005" type="curve" smooth="yes"/>
      <point x="378" y="1005"/>
      <point x="336" y="995"/>
      <point x="331" y="982" type="curve" smooth="yes"/>
      <point x="0" y="18" type="line" smooth="yes"/>
      <point x="-4" y="7"/>
      <point x="31" y="-4"/>
      <point x="78" y="-5" type="curve" smooth="yes"/>
      <point x="124" y="-6"/>
      <point x="166" y="3"/>
      <point x="170" y="15" type="curve" smooth="yes"/>
      <point x="248" y="241" type="line"/>
      <point x="610" y="241" type="line"/>
    </contour>
    <contour>
      <point x="359" y="1216" type="line" smooth="yes"/>
      <point x="359" y="1227"/>
      <point x="321" y="1237"/>
      <point x="274" y="1237" type="curve" smooth="yes"/>
      <point x="227" y="1237"/>
      <point x="189" y="1227"/>
      <point x="189" y="1216" type="curve" smooth="yes"/>
      <point x="189" y="1101" type="line" smooth="yes"/>
      <point x="189" y="1089"/>
      <point x="227" y="1080"/>
      <point x="274" y="1080" type="curve" smooth="yes"/>
      <point x="321" y="1080"/>
      <point x="359" y="1089"/>
      <point x="359" y="1101" type="curve" smooth="yes"/>
    </contour>
    <contour>
      <point x="669" y="1216" type="line" smooth="yes"/>
      <point x="669" y="1227"/>
      <point x="631" y="1237"/>
      <point x="584" y="1237" type="curve" smooth="yes"/>
      <point x="537" y="1237"/>
      <point x="499" y="1227"/>
      <point x="499" y="1216" type="curve" smooth="yes"/>
      <point x="499" y="1101" type="line" smooth="yes"/>
      <point x="499" y="1089"/>
      <point x="537" y="1080"/>
      <point x="584" y="1080" type="curve" smooth="yes"/>
      <point x="631" y="1080"/>
      <point x="669" y="1089"/>
      <point x="669" y="1101" type="curve" smooth="yes"/>
    </contour>
  </outline>
</glyph>
<glyph name="Aring" format="1">
  <advance width="993"/>
  <unicode hex="00C5"/>
  <outline>
    <contour>
      <point x="301" y="399" type="line"/>
      <point x="429" y="769" type="line"/>
      <point x="556" y="399" type="line"/>
    </contour>
    <contour>
      <point x="688" y="15" type="line" smooth="yes"/>
      <point x="692" y="3"/>
      <point x="733" y="-6"/>
      <point x="780" y="-5" type="curve" smooth="yes"/>
      <point x="826" y="-4"/>
      <point x="861" y="7"/>
      <point x="857" y="18" type="curve" smooth="yes"/>
      <point x="526" y="982" type="line" smooth="yes"/>
      <point x="522" y="995"/>
      <point x="480" y="1005"/>
      <point x="429" y="1005" type="curve" smooth="yes"/>
      <point x="378" y="1005"/>
      <point x="336" y="995"/>
      <point x="331" y="982" type="curve" smooth="yes"/>
      <point x="0" y="18" type="line" smooth="yes"/>
      <point x="-4" y="7"/>
      <point x="31" y="-4"/>
      <point x="78" y="-5" type="curve" smooth="yes"/>
      <point x="124" y="-6"/>
      <point x="166" y="3"/>
      <point x="170" y="15" type="curve" smooth="yes"/>
      <point x="248" y="241" type="line"/>
      <point x="610" y="241" type="line"/>
    </contour>
    <contour>
      <point x="354" y="1268" type="curve" smooth="yes"/>
      <point x="354" y="1307"/>
      <point x="388" y="1339"/>
      <point x="429" y="1339" type="curve" smooth="yes"/>
      <point x="470" y="1339"/>
      <point x="503" y="1307"/>
      <point x="503" y="1268" type="curve" smooth="yes"/>
      <point x="503" y="1229"/>
      <point x="470" y="1198"/>
      <point x="429" y="1198" type="curve" smooth="yes"/>
      <point x="388" y="1198"/>
      <point x="354" y="1229"/>
    </contour>
    <contour>
      <point x="225" y="1268" type="curve" smooth="yes"/>
      <point x="225" y="1164"/>
      <point x="316" y="1080"/>
      <point x="429" y="1080" type="curve" smooth="yes"/>
      <point x="541" y="1080"/>
      <point x="633" y="1164"/>
      <point x="633" y="1268" type="curve" smooth="yes"/>
      <point x="633" y="1373"/>
      <point x="541" y="1457"/>
      <point x="429" y="1457" type="curve" smooth="yes"/>
      <point x="316" y="1457"/>
      <point x="225" y="1373"/>
    </contour>
  </outline>
</glyph>
<glyph name="Egrave" format="1">
  <advance width="763"/>
  <unicode hex="00C8"/>
  <outline>
    <contour>
      <point x="574" y="0" type="line" smooth="yes"/>
      <point x="603" y="0"/>
      <point x="627" y="35"/>
      <point x="627" y="79" type="curve" smooth="yes"/>
      <point x="627" y="122"/>
      <point x="603" y="157"/>
      <point x="574" y="157" type="curve" smooth="yes"/>
      <point x="170" y="157" type="line"/>
      <point x="170" y="431" type="line"/>
      <point x="417" y="431" type="line" smooth="yes"/>
      <point x="447" y="431"/>
      <point x="470" y="467"/>
      <point x="470" y="510" type="curve" smooth="yes"/>
      <point x="470" y="553"/>
      <point x="447" y="589"/>
      <point x="417" y="589" type="curve" smooth="yes"/>
      <point x="170" y="589" type="line"/>
      <point x="170" y="843" type="line"/>
      <point x="574" y="843" type="line" smooth="yes"/>
      <point x="603" y="843"/>
      <point x="627" y="878"/>
      <point x="627" y="921" type="curve" smooth="yes"/>
      <point x="627" y="965"/>
      <point x="603" y="1000"/>
      <point x="574" y="1000" type="curve" smooth="yes"/>
      <point x="98" y="1000" type="line" smooth="yes"/>
      <point x="44" y="1000"/>
      <point x="0" y="975"/>
      <point x="0" y="943" type="curve" smooth="yes"/>
      <point x="0" y="57" type="line" smooth="yes"/>
      <point x="0" y="25"/>
      <point x="44" y="0"/>
      <point x="98" y="0" type="curve" smooth="yes"/>
    </contour>
    <contour>
      <point x="241" y="1321" type="line" smooth="yes"/>
      <point x="228" y="1335"/>
      <point x="205" y="1334"/>
      <point x="180" y="1319" type="curve" smooth="yes"/>
      <point x="154" y="1304"/>
      <point x="133" y="1278"/>
      <point x="123" y="1250" type="curve" smooth="yes"/>
      <point x="113" y="1223"/>
      <point x="116" y="1200"/>
      <point x="133" y="1190" type="curve" smooth="yes"/>
      <point x="303" y="1084" type="line" smooth="yes"/>
      <point x="318" y="1075"/>
      <point x="344" y="1086"/>
      <point x="364" y="1109" type="curve" smooth="yes"/>
      <point x="383" y="1132"/>
      <point x="389" y="1160"/>
      <point x="377" y="1173" type="curve" smooth="yes"/>
    </contour>
  </outline>
</glyph>
<glyph name="Eacute" format="1">
  <advance width="763"/>
  <unicode hex="00C9"/>
  <outline>
    <contour>
      <point x="574" y="0" type="line" smooth="yes"/>
      <point x="603" y="0"/>
      <point x="627" y="35"/>
      <point x="627" y="79" type="curve" smooth="yes"/>
      <point x="627" y="122"/>
      <point x="603" y="157"/>
      <point x="574" y="157" type="curve" smooth="yes"/>
      <point x="170" y="157" type="line"/>
      <point x="170" y="431" type="line"/>
      <point x="417" y="431" type="line" smooth="yes"/>
      <point x="447" y="431"/>
      <point x="470" y="467"/>
      <point x="470" y="510" type="curve" smooth="yes"/>
      <point x="470" y="553"/>
      <point x="447" y="589"/>
      <point x="417" y="589" type="curve" smooth="yes"/>
      <point x="170" y="589" type="line"/>
      <point x="170" y="843" type="line"/>
      <point x="574" y="843" type="line" smooth="yes"/>
      <point x="603" y="843"/>
      <point x="627" y="878"/>
      <point x="627" y="921" type="curve" smooth="yes"/>
      <point x="627" y="965"/>
      <point x="603" y="1000"/>
      <point x="574" y="1000" type="curve" smooth="yes"/>
      <point x="98" y="1000" type="line" smooth="yes"/>
      <point x="44" y="1000"/>
      <point x="0" y="975"/>
      <point x="0" y="943" type="curve" smooth="yes"/>
      <point x="0" y="57" type="line" smooth="yes"/>
      <point x="0" y="25"/>
      <point x="44" y="0"/>
      <point x="98" y="0" type="curve" smooth="yes"/>
    </contour>
    <contour>
      <point x="387" y="1321" type="curve" smooth="yes"/>
      <point x="251" y="1173" type="line" smooth="yes"/>
      <point x="239" y="1160"/>
      <point x="244" y="1132"/>
      <point x="264" y="1109" type="curve" smooth="yes"/>
      <point x="283" y="1086"/>
      <point x="309" y="1075"/>
      <point x="324" y="1084" type="curve" smooth="yes"/>
      <point x="495" y="1190" type="line" smooth="yes"/>
      <point x="511" y="1200"/>
      <point x="514" y="1223"/>
      <point x="504" y="1250" type="curve" smooth="yes"/>
      <point x="494" y="1278"/>
      <point x="473" y="1304"/>
      <point x="448" y="1319" type="curve" smooth="yes"/>
      <point x="422" y="1334"/>
      <point x="400" y="1335"/>
    </contour>
  </outline>
</glyph>
<glyph name="Ecircumflex" format="1">
  <advance width="763"/>
  <unicode hex="00CA"/>
  <outline>
    <contour>
      <point x="604" y="0" type="line" smooth="yes"/>
      <point x="617" y="0"/>
      <point x="627" y="35"/>
      <point x="627" y="79" type="curve" smooth="yes"/>
      <point x="627" y="122"/>
      <point x="617" y="157"/>
      <point x="604" y="157" type="curve" smooth="yes"/>
      <point x="170" y="157" type="line"/>
      <point x="170" y="431" type="line"/>
      <point x="417" y="431" type="line" smooth="yes"/>
      <point x="430" y="431"/>
      <point x="440" y="467"/>
      <point x="440" y="510" type="curve" smooth="yes"/>
      <point x="440" y="553"/>
      <point x="430" y="589"/>
      <point x="417" y="589" type="curve" smooth="yes"/>
      <point x="170" y="589" type="line"/>
      <point x="170" y="843" type="line"/>
      <point x="604" y="843" type="line" smooth="yes"/>
      <point x="617" y="843"/>
      <point x="627" y="878"/>
      <point x="627" y="921" type="curve" smooth="yes"/>
      <point x="627" y="965"/>
      <point x="617" y="1000"/>
      <point x="604" y="1000" type="curve" smooth="yes"/>
      <point x="98" y="1000" type="line" smooth="yes"/>
      <point x="44" y="1000"/>
      <point x="0" y="989"/>
      <point x="0" y="976" type="curve" smooth="yes"/>
      <point x="0" y="24" type="line" smooth="yes"/>
      <point x="0" y="11"/>
      <point x="44" y="0"/>
      <point x="98" y="0" type="curve" smooth="yes"/>
    </contour>
    <contour>
      <point x="84" y="1174" type="line"/>
      <point x="81" y="1171"/>
      <point x="82" y="1164"/>
      <point x="89" y="1155" type="curve"/>
      <point x="104" y="1132"/>
      <point x="144" y="1101"/>
      <point x="178" y="1086" type="curve" smooth="yes"/>
      <point x="199" y="1077"/>
      <point x="212" y="1075"/>
      <point x="217" y="1080" type="curve"/>
      <point x="314" y="1195" type="line"/>
      <point x="411" y="1080" type="line" smooth="yes"/>
      <point x="415" y="1075"/>
      <point x="428" y="1077"/>
      <point x="449" y="1086" type="curve" smooth="yes"/>
      <point x="483" y="1101"/>
      <point x="523" y="1132"/>
      <point x="539" y="1155" type="curve" smooth="yes"/>
      <point x="545" y="1164"/>
      <point x="546" y="1171"/>
      <point x="543" y="1174" type="curve"/>
      <point x="409" y="1332" type="line" smooth="yes"/>
      <point x="400" y="1343"/>
      <point x="361" y="1352"/>
      <point x="314" y="1352" type="curve" smooth="yes"/>
      <point x="267" y="1352"/>
      <point x="227" y="1343"/>
      <point x="218" y="1332" type="curve" smooth="yes"/>
    </contour>
  </outline>
</glyph>
<glyph name="Edieresis" format="1">
  <advance width="763"/>
  <unicode hex="00CB"/>
  <outline>
    <contour>
      <point x="574" y="0" type="line" smooth="yes"/>
      <point x="603" y="0"/>
      <point x="627" y="35"/>
      <point x="627" y="79" type="curve" smooth="yes"/>
      <point x="627" y="122"/>
      <point x="603" y="157"/>
      <point x="574" y="157" type="curve" smooth="yes"/>
      <point x="170" y="157" type="line"/>
      <point x="170" y="431" type="line"/>
      <point x="417" y="431" type="line" smooth="yes"/>
      <point x="447" y="431"/>
      <point x="470" y="467"/>
      <point x="470" y="510" type="curve" smooth="yes"/>
      <point x="470" y="553"/>
      <point x="447" y="589"/>
      <point x="417" y="589" type="curve" smooth="yes"/>
      <point x="170" y="589" type="line"/>
      <point x="170" y="843" type="line"/>
      <point x="574" y="843" type="line" smooth="yes"/>
      <point x="603" y="843"/>
      <point x="627" y="878"/>
      <point x="627" y="921" type="curve" smooth="yes"/>
      <point x="627" y="965"/>
      <point x="603" y="1000"/>
      <point x="574" y="1000" type="curve" smooth="yes"/>
      <point x="98" y="1000" type="line" smooth="yes"/>
      <point x="44" y="1000"/>
      <point x="0" y="975"/>
      <point x="0" y="943" type="curve" smooth="yes"/>
      <point x="0" y="57" type="line" smooth="yes"/>
      <point x="0" y="25"/>
      <point x="44" y="0"/>
      <point x="98" y="0" type="curve" smooth="yes"/>
    </contour>
    <contour>
      <point x="243" y="1183" type="line" smooth="yes"/>
      <point x="243" y="1210"/>
      <point x="205" y="1232"/>
      <point x="158" y="1232" type="curve" smooth="yes"/>
      <point x="112" y="1232"/>
      <point x="73" y="1210"/>
      <point x="73" y="1183" type="curve" smooth="yes"/>
      <point x="73" y="1124" type="line" smooth="yes"/>
      <point x="73" y="1097"/>
      <point x="112" y="1075"/>
      <point x="158" y="1075" type="curve" smooth="yes"/>
      <point x="205" y="1075"/>
      <point x="243" y="1097"/>
      <point x="243" y="1124" type="curve" smooth="yes"/>
    </contour>
    <contour>
      <point x="554" y="1183" type="line" smooth="yes"/>
      <point x="554" y="1210"/>
      <point x="516" y="1232"/>
      <point x="469" y="1232" type="curve" smooth="yes"/>
      <point x="422" y="1232"/>
      <point x="384" y="1210"/>
      <point x="384" y="1183" type="curve" smooth="yes"/>
      <point x="384" y="1124" type="line" smooth="yes"/>
      <point x="384" y="1097"/>
      <point x="422" y="1075"/>
      <point x="469" y="1075" type="curve" smooth="yes"/>
      <point x="516" y="1075"/>
      <point x="554" y="1097"/>
      <point x="554" y="1124" type="curve" smooth="yes"/>
    </contour>
  </outline>
</glyph>
<glyph name="Igrave" format="1">
  <advance width="411"/>
  <unicode hex="00CC"/>
  <outline>
    <contour>
      <point x="276" y="983" type="line" smooth="yes"/>
      <point x="276" y="995"/>
      <point x="238" y="1005"/>
      <point x="191" y="1005" type="curve" smooth="yes"/>
      <point x="144" y="1005"/>
      <point x="106" y="995"/>
      <point x="106" y="983" type="curve" smooth="yes"/>
      <point x="106" y="17" type="line" smooth="yes"/>
      <point x="106" y="5"/>
      <point x="144" y="-5"/>
      <point x="191" y="-5" type="curve" smooth="yes"/>
      <point x="238" y="-5"/>
      <point x="276" y="5"/>
      <point x="276" y="17" type="curve" smooth="yes"/>
    </contour>
    <contour>
      <point x="111" y="1321" type="line"/>
      <point x="106" y="1327"/>
      <point x="91" y="1320"/>
      <point x="70" y="1301" type="curve" smooth="yes"/>
      <point x="50" y="1283"/>
      <point x="29" y="1258"/>
      <point x="15" y="1234" type="curve" smooth="yes"/>
      <point x="1" y="1211"/>
      <point x="-4" y="1195"/>
      <point x="3" y="1190" type="curve"/>
      <point x="174" y="1084" type="line" smooth="yes"/>
      <point x="181" y="1080"/>
      <point x="202" y="1095"/>
      <point x="222" y="1119" type="curve" smooth="yes"/>
      <point x="242" y="1144"/>
      <point x="253" y="1167"/>
      <point x="248" y="1173" type="curve"/>
    </contour>
  </outline>
</glyph>
<glyph name="Iacute" format="1">
  <advance width="411"/>
  <unicode hex="00CD"/>
  <outline>
    <contour>
      <point x="170" y="983" type="line" smooth="yes"/>
      <point x="170" y="995"/>
      <point x="132" y="1005"/>
      <point x="85" y="1005" type="curve" smooth="yes"/>
      <point x="38" y="1005"/>
      <point x="0" y="995"/>
      <point x="0" y="983" type="curve" smooth="yes"/>
      <point x="0" y="17" type="line" smooth="yes"/>
      <point x="0" y="5"/>
      <point x="38" y="-5"/>
      <point x="85" y="-5" type="curve" smooth="yes"/>
      <point x="132" y="-5"/>
      <point x="170" y="5"/>
      <point x="170" y="17" type="curve" smooth="yes"/>
    </contour>
    <contour>
      <point x="164" y="1321" type="curve" smooth="yes"/>
      <point x="28" y="1173" type="line" smooth="yes"/>
      <point x="22" y="1167"/>
      <point x="34" y="1144"/>
      <point x="54" y="1119" type="curve" smooth="yes"/>
      <point x="74" y="1095"/>
      <point x="95" y="1080"/>
      <point x="101" y="1084" type="curve" smooth="yes"/>
      <point x="273" y="1190" type="line"/>
      <point x="279" y="1195"/>
      <point x="275" y="1211"/>
      <point x="261" y="1234" type="curve" smooth="yes"/>
      <point x="246" y="1258"/>
      <point x="226" y="1283"/>
      <point x="205" y="1301" type="curve"/>
      <point x="185" y="1320"/>
      <point x="170" y="1327"/>
    </contour>
  </outline>
</glyph>
<glyph name="Icircumflex" format="1">
  <advance width="598"/>
  <unicode hex="00CE"/>
  <outline>
    <contour>
      <point x="316" y="983" type="line" smooth="yes"/>
      <point x="316" y="995"/>
      <point x="278" y="1005"/>
      <point x="231" y="1005" type="curve" smooth="yes"/>
      <point x="184" y="1005"/>
      <point x="146" y="995"/>
      <point x="146" y="983" type="curve" smooth="yes"/>
      <point x="146" y="17" type="line" smooth="yes"/>
      <point x="146" y="5"/>
      <point x="184" y="-5"/>
      <point x="231" y="-5" type="curve" smooth="yes"/>
      <point x="278" y="-5"/>
      <point x="316" y="5"/>
      <point x="316" y="17" type="curve" smooth="yes"/>
    </contour>
    <contour>
      <point x="1" y="1179" type="line"/>
      <point x="-1" y="1175"/>
      <point x="0" y="1169"/>
      <point x="6" y="1160" type="curve" smooth="yes"/>
      <point x="22" y="1137"/>
      <point x="62" y="1106"/>
      <point x="96" y="1091" type="curve" smooth="yes"/>
      <point x="116" y="1081"/>
      <point x="130" y="1080"/>
      <point x="134" y="1085" type="curve" smooth="yes"/>
      <point x="231" y="1199" type="line"/>
      <point x="328" y="1085" type="line" smooth="yes"/>
      <point x="332" y="1080"/>
      <point x="346" y="1081"/>
      <point x="366" y="1091" type="curve" smooth="yes"/>
      <point x="400" y="1106"/>
      <point x="441" y="1137"/>
      <point x="456" y="1160" type="curve" smooth="yes"/>
      <point x="462" y="1169"/>
      <point x="464" y="1175"/>
      <point x="461" y="1179" type="curve"/>
      <point x="327" y="1337" type="line" smooth="yes"/>
      <point x="317" y="1348"/>
      <point x="278" y="1356"/>
      <point x="231" y="1356" type="curve" smooth="yes"/>
      <point x="184" y="1356"/>
      <point x="145" y="1348"/>
      <point x="135" y="1337" type="curve" smooth="yes"/>
    </contour>
  </outline>
</glyph>
<glyph name="Idieresis" format="1">
  <advance width="616"/>
  <unicode hex="00CF"/>
  <outline>
    <contour>
      <point x="325" y="983" type="line" smooth="yes"/>
      <point x="325" y="995"/>
      <point x="287" y="1005"/>
      <point x="240" y="1005" type="curve" smooth="yes"/>
      <point x="193" y="1005"/>
      <point x="155" y="995"/>
      <point x="155" y="983" type="curve" smooth="yes"/>
      <point x="155" y="17" type="line" smooth="yes"/>
      <point x="155" y="5"/>
      <point x="193" y="-5"/>
      <point x="240" y="-5" type="curve" smooth="yes"/>
      <point x="287" y="-5"/>
      <point x="325" y="5"/>
      <point x="325" y="17" type="curve" smooth="yes"/>
    </contour>
    <contour>
      <point x="170" y="1216" type="line" smooth="yes"/>
      <point x="170" y="1227"/>
      <point x="132" y="1237"/>
      <point x="85" y="1237" type="curve" smooth="yes"/>
      <point x="38" y="1237"/>
      <point x="0" y="1227"/>
      <point x="0" y="1216" type="curve" smooth="yes"/>
      <point x="0" y="1101" type="line" smooth="yes"/>
      <point x="0" y="1089"/>
      <point x="38" y="1080"/>
      <point x="85" y="1080" type="curve" smooth="yes"/>
      <point x="132" y="1080"/>
      <point x="170" y="1089"/>
      <point x="170" y="1101" type="curve" smooth="yes"/>
    </contour>
    <contour>
      <point x="480" y="1216" type="line" smooth="yes"/>
      <point x="480" y="1227"/>
      <point x="442" y="1237"/>
      <point x="395" y="1237" type="curve" smooth="yes"/>
      <point x="348" y="1237"/>
      <point x="310" y="1227"/>
      <point x="310" y="1216" type="curve" smooth="yes"/>
      <point x="310" y="1101" type="line" smooth="yes"/>
      <point x="310" y="1089"/>
      <point x="348" y="1080"/>
      <point x="395" y="1080" type="curve" smooth="yes"/>
      <point x="442" y="1080"/>
      <point x="480" y="1089"/>
      <point x="480" y="1101" type="curve" smooth="yes"/>
    </contour>
  </outline>
</glyph>
<glyph name="Ntilde" format="1">
  <advance width="903"/>
  <unicode hex="00D1"/>
  <outline>
    <contour>
      <point x="170" y="671" type="line"/>
      <point x="578" y="32" type="line" smooth="yes"/>
      <point x="594" y="6"/>
      <point x="639" y="-9"/>
      <point x="687" y="-4" type="curve" smooth="yes"/>
      <point x="734" y="1"/>
      <point x="767" y="24"/>
      <point x="767" y="52" type="curve" smooth="yes"/>
      <point x="767" y="955" type="line" smooth="yes"/>
      <point x="767" y="983"/>
      <point x="729" y="1005"/>
      <point x="682" y="1005" type="curve" smooth="yes"/>
      <point x="635" y="1005"/>
      <point x="597" y="983"/>
      <point x="597" y="955" type="curve" smooth="yes"/>
      <point x="597" y="329" type="line"/>
      <point x="189" y="968" type="line" smooth="yes"/>
      <point x="173" y="994"/>
      <point x="128" y="1009"/>
      <point x="81" y="1004" type="curve" smooth="yes"/>
      <point x="33" y="999"/>
      <point x="0" y="976"/>
      <point x="0" y="948" type="curve" smooth="yes"/>
      <point x="0" y="45" type="line" smooth="yes"/>
      <point x="0" y="17"/>
      <point x="38" y="-5"/>
      <point x="85" y="-5" type="curve" smooth="yes"/>
      <point x="132" y="-5"/>
      <point x="170" y="17"/>
      <point x="170" y="45" type="curve" smooth="yes"/>
    </contour>
    <contour>
      <point x="264" y="1129" type="curve" smooth="yes"/>
      <point x="286" y="1169"/>
      <point x="336" y="1133"/>
      <point x="354" y="1123" type="curve" smooth="yes"/>
      <point x="431" y="1080"/>
      <point x="550" y="1075"/>
      <point x="602" y="1169" type="curve" smooth="yes"/>
      <point x="608" y="1180"/>
      <point x="604" y="1195"/>
      <point x="591" y="1209" type="curve" smooth="yes"/>
      <point x="579" y="1223"/>
      <point x="561" y="1233"/>
      <point x="542" y="1236" type="curve" smooth="yes"/>
      <point x="523" y="1239"/>
      <point x="509" y="1235"/>
      <point x="503" y="1223" type="curve" smooth="yes"/>
      <point x="481" y="1184"/>
      <point x="431" y="1220"/>
      <point x="413" y="1230" type="curve" smooth="yes"/>
      <point x="336" y="1273"/>
      <point x="217" y="1278"/>
      <point x="165" y="1183" type="curve" smooth="yes"/>
      <point x="156" y="1167"/>
      <point x="171" y="1141"/>
      <point x="198" y="1126" type="curve" smooth="yes"/>
      <point x="225" y="1111"/>
      <point x="255" y="1113"/>
    </contour>
  </outline>
</glyph>
<glyph name="Ograve" format="1">
  <advance width="1015"/>
  <unicode hex="00D2"/>
  <outline>
    <contour>
      <point x="189" y="472" type="curve" smooth="yes"/>
      <point x="189" y="528" type="line" smooth="yes"/>
      <point x="189" y="694"/>
      <point x="294" y="843"/>
      <point x="425" y="843" type="curve" smooth="yes"/>
      <point x="455" y="843" type="line" smooth="yes"/>
      <point x="594" y="843"/>
      <point x="691" y="702"/>
      <point x="691" y="528" type="curve" smooth="yes"/>
      <point x="691" y="472" type="line" smooth="yes"/>
      <point x="691" y="306"/>
      <point x="586" y="157"/>
      <point x="455" y="157" type="curve" smooth="yes"/>
      <point x="425" y="157" type="line" smooth="yes"/>
      <point x="286" y="157"/>
      <point x="189" y="298"/>
    </contour>
    <contour>
      <point x="0" y="472" type="line" smooth="yes"/>
      <point x="0" y="212"/>
      <point x="190" y="0"/>
      <point x="425" y="0" type="curve" smooth="yes"/>
      <point x="455" y="0" type="line" smooth="yes"/>
      <point x="690" y="0"/>
      <point x="880" y="212"/>
      <point x="880" y="472" type="curve" smooth="yes"/>
      <point x="880" y="528" type="line" smooth="yes"/>
      <point x="880" y="788"/>
      <point x="690" y="1000"/>
      <point x="455" y="1000" type="curve" smooth="yes"/>
      <point x="425" y="1000" type="line" smooth="yes"/>
      <point x="190" y="1000"/>
      <point x="0" y="788"/>
      <point x="0" y="528" type="curve" smooth="yes"/>
    </contour>
    <contour>
      <point x="367" y="1321" type="line" smooth="yes"/>
      <point x="354" y="1335"/>
      <point x="332" y="1334"/>
      <point x="306" y="1319" type="curve" smooth="yes"/>
      <point x="280" y="1304"/>
      <point x="260" y="1278"/>
      <point x="249" y="1250" type="curve" smooth="yes"/>
      <point x="239" y="1223"/>
      <point x="243" y="1200"/>
      <point x="259" y="1190" type="curve" smooth="yes"/>
      <point x="429" y="1084" type="line" smooth="yes"/>
      <point x="444" y="1075"/>
      <point x="471" y="1086"/>
      <point x="490" y="1109" type="curve" smooth="yes"/>
      <point x="509" y="1132"/>
      <point x="515" y="1160"/>
      <point x="503" y="1173" type="curve" smooth="yes"/>
    </contour>
  </outline>
</glyph>
<glyph name="Oacute" format="1">
  <advance width="1015"/>
  <unicode hex="00D3"/>
  <outline>
    <contour>
      <point x="178" y="472" type="curve" smooth="yes"/>
      <point x="178" y="528" type="line" smooth="yes"/>
      <point x="178" y="694"/>
      <point x="288" y="843"/>
      <point x="425" y="843" type="curve" smooth="yes"/>
      <point x="455" y="843" type="line" smooth="yes"/>
      <point x="600" y="843"/>
      <point x="702" y="702"/>
      <point x="702" y="528" type="curve" smooth="yes"/>
      <point x="702" y="472" type="line" smooth="yes"/>
      <point x="702" y="306"/>
      <point x="592" y="157"/>
      <point x="455" y="157" type="curve" smooth="yes"/>
      <point x="425" y="157" type="line" smooth="yes"/>
      <point x="279" y="157"/>
      <point x="178" y="298"/>
    </contour>
    <contour>
      <point x="0" y="472" type="line" smooth="yes"/>
      <point x="0" y="212"/>
      <point x="190" y="0"/>
      <point x="425" y="0" type="curve" smooth="yes"/>
      <point x="455" y="0" type="line" smooth="yes"/>
      <point x="690" y="0"/>
      <point x="880" y="212"/>
      <point x="880" y="472" type="curve" smooth="yes"/>
      <point x="880" y="528" type="line" smooth="yes"/>
      <point x="880" y="788"/>
      <point x="690" y="1000"/>
      <point x="455" y="1000" type="curve" smooth="yes"/>
      <point x="425" y="1000" type="line" smooth="yes"/>
      <point x="190" y="1000"/>
      <point x="0" y="788"/>
      <point x="0" y="528" type="curve" smooth="yes"/>
    </contour>
    <contour>
      <point x="519" y="1316" type="curve" smooth="yes"/>
      <point x="383" y="1168" type="line" smooth="yes"/>
      <point x="377" y="1162"/>
      <point x="389" y="1139"/>
      <point x="409" y="1115" type="curve" smooth="yes"/>
      <point x="429" y="1091"/>
      <point x="450" y="1075"/>
      <point x="456" y="1079" type="curve" smooth="yes"/>
      <point x="628" y="1186" type="line" smooth="yes"/>
      <point x="634" y="1190"/>
      <point x="630" y="1206"/>
      <point x="616" y="1230" type="curve" smooth="yes"/>
      <point x="601" y="1254"/>
      <point x="581" y="1278"/>
      <point x="560" y="1297" type="curve" smooth="yes"/>
      <point x="540" y="1315"/>
      <point x="525" y="1322"/>
    </contour>
  </outline>
</glyph>
<glyph name="Ocircumflex" format="1">
  <advance width="1015"/>
  <unicode hex="00D4"/>
  <outline>
    <contour>
      <point x="178" y="472" type="curve" smooth="yes"/>
      <point x="178" y="528" type="line" smooth="yes"/>
      <point x="178" y="694"/>
      <point x="288" y="843"/>
      <point x="425" y="843" type="curve" smooth="yes"/>
      <point x="455" y="843" type="line" smooth="yes"/>
      <point x="600" y="843"/>
      <point x="702" y="702"/>
      <point x="702" y="528" type="curve" smooth="yes"/>
      <point x="702" y="472" type="line" smooth="yes"/>
      <point x="702" y="306"/>
      <point x="592" y="157"/>
      <point x="455" y="157" type="curve" smooth="yes"/>
      <point x="425" y="157" type="line" smooth="yes"/>
      <point x="279" y="157"/>
      <point x="178" y="298"/>
    </contour>
    <contour>
      <point x="0" y="472" type="line" smooth="yes"/>
      <point x="0" y="212"/>
      <point x="190" y="0"/>
      <point x="425" y="0" type="curve" smooth="yes"/>
      <point x="455" y="0" type="line" smooth="yes"/>
      <point x="690" y="0"/>
      <point x="880" y="212"/>
      <point x="880" y="472" type="curve" smooth="yes"/>
      <point x="880" y="528" type="line" smooth="yes"/>
      <point x="880" y="788"/>
      <point x="690" y="1000"/>
      <point x="455" y="1000" type="curve" smooth="yes"/>
      <point x="425" y="1000" type="line" smooth="yes"/>
      <point x="190" y="1000"/>
      <point x="0" y="788"/>
      <point x="0" y="528" type="curve" smooth="yes"/>
    </contour>
    <contour>
      <point x="210" y="1174" type="line"/>
      <point x="207" y="1171"/>
      <point x="209" y="1164"/>
      <point x="215" y="1155" type="curve" smooth="yes"/>
      <point x="230" y="1132"/>
      <point x="271" y="1101"/>
      <point x="305" y="1086" type="curve" smooth="yes"/>
      <point x="325" y="1077"/>
      <point x="339" y="1075"/>
      <point x="343" y="1080" type="curve" smooth="yes"/>
      <point x="440" y="1195" type="line"/>
      <point x="537" y="1080" type="line" smooth="yes"/>
      <point x="541" y="1075"/>
      <point x="555" y="1077"/>
      <point x="575" y="1086" type="curve" smooth="yes"/>
      <point x="609" y="1101"/>
      <point x="649" y="1132"/>
      <point x="665" y="1155" type="curve" smooth="yes"/>
      <point x="671" y="1164"/>
      <point x="672" y="1171"/>
      <point x="670" y="1174" type="curve"/>
      <point x="536" y="1332" type="line" smooth="yes"/>
      <point x="526" y="1343"/>
      <point x="487" y="1352"/>
      <point x="440" y="1352" type="curve" smooth="yes"/>
      <point x="393" y="1352"/>
      <point x="354" y="1343"/>
      <point x="344" y="1332" type="curve" smooth="yes"/>
    </contour>
  </outline>
</glyph>
<glyph name="Otilde" format="1">
  <advance width="1015"/>
  <unicode hex="00D5"/>
  <outline>
    <contour>
      <point x="189" y="472" type="curve" smooth="yes"/>
      <point x="189" y="528" type="line" smooth="yes"/>
      <point x="189" y="694"/>
      <point x="294" y="843"/>
      <point x="425" y="843" type="curve" smooth="yes"/>
      <point x="455" y="843" type="line" smooth="yes"/>
      <point x="594" y="843"/>
      <point x="691" y="702"/>
      <point x="691" y="528" type="curve" smooth="yes"/>
      <point x="691" y="472" type="line" smooth="yes"/>
      <point x="691" y="306"/>
      <point x="586" y="157"/>
      <point x="455" y="157" type="curve" smooth="yes"/>
      <point x="425" y="157" type="line" smooth="yes"/>
      <point x="286" y="157"/>
      <point x="189" y="298"/>
    </contour>
    <contour>
      <point x="0" y="472" type="line" smooth="yes"/>
      <point x="0" y="212"/>
      <point x="190" y="0"/>
      <point x="425" y="0" type="curve" smooth="yes"/>
      <point x="455" y="0" type="line" smooth="yes"/>
      <point x="690" y="0"/>
      <point x="880" y="212"/>
      <point x="880" y="472" type="curve" smooth="yes"/>
      <point x="880" y="528" type="line" smooth="yes"/>
      <point x="880" y="788"/>
      <point x="690" y="1000"/>
      <point x="455" y="1000" type="curve" smooth="yes"/>
      <point x="425" y="1000" type="line" smooth="yes"/>
      <point x="190" y="1000"/>
      <point x="0" y="788"/>
      <point x="0" y="528" type="curve" smooth="yes"/>
    </contour>
    <contour>
      <point x="320" y="1129" type="curve" smooth="yes"/>
      <point x="342" y="1169"/>
      <point x="392" y="1133"/>
      <point x="410" y="1123" type="curve" smooth="yes"/>
      <point x="488" y="1080"/>
      <point x="606" y="1075"/>
      <point x="658" y="1169" type="curve" smooth="yes"/>
      <point x="664" y="1180"/>
      <point x="660" y="1195"/>
      <point x="648" y="1209" type="curve" smooth="yes"/>
      <point x="635" y="1223"/>
      <point x="617" y="1233"/>
      <point x="598" y="1236" type="curve" smooth="yes"/>
      <point x="580" y="1239"/>
      <point x="565" y="1235"/>
      <point x="559" y="1223" type="curve" smooth="yes"/>
      <point x="538" y="1184"/>
      <point x="488" y="1220"/>
      <point x="469" y="1230" type="curve" smooth="yes"/>
      <point x="392" y="1273"/>
      <point x="274" y="1278"/>
      <point x="222" y="1183" type="curve" smooth="yes"/>
      <point x="213" y="1167"/>
      <point x="227" y="1141"/>
      <point x="255" y="1126" type="curve" smooth="yes"/>
      <point x="282" y="1111"/>
      <point x="311" y="1113"/>
    </contour>
  </outline>
</glyph>
<glyph name="Odieresis" format="1">
  <advance width="1015"/>
  <unicode hex="00D6"/>
  <outline>
    <contour>
      <point x="178" y="472" type="curve" smooth="yes"/>
      <point x="178" y="528" type="line" smooth="yes"/>
      <point x="178" y="694"/>
      <point x="288" y="843"/>
      <point x="425" y="843" type="curve" smooth="yes"/>
      <point x="455" y="843" type="line" smooth="yes"/>
      <point x="600" y="843"/>
      <point x="702" y="702"/>
      <point x="702" y="528" type="curve" smooth="yes"/>
      <point x="702" y="472" type="line" smooth="yes"/>
      <point x="702" y="306"/>
      <point x="592" y="157"/>
      <point x="455" y="157" type="curve" smooth="yes"/>
      <point x="425" y="157" type="line" smooth="yes"/>
      <point x="279" y="157"/>
      <point x="178" y="298"/>
    </contour>
    <contour>
      <point x="0" y="472" type="line" smooth="yes"/>
      <point x="0" y="212"/>
      <point x="190" y="0"/>
      <point x="425" y="0" type="curve" smooth="yes"/>
      <point x="455" y="0" type="line" smooth="yes"/>
      <point x="690" y="0"/>
      <point x="880" y="212"/>
      <point x="880" y="472" type="curve" smooth="yes"/>
      <point x="880" y="528" type="line" smooth="yes"/>
      <point x="880" y="788"/>
      <point x="690" y="1000"/>
      <point x="455" y="1000" type="curve" smooth="yes"/>
      <point x="425" y="1000" type="line" smooth="yes"/>
      <point x="190" y="1000"/>
      <point x="0" y="788"/>
      <point x="0" y="528" type="curve" smooth="yes"/>
    </contour>
    <contour>
      <point x="370" y="1211" type="line" smooth="yes"/>
      <point x="370" y="1223"/>
      <point x="332" y="1232"/>
      <point x="285" y="1232" type="curve" smooth="yes"/>
      <point x="238" y="1232"/>
      <point x="200" y="1223"/>
      <point x="200" y="1211" type="curve" smooth="yes"/>
      <point x="200" y="1096" type="line" smooth="yes"/>
      <point x="200" y="1085"/>
      <point x="238" y="1075"/>
      <point x="285" y="1075" type="curve" smooth="yes"/>
      <point x="332" y="1075"/>
      <point x="370" y="1085"/>
      <point x="370" y="1096" type="curve" smooth="yes"/>
    </contour>
    <contour>
      <point x="680" y="1211" type="line" smooth="yes"/>
      <point x="680" y="1223"/>
      <point x="642" y="1232"/>
      <point x="595" y="1232" type="curve" smooth="yes"/>
      <point x="548" y="1232"/>
      <point x="510" y="1223"/>
      <point x="510" y="1211" type="curve" smooth="yes"/>
      <point x="510" y="1096" type="line" smooth="yes"/>
      <point x="510" y="1085"/>
      <point x="548" y="1075"/>
      <point x="595" y="1075" type="curve" smooth="yes"/>
      <point x="642" y="1075"/>
      <point x="680" y="1085"/>
      <point x="680" y="1096" type="curve" smooth="yes"/>
    </contour>
  </outline>
</glyph>
<glyph name="Ugrave" format="1">
  <advance width="910"/>
  <unicode hex="00D9"/>
  <outline>
    <contour>
      <point x="401" y="0" type="line" smooth="yes"/>
      <point x="607" y="0"/>
      <point x="774" y="212"/>
      <point x="774" y="472" type="curve" smooth="yes"/>
      <point x="774" y="983" type="line" smooth="yes"/>
      <point x="774" y="995"/>
      <point x="736" y="1005"/>
      <point x="689" y="1005" type="curve" smooth="yes"/>
      <point x="642" y="1005"/>
      <point x="604" y="995"/>
      <point x="604" y="983" type="curve" smooth="yes"/>
      <point x="604" y="472" type="line" smooth="yes"/>
      <point x="604" y="310"/>
      <point x="514" y="157"/>
      <point x="401" y="157" type="curve" smooth="yes"/>
      <point x="374" y="157" type="line" smooth="yes"/>
      <point x="245" y="157"/>
      <point x="170" y="298"/>
      <point x="170" y="472" type="curve" smooth="yes"/>
      <point x="170" y="983" type="line" smooth="yes"/>
      <point x="170" y="995"/>
      <point x="132" y="1005"/>
      <point x="85" y="1005" type="curve" smooth="yes"/>
      <point x="38" y="1005"/>
      <point x="0" y="995"/>
      <point x="0" y="983" type="curve" smooth="yes"/>
      <point x="0" y="472" type="line" smooth="yes"/>
      <point x="0" y="212"/>
      <point x="167" y="0"/>
      <point x="374" y="0" type="curve" smooth="yes"/>
    </contour>
    <contour>
      <point x="308" y="1321" type="line" smooth="yes"/>
      <point x="302" y="1327"/>
      <point x="287" y="1320"/>
      <point x="267" y="1301" type="curve"/>
      <point x="246" y="1283"/>
      <point x="226" y="1258"/>
      <point x="211" y="1234" type="curve" smooth="yes"/>
      <point x="197" y="1211"/>
      <point x="193" y="1195"/>
      <point x="200" y="1190" type="curve"/>
      <point x="371" y="1084" type="line" smooth="yes"/>
      <point x="378" y="1080"/>
      <point x="398" y="1095"/>
      <point x="418" y="1119" type="curve" smooth="yes"/>
      <point x="438" y="1144"/>
      <point x="450" y="1167"/>
      <point x="444" y="1173" type="curve" smooth="yes"/>
    </contour>
  </outline>
</glyph>
